<?xml version="1.0" encoding="UTF-8"?>
<svg id="Layer_1" xmlns="http://www.w3.org/2000/svg" version="1.1" xmlns:xlink="http://www.w3.org/1999/xlink" viewBox="0 0 700 415">
  <!-- Generator: Adobe Illustrator 29.3.0, SVG Export Plug-In . SVG Version: 2.1.0 Build 146)  -->
  <defs>
    <style>
      .st0 {
        stroke-dasharray: 8 6;
      }

      .st0, .st1, .st2, .st3 {
        stroke: #000;
      }

      .st0, .st1, .st3 {
        fill: none;
        stroke-linejoin: round;
      }

      .st0, .st2, .st3 {
        stroke-width: 2px;
      }

      .st4 {
        fill: #d9d2e9;
      }

      .st4, .st5, .st6, .st2, .st7, .st8 {
        fill-rule: evenodd;
      }

      .st5 {
        fill: #d9ead3;
      }

      .st6 {
        fill: #cfe2f3;
      }

      .st2 {
        stroke-miterlimit: 10;
      }

      .st7 {
        fill: #fff2cc;
      }

      .st8 {
        fill-opacity: 0;
      }
    </style>
  </defs>
  <path class="st7" d="M157.8,117.8h130.1v65.3h-130.1v-65.3Z"/>
  <path class="st1" d="M157.8,117.8h130.1v65.3h-130.1v-65.3Z"/>
  <path d="M176.1,143.8c1.5,0,2.7.4,3.5,1.1.9.7,1.3,1.8,1.4,3.1h-1.7c-.1-.9-.4-1.6-1-2-.6-.5-1.3-.7-2.3-.7s-1.7.2-2.2.6c-.5.4-.8.9-.8,1.7s.2.9.7,1.3c.4.3,1.7.7,3.6,1.1,1.4.3,2.5.7,3.2,1.3s1.1,1.4,1.1,2.5-.5,2.2-1.5,2.9-2.2,1-3.7,1-2.9-.4-4-1.2c-1-.8-1.5-2-1.5-3.5h1.7c0,1,.4,1.8,1.1,2.4.7.6,1.7.8,2.8.8s1.9-.2,2.5-.6c.6-.4.9-1,.9-1.8s-.3-1.1-.8-1.5-1.5-.7-2.9-1c-1.9-.4-3.2-.8-3.8-1.4-.6-.6-1-1.3-1-2.2s.5-2.1,1.4-2.8,2.1-1.1,3.5-1.1h-.2ZM185.1,147.8v6.6c0,.5.2,1,.5,1.4.4.4.8.5,1.5.5s1.6-.3,2.1-.8c.5-.6.8-1.3.8-2.1v-5.5h1.6v9.6h-1.5v-1.5h0c-.4.6-.8,1.1-1.3,1.3s-1.1.4-1.8.4c-1.1,0-2-.3-2.5-.9-.5-.6-.8-1.4-.8-2.6v-6.4h1.6-.2ZM195.5,144.1v5h0c.2-.5.6-.9,1.2-1.1s1.2-.4,1.9-.4c1.4,0,2.5.5,3.2,1.4s1.2,2.2,1.2,3.6-.4,2.7-1.2,3.6c-.8.9-1.8,1.4-3.2,1.4s-1.2-.1-1.8-.4-1-.6-1.4-1.1h0v1.3h-1.6v-13.3h1.7ZM195.4,152.6c0,1.1.3,2,.8,2.7s1.3,1,2.2,1,1.6-.3,2.1-1,.8-1.6.8-2.8-.3-1.9-.8-2.5c-.5-.7-1.3-1-2.2-1s-1.7.3-2.2,1-.8,1.6-.8,2.6h0ZM208.1,147.6c1.3,0,2.3.2,2.9.8.6.5,1,1.3,1,2.3h-1.6c0-.5-.3-.9-.7-1.2s-.9-.4-1.6-.4-1.1.1-1.5.3-.5.5-.5.9.2.6.5.9c.3.2.8.4,1.5.5l1.5.3c.9.2,1.6.5,2.1,1,.5.4.7,1,.7,1.7s-.4,1.7-1.1,2.2c-.7.5-1.7.8-3,.8s-2.2-.3-3-.8c-.7-.6-1.1-1.4-1.1-2.5h1.6c0,.6.3,1.1.7,1.4.5.3,1.1.5,1.9.5s1.4-.1,1.8-.4c.4-.2.6-.6.6-1.1s-.2-.8-.6-1c-.4-.2-1.2-.5-2.4-.7s-2.1-.6-2.6-1-.7-1-.7-1.7.3-1.5,1-2,1.6-.7,2.6-.7h0ZM218.3,147.6c1.2,0,2.1.3,2.9.8.7.6,1.2,1.4,1.3,2.5h-1.6c-.1-.6-.4-1.1-.8-1.4-.4-.3-.9-.5-1.6-.5-1,0-1.7.3-2.2,1s-.8,1.6-.8,2.8.3,1.9.8,2.6c.5.6,1.2,1,2.1,1s1.4-.2,1.8-.6.7-1,.8-1.7h1.6c-.2,1.2-.6,2.1-1.4,2.8-.7.6-1.7,1-2.9,1s-2.5-.4-3.3-1.3c-.8-.9-1.2-2.1-1.2-3.6s.4-2.8,1.2-3.8c.8-.9,1.9-1.4,3.3-1.4v-.2ZM229.1,147.5h.1v1.7c-1.2,0-2.1.3-2.7,1-.6.6-.8,1.6-.8,2.9v4.3h-1.6v-9.6h1.5v2h0c.4-.8.8-1.3,1.4-1.7.6-.4,1.2-.6,2-.6h.1ZM232.2,144.1v1.9h-1.6v-1.9h1.6ZM232.2,147.8v9.6h-1.6v-9.6h1.6ZM239.4,147.6c1.4,0,2.5.5,3.2,1.4.8.9,1.2,2.2,1.2,3.6s-.4,2.7-1.2,3.6c-.8.9-1.8,1.4-3.2,1.4s-1.2-.1-1.8-.4c-.6-.2-1-.6-1.4-1.1h0v5h-1.6v-13.3h1.6v1.3h0c.2-.5.6-.9,1.2-1.1.5-.3,1.2-.4,1.9-.4h.1ZM236.2,152.6c0,1.1.3,2,.8,2.7s1.3,1,2.2,1,1.6-.3,2.1-1,.8-1.6.8-2.8-.3-1.9-.8-2.5c-.5-.7-1.3-1-2.2-1s-1.7.3-2.2,1-.8,1.6-.8,2.6h0ZM247.9,144.9v2.9h1.9v1.4h-1.9v6c0,.5.2.7.5.8h1.4v1.4h-1.3c-.9,0-1.5-.2-1.8-.5s-.4-.8-.4-1.6v-6.2h-1.7v-1.4h1.7v-2.9h1.6ZM253.2,144.1v1.9h-1.6v-1.9h1.6ZM253.2,147.8v9.6h-1.6v-9.6h1.6ZM259.9,147.6c1.5,0,2.6.5,3.4,1.4s1.2,2.2,1.2,3.6-.4,2.7-1.3,3.7c-.8.9-2,1.4-3.4,1.4s-2.5-.5-3.4-1.4-1.3-2.1-1.3-3.7.4-2.8,1.3-3.7c.9-.9,2-1.4,3.4-1.4h0ZM256.9,152.6c0,1.1.3,2,.8,2.7.6.7,1.3,1,2.2,1s1.6-.3,2.1-1c.6-.7.9-1.6.9-2.7s-.3-2-.8-2.6c-.6-.7-1.3-1-2.2-1s-1.6.3-2.1,1-.9,1.5-.9,2.7h0ZM271.1,147.6c1.2,0,2,.3,2.5.9.5.6.8,1.4.8,2.5v6.4h-1.6v-6.6c0-.5-.2-1-.5-1.3-.3-.4-.8-.5-1.4-.5-.9,0-1.6.3-2.1.8s-.8,1.2-.8,2.1v5.5h-1.6v-9.6h1.5v1.5h0c.4-.6.8-1,1.3-1.3s1.1-.4,1.8-.4h.1Z"/>
  <path class="st7" d="M157.8,248.4h130.1v112.4h-130.1v-112.4Z"/>
  <path class="st1" d="M157.8,248.4h130.1v112.4h-130.1v-112.4Z"/>
  <path d="M186.6,262v1.5h-7v4.2h6.1v1.5h-6.1v6.1h-1.8v-13.3h8.8ZM192.2,265.5h.1v1.7c-1.2,0-2.1.3-2.7,1-.6.6-.8,1.6-.8,2.9v4.3h-1.6v-9.6h1.5v2h0c.4-.8.8-1.3,1.4-1.7.6-.4,1.2-.6,2-.6h.1ZM197.1,265.5c1.3,0,2.2.2,2.8.7s.8,1.1.8,1.9v5.6c0,.4.2.5.5.5s.2,0,.2,0h.2v1.2c-.1,0-.3.1-.5.2h-.6c-.4,0-.8-.1-1-.4-.2-.2-.3-.6-.3-1.1-.4.5-.9.9-1.5,1.1s-1.2.4-1.9.4-1.8-.2-2.3-.7c-.6-.5-.8-1.2-.8-2s.3-1.5.8-2c.6-.5,1.9-.9,3.9-1.2.7,0,1.2-.2,1.4-.4.2-.2.4-.4.4-.8s-.2-.9-.5-1.2c-.3-.3-.9-.4-1.6-.4s-1.4.2-1.8.5c-.4.3-.6.8-.6,1.4h-1.6c0-1.1.4-1.9,1.1-2.4.7-.5,1.7-.8,3-.8h0ZM194.3,272.8c0,.4.2.8.5,1s.8.4,1.4.4c.9,0,1.6-.2,2.1-.7.5-.4.8-.9.8-1.5v-1.7c-.3.2-.6.3-1,.4-.4,0-1,.1-1.7.2s-1.2.3-1.6.6c-.3.3-.5.7-.5,1.2h0ZM207.8,265.5c.7,0,1.3.1,1.7.4s.8.7.9,1.2c.3-.5.8-.9,1.3-1.2.5-.3,1.1-.4,1.8-.4,1.1,0,1.9.2,2.4.7s.8,1.2.8,2v7.1h-1.6v-6.4c0-.7-.2-1.2-.5-1.6-.3-.3-.8-.5-1.4-.5s-1.4.2-1.9.7c-.4.5-.7,1-.7,1.7v6.1h-1.6v-6.4c0-.7-.1-1.2-.4-1.6-.3-.3-.7-.5-1.4-.5s-1,.1-1.3.4c-.4.2-.7.6-.9,1s-.3.8-.3,1.1v6h-1.6v-9.6h1.5v1.4h0c.4-.6.8-1,1.3-1.2.5-.3,1.1-.4,1.8-.4h0ZM223.1,265.5c1.4,0,2.5.5,3.2,1.5.8,1,1.2,2.3,1.2,3.8v.2h-7.2c0,1,.3,1.8.8,2.3.5.6,1.3.8,2.2.8s1.3-.2,1.7-.5.7-.8.8-1.4h1.6c-.2,1.1-.7,1.9-1.4,2.5s-1.6.8-2.7.8-1.9-.2-2.6-.7c-.7-.5-1.2-1.1-1.5-1.9s-.5-1.7-.5-2.5c0-1.4.4-2.6,1.3-3.6.9-.9,1.9-1.4,3.2-1.4h-.1ZM220.3,269.6h5.5c0-.8-.3-1.4-.9-1.9-.5-.5-1.2-.8-1.9-.8s-1.4.2-1.9.7-.8,1.2-.9,2h0ZM237,262l4.2,11.2,4.2-11.2h2.4v13.3h-1.7v-11.1h0l-4.2,11.1h-1.5l-4.2-11.1h0v11.1h-1.7v-13.3h2.5ZM253.8,265.5c1.3,0,2.3.2,2.9.8.6.5,1,1.3,1,2.3h-1.6c0-.5-.3-.9-.7-1.2-.4-.3-.9-.4-1.6-.4s-1.1.1-1.5.3c-.4.2-.5.5-.5.9s.2.6.5.9c.3.2.8.4,1.5.5l1.5.3c.9.2,1.6.5,2.1,1,.5.4.7,1,.7,1.7s-.4,1.7-1.1,2.2c-.7.5-1.7.8-3,.8s-2.2-.3-3-.8c-.7-.6-1.1-1.4-1.1-2.5h1.6c0,.6.3,1.1.7,1.4.5.3,1.1.5,1.9.5s1.4-.1,1.8-.4c.4-.2.6-.6.6-1.1s-.2-.8-.6-1c-.4-.2-1.2-.5-2.4-.7s-2.1-.6-2.6-1-.7-1-.7-1.7.3-1.5,1-2,1.6-.7,2.6-.7h0ZM263.8,265.5c.7,0,1.2.1,1.7.4s.9.7,1.1,1.2h0v-1.4h1.5v8.9c0,1.5-.4,2.7-1.1,3.5s-1.9,1.2-3.4,1.2-2-.2-2.8-.7-1.2-1.2-1.2-2.1h1.6c0,.5.3.9.8,1.2.5.3,1.1.4,1.7.4.9,0,1.7-.3,2.2-.9s.8-1.5.8-2.8v-.6h0c-.2.5-.6,1-1.2,1.3-.5.3-1.1.5-1.8.5-1.3,0-2.3-.4-3.1-1.3-.8-.9-1.2-2.1-1.2-3.5s.4-2.7,1.2-3.7c.8-1,1.9-1.4,3.3-1.4v-.2ZM261,270.4c0,1.1.2,2,.7,2.7s1.2,1,2,1,1.6-.3,2.1-1,.8-1.6.8-2.7-.2-1.9-.7-2.5-1.2-1-2-1-1.6.3-2.1,1c-.5.6-.8,1.5-.8,2.5Z"/>
  <path class="st8" d="M222.9,98.1v19.8"/>
  <path class="st3" d="M222.9,98.1v7.8"/>
  <path class="st2" d="M219.6,105.8l3.3,9.1,3.3-9.1h-6.6Z"/>
  <path class="st8" d="M167.6,58.4h110.6v39.7h-110.6v-39.7h0Z"/>
  <path d="M182.8,62.7c1.3,0,2.3.3,3,.9.8.6,1.1,1.5,1.2,2.7h-1.4c0-.8-.4-1.4-.8-1.8-.5-.4-1.1-.6-2-.6s-1.4.2-1.9.5c-.4.3-.7.8-.7,1.4s.2.8.6,1.1c.4.3,1.4.6,3.1.9,1.2.2,2.1.6,2.7,1.2.6.5.9,1.2.9,2.1s-.4,1.9-1.3,2.5c-.9.6-1.9.9-3.2.9s-2.5-.3-3.4-1-1.3-1.7-1.3-3h1.4c0,.9.3,1.6.9,2,.6.5,1.4.7,2.4.7s1.6-.2,2.1-.5c.5-.4.8-.9.8-1.5s-.2-1-.7-1.3-1.3-.6-2.5-.8c-1.6-.3-2.7-.7-3.3-1.2s-.8-1.1-.8-1.9.4-1.8,1.2-2.4c.8-.6,1.8-.9,3-.9h0ZM190.5,66.1v5.6c0,.5.1.9.4,1.2.3.3.7.5,1.2.5.8,0,1.4-.2,1.8-.7.4-.5.6-1.1.6-1.8v-4.7h1.4v8.3h-1.3v-1.3h0c-.3.5-.7.9-1.1,1.2-.4.2-1,.4-1.5.4-1,0-1.7-.2-2.2-.8-.5-.5-.7-1.2-.7-2.2v-5.5h1.4v-.2ZM199.4,63v4.3h0c.2-.4.5-.8,1-1s1-.3,1.6-.3c1.2,0,2.1.4,2.8,1.2.7.8,1,1.9,1,3.1s-.3,2.3-1,3.1c-.7.8-1.6,1.2-2.8,1.2s-1,0-1.5-.3c-.5-.2-.9-.5-1.2-1h0v1.1h-1.4v-11.4h1.5ZM199.4,70.2c0,1,.2,1.7.7,2.3.5.6,1.1.8,1.9.8s1.4-.3,1.8-.8c.4-.6.7-1.3.7-2.3s-.2-1.6-.7-2.2c-.4-.6-1.1-.9-1.9-.9s-1.4.3-1.9.9c-.4.6-.7,1.3-.7,2.2h0ZM210.2,65.9c1.1,0,1.9.2,2.5.7.5.4.8,1.1.9,1.9h-1.4c0-.5-.2-.8-.6-1-.3-.2-.8-.4-1.3-.4s-1,0-1.3.3c-.3.2-.5.4-.5.8s.1.6.4.8c.3.2.7.3,1.3.5l1.3.3c.8.2,1.4.5,1.8.8.4.4.6.9.6,1.5s-.3,1.5-1,1.9c-.6.5-1.5.7-2.6.7s-1.9-.2-2.5-.7-.9-1.2-1-2.1h1.4c0,.5.2.9.6,1.2.4.3.9.4,1.6.4s1.2,0,1.5-.3c.3-.2.5-.5.5-.9s-.2-.7-.5-.9c-.3-.2-1-.4-2.1-.6-1-.2-1.8-.5-2.2-.9s-.6-.9-.6-1.5.3-1.3.9-1.7c.6-.4,1.3-.6,2.2-.6v-.2ZM218.9,65.9c1,0,1.8.2,2.5.7.6.5,1,1.2,1.1,2.1h-1.4c-.1-.5-.3-.9-.7-1.2-.4-.3-.8-.4-1.3-.4-.8,0-1.5.3-1.9.8-.4.6-.7,1.4-.7,2.4s.2,1.7.6,2.2c.4.5,1,.8,1.8.8s1.2-.2,1.6-.5.6-.8.7-1.5h1.4c-.1,1-.5,1.8-1.2,2.4s-1.5.8-2.5.8-2.2-.4-2.8-1.1-1-1.8-1-3.1.3-2.4,1-3.2c.7-.8,1.7-1.2,2.9-1.2h-.1ZM228.2,65.9h.2v1.4c-1,0-1.8.3-2.3.8s-.7,1.4-.7,2.5v3.7h-1.4v-8.3h1.3v1.8h0c.3-.7.7-1.1,1.2-1.5.5-.3,1-.5,1.7-.5h0ZM230.8,63v1.7h-1.4v-1.7h1.4ZM230.8,66.1v8.3h-1.4v-8.3h1.4ZM237,65.9c1.2,0,2.1.4,2.8,1.2.7.8,1,1.9,1,3.1s-.3,2.3-1,3.1c-.7.8-1.6,1.2-2.8,1.2s-1,0-1.5-.3c-.5-.2-.9-.5-1.2-1h0v4.3h-1.4v-11.5h1.4v1.1h0c.2-.4.5-.8,1-1s1-.3,1.6-.3h0ZM234.3,70.2c0,1,.2,1.7.7,2.3.5.6,1.1.8,1.9.8s1.4-.3,1.8-.8c.4-.6.7-1.3.7-2.3s-.2-1.6-.7-2.2c-.4-.6-1.1-.9-1.9-.9s-1.4.3-1.9.9c-.4.6-.7,1.3-.7,2.2h0ZM244.3,63.6v2.5h1.6v1.2h-1.6v5.2c0,.4.1.6.4.7h1.3v1.2h-1.1c-.7,0-1.2,0-1.5-.4-.2-.3-.4-.7-.4-1.3v-5.3h-1.4v-1.2h1.4v-2.5h1.4,0ZM248.9,63v1.7h-1.4v-1.7h1.4ZM248.9,66.1v8.3h-1.4v-8.3h1.4ZM254.6,65.9c1.2,0,2.2.4,2.9,1.2.7.8,1.1,1.8,1.1,3.1s-.4,2.3-1.1,3.1c-.7.8-1.7,1.2-2.9,1.2s-2.2-.4-2.9-1.2c-.7-.8-1.1-1.8-1.1-3.2s.4-2.4,1.1-3.2c.7-.8,1.7-1.2,2.9-1.2v.2ZM252,70.3c0,.9.2,1.7.7,2.3.5.6,1.1.8,1.9.8s1.4-.3,1.8-.8c.5-.6.7-1.3.7-2.3s-.2-1.7-.7-2.3c-.5-.6-1.1-.9-1.9-.9s-1.3.3-1.8.8c-.5.6-.7,1.3-.7,2.3h0ZM264.2,65.9c1,0,1.7.3,2.2.8.4.5.7,1.2.7,2.2v5.5h-1.4v-5.7c0-.5-.2-.9-.5-1.2-.3-.3-.7-.5-1.2-.5-.8,0-1.4.2-1.8.7s-.6,1.1-.6,1.8v4.7h-1.4v-8.3h1.3v1.3h0c.3-.5.7-.9,1.1-1.1s1-.4,1.6-.4v.2Z"/>
  <path d="M212.1,82.2v5.7l5.8-5.7h2l-4.8,4.6,5,6.8h-1.9l-4.1-5.8-1.9,1.8v4h-1.5v-11.4h1.5-.1ZM224.3,85.1c1.2,0,2.1.4,2.8,1.3s1,2,1,3.3v.2h-6.2c0,.9.2,1.5.7,2s1.1.7,1.9.7,1.1,0,1.4-.4c.4-.3.6-.7.7-1.2h1.3c-.2.9-.6,1.6-1.2,2.1-.6.5-1.4.7-2.3.7s-1.6-.2-2.2-.6c-.6-.4-1.1-.9-1.3-1.6-.3-.7-.4-1.4-.4-2.2,0-1.2.4-2.2,1.1-3,.7-.8,1.7-1.2,2.8-1.2h-.1ZM221.9,88.6h4.8c0-.7-.3-1.2-.7-1.7-.4-.4-1-.7-1.7-.7s-1.2.2-1.6.6c-.4.4-.7,1-.8,1.7h0ZM230.1,85.3l2.4,6.8h0l2.3-6.8h1.4l-3.5,9.2c-.4.9-.7,1.6-1.1,1.9-.3.3-.8.5-1.4.5s-.3,0-.5,0-.3,0-.5,0v-1.2c.1,0,.3,0,.4,0h.4c.6,0,.9-.3,1.2-.8.2-.6.4-1,.5-1.3l-3.3-8.2h1.7Z"/>
  <path class="st8" d="M288,150.5h66.2"/>
  <path class="st3" d="M288,150.5h54.2"/>
  <path class="st2" d="M342.1,153.8l9.1-3.3-9.1-3.3v6.6Z"/>
  <path class="st6" d="M354.1,150.5l88.8-33.3,88.8,33.3-88.8,33.3-88.8-33.3Z"/>
  <path class="st1" d="M354.1,150.5l88.8-33.3,88.8,33.3-88.8,33.3-88.8-33.3Z"/>
  <path d="M412,144.1l3.8,11.5h0l3.8-11.5h1.8l-4.7,13.3h-2l-4.7-13.3h2ZM425.8,147.6c1.3,0,2.2.2,2.8.7.6.5.8,1.1.8,1.9v5.6c0,.4.2.5.5.5s.2,0,.2,0h.2v1.2c-.1,0-.3.1-.5.2h-.6c-.4,0-.8-.1-1-.4s-.3-.6-.3-1.1c-.4.5-.9.9-1.5,1.1-.6.2-1.2.4-1.9.4s-1.8-.2-2.3-.7c-.6-.5-.8-1.2-.8-2s.3-1.5.8-2c.6-.5,1.9-.9,3.9-1.2.7,0,1.2-.2,1.4-.4.2-.2.4-.4.4-.8s-.2-.9-.5-1.2-.9-.4-1.6-.4-1.4.2-1.8.5-.6.8-.6,1.4h-1.6c0-1.1.4-1.9,1.1-2.4s1.7-.8,3-.8h-.1ZM423,154.8c0,.4.2.8.5,1s.8.4,1.4.4c.9,0,1.6-.2,2.1-.7.5-.4.8-.9.8-1.5v-1.7c-.3.2-.6.3-1,.4-.4,0-1,.1-1.7.2-.7.1-1.2.3-1.6.6s-.5.7-.5,1.2h0ZM433.5,144.1v13.3h-1.6v-13.3h1.6ZM437.7,144.1v1.9h-1.6v-1.9h1.6ZM437.7,147.8v9.6h-1.6v-9.6h1.6ZM448.7,144.1v13.3h-1.6v-1.3h0c-.2.5-.6.9-1.2,1.1-.5.3-1.2.4-1.9.4-1.3,0-2.4-.5-3.2-1.4-.8-.9-1.2-2.2-1.2-3.7s.4-2.7,1.2-3.6,1.9-1.4,3.2-1.4,1.2.1,1.8.4c.6.2,1,.6,1.3,1.1h0v-5h1.6ZM441.3,152.7c0,1,.3,1.9.8,2.6.5.7,1.3,1,2.2,1s1.6-.3,2.2-1c.5-.7.8-1.6.8-2.6s-.3-2-.8-2.6c-.5-.7-1.3-1-2.3-1s-1.6.3-2.1,1-.8,1.6-.8,2.7h0ZM455.1,147.6c1.3,0,2.2.2,2.8.7.6.5.8,1.1.8,1.9v5.6c0,.4.2.5.5.5s.2,0,.2,0h.2v1.2c-.1,0-.3.1-.5.2h-.6c-.4,0-.8-.1-1-.4s-.3-.6-.3-1.1c-.4.5-.9.9-1.5,1.1-.6.2-1.2.4-1.9.4s-1.8-.2-2.3-.7c-.6-.5-.8-1.2-.8-2s.3-1.5.8-2c.6-.5,1.9-.9,3.9-1.2.7,0,1.2-.2,1.4-.4.2-.2.4-.4.4-.8s-.2-.9-.5-1.2-.9-.4-1.6-.4-1.4.2-1.8.5-.6.8-.6,1.4h-1.6c0-1.1.4-1.9,1.1-2.4s1.7-.8,3-.8h-.1ZM452.3,154.8c0,.4.2.8.5,1s.8.4,1.4.4c.9,0,1.6-.2,2.1-.7.5-.4.8-.9.8-1.5v-1.7c-.3.2-.6.3-1,.4-.4,0-1,.1-1.7.2-.7.1-1.2.3-1.6.6s-.5.7-.5,1.2h0ZM463.4,144.9v2.9h1.9v1.4h-1.9v6c0,.5.2.7.5.8h1.4v1.4h-1.3c-.9,0-1.5-.2-1.8-.5s-.4-.8-.4-1.6v-6.2h-1.7v-1.4h1.7v-2.9h1.6,0ZM470.9,147.6c1.4,0,2.5.5,3.2,1.5.8,1,1.2,2.3,1.2,3.8v.2h-7.2c0,1,.3,1.8.8,2.3.5.6,1.3.8,2.2.8s1.3-.2,1.7-.5c.4-.3.7-.8.8-1.4h1.6c-.2,1.1-.7,1.9-1.4,2.5s-1.6.8-2.7.8-1.9-.2-2.6-.7-1.2-1.1-1.5-1.9c-.3-.8-.5-1.7-.5-2.5,0-1.4.4-2.6,1.3-3.6.9-.9,1.9-1.4,3.2-1.4h-.1ZM468,151.7h5.5c0-.8-.3-1.4-.9-1.9-.5-.5-1.2-.8-1.9-.8s-1.4.2-1.9.7-.8,1.2-.9,2h0Z"/>
  <path class="st8" d="M442.9,98.1v19.1"/>
  <path class="st3" d="M442.9,98.1v7.1"/>
  <path class="st2" d="M439.6,105.2l3.3,9.1,3.3-9.1h-6.6,0Z"/>
  <path class="st8" d="M371.3,58.4h143.1v39.7h-143.1v-39.7h0Z"/>
  <path d="M387,72.3c1.3,0,2.3.3,3,.9.8.6,1.1,1.5,1.2,2.7h-1.4c0-.8-.4-1.4-.8-1.8-.5-.4-1.1-.6-2-.6s-1.4.2-1.9.5c-.4.3-.7.8-.7,1.4s.2.8.6,1.1c.4.3,1.4.6,3.1.9,1.2.2,2.1.6,2.7,1.2.6.5.9,1.2.9,2.1s-.4,1.9-1.3,2.5-1.9.9-3.2.9-2.5-.3-3.4-1-1.3-1.7-1.3-3h1.4c0,.9.3,1.6.9,2s1.4.7,2.4.7,1.6-.2,2.1-.5c.5-.4.8-.9.8-1.5s-.2-1-.7-1.3-1.3-.6-2.5-.8c-1.6-.3-2.7-.7-3.3-1.2-.6-.5-.8-1.1-.8-1.9s.4-1.8,1.2-2.4c.8-.6,1.8-.9,3-.9h0ZM394.7,75.7v5.6c0,.5.1.9.4,1.2.3.3.7.5,1.2.5.8,0,1.4-.2,1.8-.7s.6-1.1.6-1.8v-4.7h1.4v8.3h-1.3v-1.3h0c-.3.5-.7.9-1.1,1.2-.4.2-1,.4-1.5.4-1,0-1.7-.2-2.2-.8-.5-.5-.7-1.2-.7-2.2v-5.5h1.4v-.2ZM403.7,72.6v4.3h0c.2-.4.5-.8,1-1s1-.3,1.6-.3c1.2,0,2.1.4,2.8,1.2.7.8,1,1.9,1,3.1s-.3,2.3-1,3.1c-.7.8-1.6,1.2-2.8,1.2s-1,0-1.5-.3c-.5-.2-.9-.5-1.2-1h0v1.1h-1.4v-11.4h1.5ZM403.6,79.8c0,1,.2,1.7.7,2.3.5.6,1.1.8,1.9.8s1.4-.3,1.8-.8c.4-.6.7-1.3.7-2.3s-.2-1.6-.7-2.2c-.4-.6-1.1-.9-1.9-.9s-1.4.3-1.9.9-.7,1.3-.7,2.2h.1ZM414.5,75.5c1.1,0,1.9.2,2.5.7.5.4.8,1.1.9,1.9h-1.4c0-.5-.2-.8-.6-1s-.8-.4-1.3-.4-1,0-1.3.3c-.3.2-.5.4-.5.8s.1.6.4.8c.3.2.7.3,1.3.5l1.3.3c.8.2,1.4.5,1.8.8.4.4.6.9.6,1.5s-.3,1.5-1,1.9c-.6.5-1.5.7-2.6.7s-1.9-.2-2.5-.7-.9-1.2-1-2.1h1.4c0,.5.2.9.6,1.2.4.3.9.4,1.6.4s1.2,0,1.5-.3c.3-.2.5-.5.5-.9s-.2-.7-.5-.9-1-.4-2.1-.6c-1-.2-1.8-.5-2.2-.9s-.6-.9-.6-1.5.3-1.3.9-1.7c.6-.4,1.3-.6,2.2-.6v-.2ZM423.2,75.5c1,0,1.8.2,2.5.7.6.5,1,1.2,1.1,2.1h-1.4c-.1-.5-.3-.9-.7-1.2-.4-.3-.8-.4-1.3-.4-.8,0-1.5.3-1.9.8s-.7,1.4-.7,2.4.2,1.7.6,2.2,1,.8,1.8.8,1.2-.2,1.6-.5.6-.8.7-1.5h1.4c-.1,1-.5,1.8-1.2,2.4s-1.5.8-2.5.8-2.2-.4-2.8-1.1-1-1.8-1-3.1.3-2.4,1-3.2,1.7-1.2,2.9-1.2h-.1ZM432.4,75.5h.2v1.4c-1,0-1.8.3-2.3.8s-.7,1.4-.7,2.5v3.7h-1.4v-8.3h1.3v1.8h0c.3-.7.7-1.1,1.2-1.5.5-.3,1-.5,1.7-.5h0ZM435.1,72.6v1.7h-1.4v-1.7h1.4ZM435.1,75.7v8.3h-1.4v-8.3h1.4ZM441.3,75.5c1.2,0,2.1.4,2.8,1.2.7.8,1,1.9,1,3.1s-.3,2.3-1,3.1c-.7.8-1.6,1.2-2.8,1.2s-1,0-1.5-.3c-.5-.2-.9-.5-1.2-1h0v4.3h-1.4v-11.5h1.4v1.1h0c.2-.4.5-.8,1-1s1-.3,1.6-.3h.1ZM438.6,79.8c0,1,.2,1.7.7,2.3.5.6,1.1.8,1.9.8s1.4-.3,1.8-.8c.4-.6.7-1.3.7-2.3s-.2-1.6-.7-2.2c-.4-.6-1.1-.9-1.9-.9s-1.4.3-1.9.9-.7,1.3-.7,2.2h.1ZM448.6,73.2v2.5h1.6v1.2h-1.6v5.2c0,.4.1.6.4.7h1.3v1.2h-1.1c-.7,0-1.2,0-1.5-.4-.2-.3-.4-.7-.4-1.3v-5.3h-1.4v-1.2h1.4v-2.5h1.4,0ZM453.2,72.6v1.7h-1.4v-1.7h1.4ZM453.2,75.7v8.3h-1.4v-8.3h1.4ZM458.8,75.5c1.2,0,2.2.4,2.9,1.2.7.8,1.1,1.8,1.1,3.1s-.4,2.3-1.1,3.1c-.7.8-1.7,1.2-2.9,1.2s-2.2-.4-2.9-1.2c-.7-.8-1.1-1.8-1.1-3.2s.4-2.4,1.1-3.2c.7-.8,1.7-1.2,2.9-1.2v.2ZM456.3,79.9c0,.9.2,1.7.7,2.3.5.6,1.1.8,1.9.8s1.4-.3,1.8-.8c.5-.6.7-1.3.7-2.3s-.2-1.7-.7-2.3c-.5-.6-1.1-.9-1.9-.9s-1.3.3-1.8.8c-.5.6-.7,1.3-.7,2.3h0ZM468.5,75.5c1,0,1.7.3,2.2.8.4.5.7,1.2.7,2.2v5.5h-1.4v-5.7c0-.5-.2-.9-.5-1.2-.3-.3-.7-.5-1.2-.5-.8,0-1.4.2-1.8.7s-.6,1.1-.6,1.8v4.7h-1.4v-8.3h1.3v1.3h0c.3-.5.7-.9,1.1-1.1s1-.4,1.6-.4v.2ZM479.6,72.6v5.7l5.8-5.7h2l-4.8,4.6,5,6.8h-1.9l-4.1-5.8-1.9,1.8v4h-1.5v-11.4h1.5-.1ZM491.7,75.5c1.2,0,2.1.4,2.8,1.3s1,2,1,3.3v.2h-6.2c0,.9.2,1.5.7,2s1.1.7,1.9.7,1.1,0,1.4-.4c.4-.3.6-.7.7-1.2h1.3c-.2.9-.6,1.6-1.2,2.1s-1.4.7-2.3.7-1.6-.2-2.2-.6-1.1-.9-1.3-1.6c-.3-.7-.4-1.4-.4-2.2,0-1.2.4-2.2,1.1-3s1.7-1.2,2.8-1.2h0ZM489.3,79h4.8c0-.7-.3-1.2-.7-1.7-.4-.4-1-.7-1.7-.7s-1.2.2-1.6.6-.7,1-.8,1.7h0ZM497.5,75.7l2.4,6.8h0l2.3-6.8h1.4l-3.5,9.2c-.4.9-.7,1.6-1.1,1.9s-.8.5-1.4.5-.3,0-.5,0-.3,0-.5,0v-1.2c.1,0,.3,0,.4,0s.3,0,.4,0c.6,0,.9-.3,1.2-.8s.4-1,.5-1.3l-3.3-8.2h1.7Z"/>
  <path class="st8" d="M531.7,150.5h28.3"/>
  <path class="st3" d="M531.7,150.5h16.3"/>
  <path class="st2" d="M548,153.8l9.1-3.3-9.1-3.3v6.6Z"/>
  <path class="st5" d="M560,128.7h0c0-6,4.9-10.9,10.9-10.9h116.9c2.9,0,5.7,1.1,7.7,3.2s3.2,4.8,3.2,7.7v43.5c0,6-4.9,10.9-10.9,10.9h-116.9c-6,0-10.9-4.9-10.9-10.9,0,0,0-43.5,0-43.5Z"/>
  <path class="st1" d="M560,128.7h0c0-6,4.9-10.9,10.9-10.9h116.9c2.9,0,5.7,1.1,7.7,3.2s3.2,4.8,3.2,7.7v43.5c0,6-4.9,10.9-10.9,10.9h-116.9c-6,0-10.9-4.9-10.9-10.9,0,0,0-43.5,0-43.5Z"/>
  <path d="M607.6,132.8c1.5,0,2.7.4,3.5,1.1.9.7,1.3,1.8,1.4,3.1h-1.7c0-.9-.4-1.6-1-2-.6-.5-1.3-.7-2.3-.7s-1.7.2-2.2.6c-.5.4-.8.9-.8,1.7s.2.9.7,1.3c.4.3,1.7.7,3.6,1.1,1.4.3,2.5.7,3.2,1.3s1.1,1.4,1.1,2.5-.5,2.2-1.5,2.9-2.2,1-3.7,1-2.9-.4-4-1.2c-1-.8-1.5-2-1.5-3.5h1.7c0,1,.4,1.8,1.1,2.4.7.6,1.7.8,2.8.8s1.9-.2,2.5-.6c.6-.4.9-1,.9-1.8s-.3-1.1-.8-1.5-1.5-.7-2.9-1c-1.9-.4-3.2-.8-3.8-1.4-.6-.6-1-1.3-1-2.2s.5-2.1,1.4-2.8,2.1-1.1,3.5-1.1h-.2ZM617.1,133.9v2.9h1.9v1.4h-1.9v6c0,.5.2.7.5.8h1.4v1.4h-1.3c-.9,0-1.5-.2-1.8-.5s-.4-.8-.4-1.6v-6.2h-1.7v-1.4h1.7v-2.9h1.6ZM624.7,136.6c1.5,0,2.6.5,3.4,1.4.8.9,1.2,2.2,1.2,3.6s-.4,2.7-1.3,3.7c-.8.9-2,1.4-3.4,1.4s-2.5-.5-3.4-1.4-1.3-2.1-1.3-3.7.4-2.8,1.3-3.7,2-1.4,3.4-1.4h0ZM621.7,141.6c0,1.1.3,2,.8,2.7.6.7,1.3,1,2.2,1s1.6-.3,2.1-1c.6-.7.9-1.6.9-2.7s-.3-2-.8-2.6c-.6-.7-1.3-1-2.2-1s-1.6.3-2.1,1c-.6.7-.9,1.5-.9,2.7h0ZM636.1,136.5h0v1.7c-1.2,0-2.1.3-2.7,1-.6.6-.8,1.6-.8,2.9v4.3h-1.6v-9.6h1.5v2h0c.4-.8.8-1.3,1.4-1.7.6-.4,1.2-.6,2-.6h0ZM641.2,136.6c1.4,0,2.5.5,3.2,1.5.8,1,1.2,2.3,1.2,3.8v.2h-7.2c0,1,.3,1.8.8,2.3.5.6,1.3.8,2.2.8s1.3-.2,1.7-.5.7-.8.8-1.4h1.6c-.2,1.1-.7,1.9-1.4,2.5s-1.6.8-2.7.8-1.9-.2-2.6-.7c-.7-.5-1.2-1.1-1.5-1.9-.3-.8-.5-1.7-.5-2.5,0-1.4.4-2.6,1.3-3.6.9-.9,1.9-1.4,3.2-1.4h0ZM638.3,140.7h5.5c0-.8-.3-1.4-.9-1.9-.5-.5-1.2-.8-1.9-.8s-1.4.2-1.9.7-.8,1.2-.9,2h.1ZM655.8,133.1v13.3h-1.6v-1.3h0c-.2.5-.6.9-1.2,1.1-.5.3-1.2.4-1.9.4-1.3,0-2.4-.5-3.2-1.4s-1.2-2.2-1.2-3.7.4-2.7,1.2-3.6,1.9-1.4,3.2-1.4,1.2.1,1.8.4c.6.2,1,.6,1.3,1.1h0v-5h1.6ZM648.3,141.7c0,1,.3,1.9.8,2.6.5.7,1.3,1,2.2,1s1.6-.3,2.2-1c.5-.7.8-1.6.8-2.6s-.3-2-.8-2.6c-.5-.7-1.3-1-2.3-1s-1.6.3-2.1,1-.8,1.6-.8,2.7h0Z"/>
  <path d="M582.6,154.8c1.5,0,2.7.4,3.5,1.1.9.7,1.3,1.8,1.4,3.1h-1.7c0-.9-.4-1.6-1-2-.6-.5-1.3-.7-2.3-.7s-1.7.2-2.2.6c-.5.4-.8.9-.8,1.7s.2.9.7,1.3c.4.3,1.7.7,3.6,1.1,1.4.3,2.5.7,3.2,1.3s1.1,1.4,1.1,2.5-.5,2.2-1.5,2.9-2.2,1-3.7,1-2.9-.4-4-1.2c-1-.8-1.5-2-1.5-3.5h1.7c0,1,.4,1.8,1.1,2.4.7.6,1.7.8,2.8.8s1.9-.2,2.5-.6c.6-.4.9-1,.9-1.8s-.3-1.1-.8-1.5-1.5-.7-2.9-1c-1.9-.4-3.2-.8-3.8-1.4-.6-.6-1-1.3-1-2.2s.5-2.1,1.4-2.8,2.1-1.1,3.5-1.1h-.2ZM591.5,158.8v6.6c0,.5.2,1,.5,1.4.4.4.8.5,1.5.5s1.6-.3,2.1-.8c.5-.6.8-1.3.8-2.1v-5.5h1.6v9.6h-1.5v-1.5h0c-.4.6-.8,1.1-1.3,1.3s-1.1.4-1.8.4c-1.1,0-2-.3-2.5-.9-.5-.6-.8-1.4-.8-2.6v-6.4h1.6-.2ZM602,155.1v5h0c.2-.5.6-.9,1.2-1.1s1.2-.4,1.9-.4c1.4,0,2.5.5,3.2,1.4.8.9,1.2,2.2,1.2,3.6s-.4,2.7-1.2,3.6c-.8.9-1.8,1.4-3.2,1.4s-1.2-.1-1.8-.4c-.6-.2-1-.6-1.4-1.1h0v1.3h-1.6v-13.3h1.7ZM601.9,163.6c0,1.1.3,2,.8,2.7s1.3,1,2.2,1,1.6-.3,2.1-1,.8-1.6.8-2.8-.3-1.9-.8-2.5c-.5-.7-1.3-1-2.2-1s-1.7.3-2.2,1-.8,1.6-.8,2.6h.1ZM614.6,158.6c1.3,0,2.3.2,2.9.8.6.5,1,1.3,1,2.3h-1.6c0-.5-.3-.9-.7-1.2s-.9-.4-1.6-.4-1.1.1-1.5.3-.5.5-.5.9.2.6.5.9c.3.2.8.4,1.5.5l1.5.3c.9.2,1.6.5,2.1,1,.5.4.7,1,.7,1.7s-.4,1.7-1.1,2.2c-.7.5-1.7.8-3,.8s-2.2-.3-3-.8c-.7-.6-1.1-1.4-1.1-2.5h1.6c0,.6.3,1.1.7,1.4.5.3,1.1.5,1.9.5s1.4-.1,1.8-.4c.4-.2.6-.6.6-1.1s-.2-.8-.6-1c-.4-.2-1.2-.5-2.4-.7s-2.1-.6-2.6-1-.7-1-.7-1.7.3-1.5,1-2,1.6-.7,2.6-.7h0ZM624.7,158.6c1.2,0,2.1.3,2.9.8.7.6,1.2,1.4,1.3,2.5h-1.6c0-.6-.4-1.1-.8-1.4-.4-.3-.9-.5-1.6-.5-1,0-1.7.3-2.2,1s-.8,1.6-.8,2.8.2,1.9.8,2.6c.5.6,1.2,1,2.1,1s1.4-.2,1.8-.6c.4-.4.7-1,.8-1.7h1.6c-.2,1.2-.6,2.1-1.4,2.8-.7.6-1.7,1-2.9,1s-2.5-.4-3.3-1.3c-.8-.9-1.2-2.1-1.2-3.6s.4-2.8,1.2-3.8c.8-.9,1.9-1.4,3.3-1.4v-.2ZM635.5,158.5h0v1.7c-1.2,0-2.1.3-2.7,1-.6.6-.8,1.6-.8,2.9v4.3h-1.6v-9.6h1.5v2h0c.4-.8.8-1.3,1.4-1.7.6-.4,1.2-.6,2-.6h0ZM638.6,155.1v1.9h-1.6v-1.9h1.6ZM638.6,158.8v9.6h-1.6v-9.6h1.6ZM645.8,158.6c1.4,0,2.5.5,3.2,1.4.8.9,1.2,2.2,1.2,3.6s-.4,2.7-1.2,3.6c-.8.9-1.8,1.4-3.2,1.4s-1.2-.1-1.8-.4c-.6-.2-1-.6-1.4-1.1h0v5h-1.6v-13.3h1.6v1.3h0c.2-.5.6-.9,1.2-1.1.5-.3,1.2-.4,1.9-.4h0ZM642.7,163.6c0,1.1.3,2,.8,2.7s1.3,1,2.2,1,1.6-.3,2.1-1,.8-1.6.8-2.8-.3-1.9-.8-2.5c-.5-.7-1.3-1-2.2-1s-1.7.3-2.2,1-.8,1.6-.8,2.6h.1ZM654.3,155.9v2.9h1.9v1.4h-1.9v6c0,.5.2.7.5.8h1.4v1.4h-1.3c-.9,0-1.5-.2-1.8-.5s-.4-.8-.4-1.6v-6.2h-1.7v-1.4h1.7v-2.9h1.6ZM659.7,155.1v1.9h-1.6v-1.9h1.6ZM659.7,158.8v9.6h-1.6v-9.6h1.6ZM666.3,158.6c1.5,0,2.6.5,3.4,1.4.8.9,1.2,2.2,1.2,3.6s-.4,2.7-1.3,3.7c-.8.9-2,1.4-3.4,1.4s-2.5-.5-3.4-1.4-1.3-2.1-1.3-3.7.4-2.8,1.3-3.7c.8-.9,2-1.4,3.4-1.4h0ZM663.3,163.6c0,1.1.3,2,.8,2.7.6.7,1.3,1,2.2,1s1.6-.3,2.1-1c.6-.7.9-1.6.9-2.7s-.3-2-.8-2.6c-.6-.7-1.3-1-2.2-1s-1.6.3-2.1,1c-.6.7-.9,1.5-.9,2.7h0ZM677.5,158.6c1.2,0,2,.3,2.5.9.5.6.8,1.4.8,2.5v6.4h-1.6v-6.6c0-.5-.2-1-.5-1.3-.3-.4-.8-.5-1.4-.5-.9,0-1.6.3-2.1.8s-.8,1.2-.8,2.1v5.5h-1.6v-9.6h1.5v1.5h0c.4-.6.8-1,1.3-1.3s1.1-.4,1.8-.4h0Z"/>
  <path class="st8" d="M134.6,150.5h23.2"/>
  <path class="st3" d="M134.6,150.5h11.2"/>
  <path class="st2" d="M145.8,153.8l9.1-3.3-9.1-3.3v6.6Z"/>
  <path class="st8" d="M.8,117.8h133.8v65.3H.8v-65.3Z"/>
  <path d="M32.5,125.4c1.3,0,2.3.3,3.2,1s1.4,1.6,1.5,2.7h-1.5c-.2-.8-.5-1.4-1.1-1.8s-1.3-.6-2.1-.6c-1.2,0-2.2.4-2.8,1.3-.7.9-1,2-1,3.3s.3,2.6,1,3.5,1.6,1.3,2.9,1.3,1.7-.3,2.3-.9c.6-.6.9-1.4,1-2.4h1.5c-.2,1.5-.7,2.6-1.5,3.4-.9.8-2,1.2-3.4,1.2s-2.9-.5-3.9-1.6c-.9-1.1-1.4-2.5-1.4-4.3s.5-3.2,1.5-4.3c1-1.1,2.3-1.7,4-1.7h-.2ZM40.3,125.6v4.4h0c.2-.4.5-.8,1-1s1-.4,1.6-.4c1,0,1.7.3,2.2.8.4.5.7,1.2.7,2.2v5.5h-1.4v-5.7c0-.5-.2-.9-.5-1.2s-.7-.5-1.2-.5c-.8,0-1.4.2-1.8.7-.4.5-.6,1.1-.6,1.8v4.7h-1.4v-11.4h1.4ZM51.2,128.6c1.1,0,1.9.2,2.4.6.5.4.7.9.7,1.6v4.8c0,.3,0,.5.4.5s0,0,.2,0h.2v1.1c0,0-.3.1-.4.2h-.5c-.4,0-.7-.1-.9-.3s-.3-.5-.3-1c-.4.4-.8.8-1.3,1s-1,.3-1.6.3-1.5-.2-2-.6c-.5-.4-.7-1-.7-1.7s.2-1.3.7-1.8c.5-.4,1.6-.8,3.4-1,.6,0,1-.2,1.2-.3.2-.2.3-.4.3-.7,0-.5,0-.8-.4-1-.3-.2-.8-.3-1.4-.3s-1.2.1-1.5.4c-.3.2-.5.6-.5,1.2h-1.4c0-.9.4-1.6,1-2.1s1.4-.7,2.5-.7v-.2ZM48.8,134.8c0,.4,0,.7.4.9.3.2.7.3,1.2.3.8,0,1.4-.2,1.8-.6.5-.4.7-.8.7-1.3v-1.4c-.2.2-.5.3-.9.3s-.8.1-1.5.2c-.6,0-1.1.2-1.3.5-.3.2-.4.6-.4,1h0ZM60.4,128.6c1,0,1.7.3,2.2.8.4.5.7,1.2.7,2.2v5.5h-1.4v-5.7c0-.5-.2-.9-.5-1.2s-.7-.5-1.2-.5c-.8,0-1.4.2-1.8.7-.4.5-.6,1.1-.6,1.8v4.7h-1.4v-8.3h1.3v1.3h0c.3-.5.7-.9,1.1-1.1.4-.2,1-.4,1.6-.4v.2ZM69.3,128.6c1,0,1.7.3,2.2.8.4.5.7,1.2.7,2.2v5.5h-1.4v-5.7c0-.5-.2-.9-.5-1.2s-.7-.5-1.2-.5c-.8,0-1.4.2-1.8.7s-.6,1.1-.6,1.8v4.7h-1.4v-8.3h1.3v1.3h0c.3-.5.7-.9,1.1-1.1.4-.2,1-.4,1.6-.4v.2ZM77.7,128.6c1.2,0,2.1.4,2.8,1.3.7.9,1,2,1,3.3v.2h-6.2c0,.9.2,1.5.7,2s1.1.7,1.9.7,1.1-.1,1.4-.4c.4-.3.6-.7.7-1.2h1.3c-.2.9-.6,1.6-1.2,2.1s-1.4.7-2.3.7-1.6-.2-2.2-.6c-.6-.4-1.1-.9-1.3-1.6-.3-.7-.4-1.4-.4-2.2,0-1.2.4-2.2,1.1-3s1.7-1.2,2.8-1.2h-.1ZM75.2,132.1h4.8c0-.7-.3-1.2-.7-1.7-.4-.4-1-.7-1.7-.7s-1.2.2-1.6.6c-.4.4-.7,1-.8,1.7h0ZM84.3,125.6v11.4h-1.4v-11.4s1.4,0,1.4,0ZM92.6,125.6v11.4h-1.5v-11.4s1.5,0,1.5,0ZM99.2,125.6c1.7,0,3.1.5,4,1.4s1.4,2.3,1.4,4.1-.5,3.5-1.4,4.5-2.2,1.5-4,1.5h-4v-11.4h4ZM99.3,135.8c1.1,0,2-.4,2.7-1.1.7-.8,1-1.9,1-3.4s-.3-2.6-1-3.3c-.6-.7-1.6-1-2.8-1h-2.6v8.9h2.7ZM107.7,135.3v1.7c0,.6,0,1.1-.4,1.5s-.7.7-1.3.9v-.8c.3-.1.5-.3.7-.5.2-.3.3-.6.3-.9h-1v-1.8h1.8,0Z"/>
  <path d="M30.7,144.8v1.3h-3.8v10.1h-1.5v-10.1h-3.8v-1.3s9.1,0,9.1,0ZM33.4,144.8v1.7h-1.4v-1.7h1.4ZM33.4,148v8.3h-1.4v-8.3h1.4ZM39.5,147.8c.6,0,1.1.1,1.5.4.4.2.7.6.8,1,.3-.4.6-.8,1.1-1s1-.4,1.5-.4c.9,0,1.6.2,2.1.6.4.4.7,1,.7,1.7v6.1h-1.4v-5.5c0-.6,0-1-.4-1.3-.2-.3-.7-.5-1.2-.5s-1.2.2-1.6.6c-.4.4-.6.9-.6,1.5v5.2h-1.4v-5.5c0-.6,0-1-.4-1.3-.2-.3-.6-.5-1.2-.5s-.8.1-1.1.3-.6.5-.8.9-.3.7-.3.9v5.2h-1.4v-8.3h1.3v1.2h0c.3-.5.7-.8,1.1-1,.4-.2,1-.4,1.5-.4h.2ZM52.6,147.8c1.2,0,2.1.4,2.8,1.3.7.9,1,2,1,3.3v.2h-6.2c0,.9.2,1.5.7,2s1.1.7,1.9.7,1.1-.1,1.4-.4c.4-.3.6-.7.7-1.2h1.3c-.2.9-.6,1.6-1.2,2.1-.6.5-1.4.7-2.3.7s-1.6-.2-2.2-.6c-.6-.4-1.1-.9-1.3-1.6-.3-.7-.4-1.4-.4-2.2,0-1.2.4-2.2,1.1-3,.7-.8,1.7-1.2,2.8-1.2h0ZM50.1,151.3h4.8c0-.7-.3-1.2-.7-1.7-.4-.4-1-.7-1.7-.7s-1.2.2-1.6.6c-.4.4-.7,1-.8,1.7h0ZM60.5,147.8c1.1,0,1.9.2,2.5.7.5.4.8,1.1.9,1.9h-1.4c0-.5-.2-.8-.6-1-.3-.2-.8-.4-1.3-.4s-1,0-1.3.3c-.3.2-.5.4-.5.8s0,.6.4.8c.3.2.7.3,1.3.5l1.3.3c.8.2,1.4.5,1.8.8.4.4.6.9.6,1.5s-.3,1.5-1,1.9c-.6.5-1.5.7-2.6.7s-1.9-.2-2.5-.7-.9-1.2-1-2.1h1.4c0,.5.2.9.6,1.2.4.3.9.4,1.6.4s1.2-.1,1.5-.3.5-.5.5-.9-.2-.7-.5-.9-1-.4-2.1-.6c-1-.2-1.8-.5-2.2-.9s-.6-.9-.6-1.5.3-1.3.9-1.7c.6-.4,1.3-.6,2.2-.6v-.2ZM67.6,145.5v2.5h1.6v1.2h-1.6v5.2c0,.4,0,.6.4.7h1.3v1.2h-1.1c-.7,0-1.2-.1-1.5-.4-.3-.3-.4-.7-.4-1.3v-5.3h-1.4v-1.2h1.4v-2.5h1.4-.1ZM74.2,147.8c1.1,0,1.9.2,2.4.6.5.4.7.9.7,1.6v4.8c0,.3,0,.5.4.5s0,0,.2,0h.2v1.1c0,0-.3.1-.4.2h-.5c-.4,0-.7-.1-.9-.3-.2-.2-.3-.5-.3-1-.4.4-.8.8-1.3,1s-1,.3-1.6.3-1.5-.2-2-.6c-.5-.4-.7-1-.7-1.7s.2-1.3.7-1.8c.5-.4,1.6-.8,3.4-1,.6,0,1-.2,1.2-.3.2-.2.3-.4.3-.7,0-.5,0-.8-.4-1s-.8-.3-1.4-.3-1.2.1-1.5.4c-.3.2-.5.6-.5,1.2h-1.4c0-.9.4-1.6,1-2.1s1.4-.7,2.5-.7v-.2ZM71.8,154c0,.4,0,.7.4.9s.7.3,1.2.3c.8,0,1.4-.2,1.8-.6.5-.4.7-.8.7-1.3v-1.4c-.2.2-.5.3-.9.3s-.8.1-1.5.2c-.6,0-1.1.2-1.3.5-.3.2-.4.6-.4,1h0ZM83.4,147.8c.6,0,1.1.1,1.5.4.4.2.7.6.8,1,.3-.4.6-.8,1.1-1s1-.4,1.5-.4c.9,0,1.6.2,2.1.6.4.4.7,1,.7,1.7v6.1h-1.4v-5.5c0-.6,0-1-.4-1.3s-.7-.5-1.2-.5-1.2.2-1.6.6c-.4.4-.6.9-.6,1.5v5.2h-1.4v-5.5c0-.6,0-1-.4-1.3s-.6-.5-1.2-.5-.8.1-1.1.3c-.3.2-.6.5-.8.9-.2.4-.3.7-.3.9v5.2h-1.4v-8.3h1.3v1.2h0c.3-.5.7-.8,1.1-1s1-.4,1.5-.4h.2ZM97.1,147.8c1.2,0,2.1.4,2.8,1.2.7.8,1,1.9,1,3.1s-.3,2.3-1,3.1-1.6,1.2-2.8,1.2-1-.1-1.5-.3-.9-.5-1.2-1h0v4.3h-1.4v-11.5h1.4v1.1h0c.2-.4.5-.8,1-1s1-.3,1.6-.3h0ZM94.4,152.1c0,1,.2,1.7.7,2.3s1.1.8,1.9.8,1.4-.3,1.8-.8c.4-.6.7-1.3.7-2.3s-.2-1.6-.7-2.2c-.4-.6-1.1-.9-1.9-.9s-1.4.3-1.9.9c-.4.6-.7,1.3-.7,2.2h0ZM105.3,147.8c1.1,0,1.9.2,2.5.7.5.4.8,1.1.9,1.9h-1.4c0-.5-.2-.8-.6-1-.3-.2-.8-.4-1.3-.4s-1,0-1.3.3c-.3.2-.5.4-.5.8s0,.6.4.8.7.3,1.3.5l1.3.3c.8.2,1.4.5,1.8.8.4.4.6.9.6,1.5s-.3,1.5-1,1.9c-.6.5-1.5.7-2.6.7s-1.9-.2-2.5-.7-.9-1.2-1-2.1h1.4c0,.5.2.9.6,1.2s.9.4,1.6.4,1.2-.1,1.5-.3.5-.5.5-.9-.2-.7-.5-.9-1-.4-2.1-.6c-1-.2-1.8-.5-2.2-.9-.4-.4-.6-.9-.6-1.5s.3-1.3.9-1.7,1.3-.6,2.2-.6v-.2ZM112.6,154.5v1.7c0,.6,0,1.1-.4,1.5s-.7.7-1.3.9v-.8c.3-.1.5-.3.7-.5.2-.3.3-.6.3-.9h-1v-1.8h1.8,0Z"/>
  <path d="M19,163.8c1.3,0,2.3.3,3.2,1,.9.7,1.4,1.6,1.5,2.7h-1.5c-.2-.8-.5-1.4-1.1-1.8-.6-.4-1.3-.6-2.1-.6-1.2,0-2.2.4-2.8,1.3-.7.9-1,2-1,3.3s.3,2.6,1,3.5,1.6,1.3,2.9,1.3,1.7-.3,2.3-.9c.6-.6.9-1.4,1-2.4h1.5c-.2,1.5-.7,2.6-1.5,3.4-.9.8-2,1.2-3.4,1.2s-2.9-.5-3.9-1.6c-.9-1.1-1.4-2.5-1.4-4.3s.5-3.2,1.5-4.3,2.3-1.7,4-1.7h-.2ZM26.8,164v4.4h0c.2-.4.5-.8,1-1s1-.4,1.6-.4c1,0,1.7.3,2.2.8.4.5.7,1.2.7,2.2v5.5h-1.4v-5.7c0-.5-.2-.9-.5-1.2s-.7-.5-1.2-.5c-.8,0-1.4.2-1.8.7s-.6,1.1-.6,1.8v4.7h-1.4v-11.4h1.4,0ZM37.7,167c1.1,0,1.9.2,2.4.6.5.4.7.9.7,1.6v4.8c0,.3,0,.5.4.5h.4v1.1c0,0-.3.1-.4.2h-.5c-.4,0-.7-.1-.9-.3s-.3-.5-.3-1c-.4.4-.8.8-1.3,1s-1,.3-1.6.3c-.9,0-1.5-.2-2-.6-.5-.4-.7-1-.7-1.7s.2-1.3.7-1.8c.5-.4,1.6-.8,3.4-1,.6,0,1-.2,1.2-.3.2-.2.3-.4.3-.7,0-.5,0-.8-.4-1-.3-.2-.8-.3-1.4-.3s-1.2.1-1.5.4c-.3.3-.5.6-.5,1.2h-1.4c0-.9.4-1.6,1-2.1s1.4-.7,2.5-.7v-.2ZM35.4,173.2c0,.4,0,.7.4.9.3.2.7.3,1.2.3.8,0,1.4-.2,1.8-.6.5-.4.7-.8.7-1.3v-1.4c-.2.2-.5.3-.9.3s-.8.1-1.5.2c-.6,0-1.1.2-1.3.5-.3.2-.4.6-.4,1h0ZM47,167c1,0,1.7.3,2.2.8.4.5.7,1.2.7,2.2v5.5h-1.4v-5.7c0-.5-.2-.9-.5-1.2s-.7-.5-1.2-.5c-.8,0-1.4.2-1.8.7-.4.5-.6,1.1-.6,1.8v4.7h-1.4v-8.3h1.3v1.3h0c.3-.5.7-.9,1.1-1.1.4-.2,1-.4,1.6-.4v.2ZM55.9,167c1,0,1.7.3,2.2.8.4.5.7,1.2.7,2.2v5.5h-1.4v-5.7c0-.5-.2-.9-.5-1.2s-.7-.5-1.2-.5c-.8,0-1.4.2-1.8.7-.4.5-.6,1.1-.6,1.8v4.7h-1.4v-8.3h1.3v1.3h0c.3-.5.7-.9,1.1-1.1.4-.2,1-.4,1.6-.4v.2ZM64.2,167c1.2,0,2.1.4,2.8,1.3.7.9,1,2,1,3.3v.2h-6.2c0,.9.2,1.5.7,2s1.1.7,1.9.7,1.1-.1,1.4-.4c.4-.3.6-.7.7-1.2h1.3c-.2.9-.6,1.6-1.2,2.1s-1.4.7-2.3.7-1.6-.2-2.2-.6c-.6-.4-1.1-.9-1.3-1.6-.3-.7-.4-1.4-.4-2.2,0-1.2.4-2.2,1.1-3,.7-.8,1.7-1.2,2.8-1.2h-.1ZM61.7,170.5h4.8c0-.7-.3-1.2-.7-1.7-.4-.4-1-.7-1.7-.7s-1.2.2-1.6.6c-.4.4-.7,1-.8,1.7h0ZM70.8,164v11.4h-1.4v-11.4h1.4ZM81.4,163.8c1.3,0,2.3.3,3,.9.7.6,1.1,1.5,1.2,2.7h-1.4c0-.8-.4-1.4-.8-1.8-.5-.4-1.1-.6-2-.6s-1.4.2-1.9.5c-.4.3-.7.8-.7,1.4s.2.8.6,1.1,1.4.6,3.1.9c1.2.3,2.1.6,2.7,1.2.6.5.9,1.2.9,2.1s-.4,1.9-1.3,2.5-1.9.9-3.2.9-2.5-.3-3.4-1-1.3-1.7-1.3-3h1.4c0,.9.3,1.6.9,2,.6.5,1.4.7,2.4.7s1.6-.2,2.1-.5c.5-.4.8-.9.8-1.5s-.2-1-.7-1.3-1.3-.6-2.5-.8c-1.6-.3-2.7-.7-3.3-1.2-.6-.5-.8-1.1-.8-1.9s.4-1.8,1.2-2.4c.8-.6,1.8-.9,3-.9h0ZM91.2,167c1.2,0,2.1.4,2.8,1.3.7.9,1,2,1,3.3v.2h-6.2c0,.9.2,1.5.7,2s1.1.7,1.9.7,1.1-.1,1.4-.4c.4-.3.6-.7.7-1.2h1.3c-.2.9-.6,1.6-1.2,2.1s-1.4.7-2.3.7-1.6-.2-2.2-.6c-.6-.4-1.1-.9-1.3-1.6-.3-.7-.4-1.4-.4-2.2,0-1.2.4-2.2,1.1-3s1.7-1.2,2.8-1.2h-.1ZM88.7,170.5h4.8c0-.7-.3-1.2-.7-1.7-.4-.4-1-.7-1.7-.7s-1.2.2-1.6.6c-.4.4-.7,1-.8,1.7h0ZM99.8,167c1,0,1.8.2,2.5.7.6.5,1,1.2,1.1,2.1h-1.4c0-.5-.3-.9-.7-1.2-.4-.3-.8-.4-1.3-.4-.8,0-1.5.3-1.9.8-.4.6-.7,1.4-.7,2.4s.2,1.7.6,2.2,1,.8,1.8.8,1.2-.2,1.6-.5c.4-.4.6-.8.7-1.5h1.4c0,1-.5,1.8-1.2,2.4-.6.6-1.5.8-2.5.8s-2.2-.4-2.8-1.1c-.7-.8-1-1.8-1-3.1s.3-2.4,1-3.2,1.7-1.2,2.9-1.2h0ZM109,167h0v1.4c-1,0-1.8.3-2.3.8s-.7,1.4-.7,2.5v3.7h-1.4v-8.3h1.3v1.8h0c.3-.7.7-1.1,1.2-1.5.5-.3,1-.5,1.7-.5h.1ZM113.4,167c1.2,0,2.1.4,2.8,1.3.7.9,1,2,1,3.3v.2h-6.2c0,.9.2,1.5.7,2s1.1.7,1.9.7,1.1-.1,1.4-.4c.4-.3.6-.7.7-1.2h1.3c-.2.9-.6,1.6-1.2,2.1s-1.4.7-2.3.7-1.6-.2-2.2-.6c-.6-.4-1.1-.9-1.3-1.6-.3-.7-.4-1.4-.4-2.2,0-1.2.4-2.2,1.1-3s1.7-1.2,2.8-1.2h-.1ZM110.9,170.5h4.8c0-.7-.3-1.2-.7-1.7-.4-.4-1-.7-1.7-.7s-1.2.2-1.6.6c-.4.4-.7,1-.8,1.7h0ZM120.4,164.7v2.5h1.6v1.2h-1.6v5.2c0,.4,0,.6.4.7h1.3v1.2h-1.1c-.7,0-1.2-.1-1.5-.4-.2-.3-.4-.7-.4-1.3v-5.3h-1.4v-1.2h1.4v-2.5h1.4-.1Z"/>
  <path class="st8" d="M.8,58.4h133.8v39.7H.8v-39.7Z"/>
  <path d="M28.2,63c1.4,0,2.4.3,2.9.9.5.6.8,1.2.8,1.9s-.2,1.1-.5,1.6c-.3.4-.7.8-1.2,1h0c.7.2,1.2.5,1.6,1s.6,1.1.6,1.8-.3,1.7-1,2.3c-.6.6-1.5.9-2.4.9h-5.6v-11.4h4.9,0ZM28,67.9c.8,0,1.3,0,1.8-.4.4-.3.6-.8.6-1.4s-.2-1.1-.5-1.3c-.3-.3-.9-.5-1.8-.5h-3.1v3.6h3.1-.1ZM28.7,73.1c.6,0,1.1-.2,1.5-.5.4-.4.6-.9.6-1.5s-.2-1.1-.7-1.4-1.1-.5-1.9-.5h-3.4v4h3.9ZM37.5,65.9c1.1,0,1.9.2,2.4.6s.7.9.7,1.6v4.8c0,.3,0,.5.4.5s0,0,.2,0h.2v1.1c0,0-.3,0-.4.2h-.5c-.4,0-.7,0-.9-.3-.2-.2-.3-.5-.3-1-.4.4-.8.8-1.3,1s-1,.3-1.6.3-1.5-.2-2-.6-.7-1-.7-1.7.2-1.3.7-1.8c.5-.4,1.6-.8,3.4-1,.6,0,1-.2,1.2-.3.2-.2.3-.4.3-.7,0-.5,0-.8-.4-1-.3-.2-.8-.3-1.4-.3s-1.2,0-1.5.4c-.3.2-.5.6-.5,1.2h-1.4c0-.9.4-1.6,1-2.1s1.4-.7,2.5-.7v-.2ZM35.1,72.2c0,.4,0,.7.4.9.3.2.7.3,1.2.3.8,0,1.4-.2,1.8-.6.5-.4.7-.8.7-1.3v-1.4c-.2.2-.5.3-.9.3s-.8,0-1.5.2c-.6,0-1.1.2-1.3.5-.3.2-.4.6-.4,1h0ZM45.4,65.9c1.1,0,1.9.2,2.5.7.5.4.8,1.1.9,1.9h-1.4c0-.5-.2-.8-.6-1-.3-.2-.8-.4-1.3-.4s-1,0-1.3.3c-.3.2-.5.4-.5.8s0,.6.4.8c.3.2.7.3,1.3.5l1.3.3c.8.2,1.4.5,1.8.8.4.4.6.9.6,1.5s-.3,1.5-1,1.9c-.6.5-1.5.7-2.6.7s-1.9-.2-2.5-.7-.9-1.2-1-2.1h1.4c0,.5.2.9.6,1.2.4.3.9.4,1.6.4s1.2,0,1.5-.3c.3-.2.5-.5.5-.9s-.2-.7-.5-.9c-.3-.2-1-.4-2.1-.6-1-.2-1.8-.5-2.2-.9s-.6-.9-.6-1.5.3-1.3.9-1.7c.6-.4,1.3-.6,2.2-.6v-.2ZM54.1,65.9c1.2,0,2.1.4,2.8,1.3s1,2,1,3.3v.2h-6.2c0,.9.2,1.5.7,2s1.1.7,1.9.7,1.1,0,1.4-.4c.4-.3.6-.7.7-1.2h1.3c-.2.9-.6,1.6-1.2,2.1-.6.5-1.4.7-2.3.7s-1.6-.2-2.2-.6c-.6-.4-1.1-.9-1.3-1.6-.3-.7-.4-1.4-.4-2.2,0-1.2.4-2.2,1.1-3,.7-.8,1.7-1.2,2.8-1.2h0ZM51.7,69.4h4.8c0-.7-.3-1.2-.7-1.7-.4-.4-1-.7-1.7-.7s-1.2.2-1.6.6c-.4.4-.7,1-.8,1.7h0ZM67.8,62.7c1.3,0,2.3.3,3,.9.7.6,1.1,1.5,1.2,2.7h-1.4c0-.8-.4-1.4-.8-1.8-.5-.4-1.1-.6-2-.6s-1.4.2-1.9.5c-.4.3-.7.8-.7,1.4s.2.8.6,1.1c.4.3,1.4.6,3.1.9,1.2.2,2.1.6,2.7,1.2.6.5.9,1.2.9,2.1s-.4,1.9-1.3,2.5-1.9.9-3.2.9-2.5-.3-3.4-1-1.3-1.7-1.3-3h1.4c0,.9.3,1.6.9,2,.6.5,1.4.7,2.4.7s1.6-.2,2.1-.5c.5-.4.8-.9.8-1.5s-.2-1-.7-1.3-1.3-.6-2.5-.8c-1.6-.3-2.7-.7-3.3-1.2-.6-.5-.8-1.1-.8-1.9s.4-1.8,1.2-2.4c.8-.6,1.8-.9,3-.9h0ZM77.5,65.9c1.2,0,2.1.4,2.8,1.3.7.9,1,2,1,3.3v.2h-6.2c0,.9.2,1.5.7,2s1.1.7,1.9.7,1.1,0,1.4-.4c.4-.3.6-.7.7-1.2h1.3c-.2.9-.6,1.6-1.2,2.1s-1.4.7-2.3.7-1.6-.2-2.2-.6-1.1-.9-1.3-1.6c-.3-.7-.4-1.4-.4-2.2,0-1.2.4-2.2,1.1-3s1.7-1.2,2.8-1.2h-.1ZM75.1,69.4h4.8c0-.7-.3-1.2-.7-1.7-.4-.4-1-.7-1.7-.7s-1.2.2-1.6.6-.7,1-.8,1.7h0ZM86.1,65.9c1,0,1.8.2,2.5.7.6.5,1,1.2,1.1,2.1h-1.4c0-.5-.3-.9-.7-1.2-.4-.3-.8-.4-1.3-.4-.8,0-1.5.3-1.9.8-.4.6-.7,1.4-.7,2.4s.2,1.7.6,2.2,1,.8,1.8.8,1.2-.2,1.6-.5c.4-.4.6-.8.7-1.5h1.4c0,1-.5,1.8-1.2,2.4-.6.6-1.5.8-2.5.8s-2.2-.4-2.8-1.1c-.7-.8-1-1.8-1-3.1s.3-2.4,1-3.2c.7-.8,1.7-1.2,2.9-1.2h0ZM95.4,65.9h.2v1.4c-1,0-1.8.3-2.3.8s-.7,1.4-.7,2.5v3.7h-1.4v-8.3h1.3v1.8h0c.3-.7.7-1.1,1.2-1.5.5-.3,1-.5,1.7-.5h0ZM99.7,65.9c1.2,0,2.1.4,2.8,1.3.7.9,1,2,1,3.3v.2h-6.2c0,.9.2,1.5.7,2s1.1.7,1.9.7,1.1,0,1.4-.4c.4-.3.6-.7.7-1.2h1.3c-.2.9-.6,1.6-1.2,2.1s-1.4.7-2.3.7-1.6-.2-2.2-.6-1.1-.9-1.3-1.6c-.3-.7-.4-1.4-.4-2.2,0-1.2.4-2.2,1.1-3s1.7-1.2,2.8-1.2h-.1ZM97.3,69.4h4.8c0-.7-.3-1.2-.7-1.7-.4-.4-1-.7-1.7-.7s-1.2.2-1.6.6-.7,1-.8,1.7h0ZM106.8,63.6v2.5h1.6v1.2h-1.6v5.2c0,.4,0,.6.4.7h1.3v1.2h-1.1c-.7,0-1.2,0-1.5-.4-.2-.3-.4-.7-.4-1.3v-5.3h-1.4v-1.2h1.4v-2.5h1.4-.1ZM112,72.6v1.7c0,.6,0,1.1-.4,1.5s-.7.7-1.3.9v-.8c.3,0,.5-.3.7-.5.2-.3.3-.6.3-.9h-1v-1.8h1.8,0Z"/>
  <path d="M38.8,82.2c1.7,0,3.1.5,4,1.4s1.4,2.3,1.4,4.1-.5,3.5-1.4,4.5-2.2,1.5-4,1.5h-4v-11.4h4ZM38.9,92.3c1.1,0,2-.4,2.7-1.1.7-.8,1-1.9,1-3.4s-.3-2.6-1-3.3c-.6-.7-1.6-1-2.8-1h-2.6v8.9h2.7ZM49.2,85.1c1.2,0,2.1.4,2.8,1.3s1,2,1,3.3v.2h-6.2c0,.9.2,1.5.7,2s1.1.7,1.9.7,1.1,0,1.4-.4c.4-.3.6-.7.7-1.2h1.3c-.2.9-.6,1.6-1.2,2.1-.6.5-1.4.7-2.3.7s-1.6-.2-2.2-.6c-.6-.4-1.1-.9-1.3-1.6-.3-.7-.4-1.4-.4-2.2,0-1.2.4-2.2,1.1-3,.7-.8,1.7-1.2,2.8-1.2h0ZM46.8,88.6h4.8c0-.7-.3-1.2-.7-1.7-.4-.4-1-.7-1.7-.7s-1.2.2-1.6.6c-.4.4-.7,1-.8,1.7h0ZM55.1,85.3l2.3,6.9h0l2.3-6.9h1.4l-3,8.3h-1.5l-3.1-8.3h1.6ZM63.8,82.2v1.7h-1.4v-1.7h1.4ZM63.8,85.3v8.3h-1.4v-8.3h1.4ZM69.4,85.1c1,0,1.8.2,2.5.7.6.5,1,1.2,1.1,2.1h-1.4c0-.5-.3-.9-.7-1.2-.4-.3-.8-.4-1.3-.4-.8,0-1.5.3-1.9.8-.4.6-.7,1.4-.7,2.4s.2,1.7.6,2.2,1,.8,1.8.8,1.2-.2,1.6-.5c.4-.4.6-.8.7-1.5h1.4c0,1-.5,1.8-1.2,2.4-.6.6-1.5.8-2.5.8s-2.2-.4-2.8-1.1c-.7-.8-1-1.8-1-3.1s.3-2.4,1-3.2c.7-.8,1.7-1.2,2.9-1.2h0ZM78,85.1c1.2,0,2.1.4,2.8,1.3.7.9,1,2,1,3.3v.2h-6.2c0,.9.2,1.5.7,2s1.1.7,1.9.7,1.1,0,1.4-.4c.4-.3.6-.7.7-1.2h1.3c-.2.9-.6,1.6-1.2,2.1s-1.4.7-2.3.7-1.6-.2-2.2-.6-1.1-.9-1.3-1.6c-.3-.7-.4-1.4-.4-2.2,0-1.2.4-2.2,1.1-3s1.7-1.2,2.8-1.2h-.1ZM75.5,88.6h4.8c0-.7-.3-1.2-.7-1.7-.4-.4-1-.7-1.7-.7s-1.2.2-1.6.6-.7,1-.8,1.7h0ZM89.4,82.2v11.4h-1.5v-11.4h1.5ZM95.9,82.2c1.7,0,3.1.5,4,1.4s1.4,2.3,1.4,4.1-.5,3.5-1.4,4.5-2.2,1.5-4,1.5h-4v-11.4h4ZM96,92.3c1.1,0,2-.4,2.7-1.1.7-.8,1-1.9,1-3.4s-.3-2.6-1-3.3c-.6-.7-1.6-1-2.8-1h-2.6v8.9h2.7Z"/>
  <path class="st8" d="M134.6,78.2h33"/>
  <path class="st3" d="M134.6,78.2h21"/>
  <path class="st2" d="M155.6,81.5l9.1-3.3-9.1-3.3v6.6Z"/>
  <path class="st4" d="M167.6,285.8h110.6v32.7h-110.6v-32.7h0Z"/>
  <path class="st1" d="M167.6,285.8h110.6v32.7h-110.6v-32.7h0Z"/>
  <path d="M199.6,296.6v4.9h6v-4.9h1.5v11.4h-1.5v-5.2h-6v5.2h-1.5v-11.4h1.5ZM212.9,299.6c1.2,0,2.1.4,2.8,1.3s1,2,1,3.3v.2h-6.2c0,.9.2,1.5.7,2s1.1.7,1.9.7,1.1-.1,1.4-.4c.4-.3.6-.7.7-1.2h1.3c-.2.9-.6,1.6-1.2,2.1-.6.5-1.4.7-2.3.7s-1.6-.2-2.2-.6c-.6-.4-1.1-.9-1.3-1.6-.3-.7-.4-1.4-.4-2.2,0-1.2.4-2.2,1.1-3,.7-.8,1.7-1.2,2.8-1.2h-.1ZM210.4,303.1h4.8c0-.7-.3-1.2-.7-1.7-.4-.4-1-.7-1.7-.7s-1.2.2-1.6.6c-.4.4-.7,1-.8,1.7h0ZM221.4,299.6c1.1,0,1.9.2,2.4.6s.7.9.7,1.6v4.8c0,.3.1.5.4.5s.1,0,.2,0h.2v1.1c-.1,0-.3.1-.4.2s-.3,0-.5,0c-.4,0-.7-.1-.9-.3-.2-.2-.3-.5-.3-1-.4.4-.8.8-1.3,1s-1,.3-1.6.3-1.5-.2-2-.6-.7-1-.7-1.7.2-1.3.7-1.8c.5-.4,1.6-.8,3.4-1,.6,0,1-.2,1.2-.3.2-.2.3-.4.3-.7,0-.5-.1-.8-.4-1-.3-.2-.8-.3-1.4-.3s-1.2.1-1.5.4c-.3.2-.5.6-.5,1.2h-1.4c0-.9.4-1.6,1-2.1s1.4-.7,2.5-.7v-.2ZM219,305.8c0,.4.1.7.4.9.3.2.7.3,1.2.3.8,0,1.4-.2,1.8-.6.5-.4.7-.8.7-1.3v-1.4c-.2.2-.5.3-.9.3s-.8.1-1.5.2-1.1.2-1.3.5-.4.6-.4,1h0ZM234,296.6v11.4h-1.4v-1.1h0c-.2.4-.6.8-1,1-.5.2-1,.3-1.6.3-1.2,0-2.1-.4-2.8-1.2-.7-.8-1-1.9-1-3.2s.3-2.3,1-3.1c.7-.8,1.6-1.2,2.8-1.2s1.1.1,1.5.3.9.5,1.1,1h0v-4.2h1.4ZM227.6,303.9c0,.9.2,1.6.7,2.2s1.1.9,1.9.9,1.4-.3,1.9-.9c.4-.6.7-1.3.7-2.2s-.2-1.7-.7-2.3c-.4-.6-1.1-.9-1.9-.9s-1.4.3-1.8.9c-.4.6-.6,1.3-.6,2.3h-.2ZM239.5,299.6c1.2,0,2.1.4,2.8,1.3s1,2,1,3.3v.2h-6.2c0,.9.2,1.5.7,2s1.1.7,1.9.7,1.1-.1,1.4-.4c.4-.3.6-.7.7-1.2h1.3c-.2.9-.6,1.6-1.2,2.1-.6.5-1.4.7-2.3.7s-1.6-.2-2.2-.6-1.1-.9-1.3-1.6c-.3-.7-.4-1.4-.4-2.2,0-1.2.4-2.2,1.1-3,.7-.8,1.7-1.2,2.8-1.2h-.1ZM237.1,303.1h4.8c0-.7-.3-1.2-.7-1.7-.4-.4-1-.7-1.7-.7s-1.2.2-1.6.6c-.4.4-.7,1-.8,1.7h0ZM248.8,299.6h.2v1.4c-1,0-1.8.3-2.3.8s-.7,1.4-.7,2.5v3.7h-1.4v-8.3h1.3v1.8h0c.3-.7.7-1.1,1.2-1.5.5-.3,1-.5,1.7-.5h0Z"/>
  <path class="st5" d="M167.6,318.5h110.6v32.7h-110.6v-32.7h0Z"/>
  <path class="st1" d="M167.6,318.5h110.6v32.7h-110.6v-32.7h0Z"/>
  <path d="M200.6,329.3c1.1,0,1.9.3,2.5.9s.9,1.4.9,2.5-.3,2-.9,2.5c-.6.6-1.4.8-2.4.8h-3.7v4.7h-1.5v-11.4h5.1,0ZM200.2,334.7c.7,0,1.3-.2,1.7-.5s.6-.9.6-1.6-.2-1.2-.6-1.6c-.4-.3-1-.5-1.8-.5h-3v4.2h3.1ZM208.6,332.2c1.1,0,1.9.2,2.4.6s.7.9.7,1.6v4.8c0,.3.1.5.4.5s.1,0,.2,0h.2v1.1c-.1,0-.3.1-.4.2h-.5c-.4,0-.7-.1-.9-.3-.2-.2-.3-.5-.3-1-.4.4-.8.8-1.3,1s-1,.3-1.6.3-1.5-.2-2-.6-.7-1-.7-1.7.2-1.3.7-1.8c.5-.4,1.6-.8,3.4-1,.6,0,1-.2,1.2-.3.2-.2.3-.4.3-.7,0-.5-.1-.8-.4-1-.3-.2-.8-.3-1.4-.3s-1.2.1-1.5.4c-.3.2-.5.6-.5,1.2h-1.4c0-.9.4-1.6,1-2.1s1.4-.7,2.5-.7v-.2ZM206.2,338.5c0,.4.1.7.4.9.3.2.7.3,1.2.3.8,0,1.4-.2,1.8-.6.5-.4.7-.8.7-1.3v-1.4c-.2.2-.5.3-.9.3s-.8.1-1.5.2c-.6,0-1.1.2-1.3.5-.3.2-.4.6-.4,1h0ZM214.4,332.4l2.4,6.8h0l2.3-6.8h1.4l-3.5,9.2c-.4.9-.7,1.6-1.1,1.9-.3.3-.8.5-1.4.5s-.3,0-.5,0-.3,0-.5-.1v-1.2c.1,0,.3,0,.4.1h.4c.6,0,.9-.3,1.2-.8.2-.6.4-1,.5-1.3l-3.3-8.2h1.7ZM223.2,329.3v11.4h-1.4v-11.4h1.4ZM228.9,332.2c1.2,0,2.2.4,2.9,1.2.7.8,1.1,1.8,1.1,3.1s-.4,2.3-1.1,3.1c-.7.8-1.7,1.2-2.9,1.2s-2.2-.4-2.9-1.2c-.7-.8-1.1-1.8-1.1-3.2s.4-2.4,1.1-3.2c.7-.8,1.7-1.2,2.9-1.2v.2ZM226.3,336.6c0,.9.2,1.7.7,2.3.5.6,1.1.8,1.9.8s1.4-.3,1.8-.8c.5-.6.7-1.3.7-2.3s-.2-1.7-.7-2.3c-.5-.6-1.1-.9-1.9-.9s-1.3.3-1.8.8-.7,1.3-.7,2.3h0ZM237.9,332.2c1.1,0,1.9.2,2.4.6s.7.9.7,1.6v4.8c0,.3.1.5.4.5s.1,0,.2,0h.2v1.1c-.1,0-.3.1-.4.2h-.5c-.4,0-.7-.1-.9-.3-.2-.2-.3-.5-.3-1-.4.4-.8.8-1.3,1s-1,.3-1.6.3-1.5-.2-2-.6-.7-1-.7-1.7.2-1.3.7-1.8c.5-.4,1.6-.8,3.4-1,.6,0,1-.2,1.2-.3.2-.2.3-.4.3-.7,0-.5-.1-.8-.4-1-.3-.2-.8-.3-1.4-.3s-1.2.1-1.5.4c-.3.2-.5.6-.5,1.2h-1.4c0-.9.4-1.6,1-2.1s1.4-.7,2.5-.7v-.2ZM235.5,338.5c0,.4.1.7.4.9.3.2.7.3,1.2.3.8,0,1.4-.2,1.8-.6.5-.4.7-.8.7-1.3v-1.4c-.2.2-.5.3-.9.3s-.8.1-1.5.2c-.6,0-1.1.2-1.3.5-.3.2-.4.6-.4,1h0ZM250.5,329.3v11.4h-1.4v-1.1h0c-.2.4-.6.8-1,1-.5.2-1,.3-1.6.3-1.2,0-2.1-.4-2.8-1.2-.7-.8-1-1.9-1-3.2s.3-2.3,1-3.1c.7-.8,1.6-1.2,2.8-1.2s1.1.1,1.5.3.9.5,1.1,1h0v-4.2h1.4ZM244.1,336.6c0,.9.2,1.6.7,2.2s1.1.9,1.9.9,1.4-.3,1.9-.9c.4-.6.7-1.3.7-2.2s-.2-1.7-.7-2.3c-.4-.6-1.1-.9-1.9-.9s-1.4.3-1.8.9c-.4.6-.6,1.3-.6,2.3h-.2Z"/>
  <path class="st8" d="M.8,282.3h133.8v39.7H.8v-39.7Z"/>
  <path d="M42.1,286.6c1.3,0,2.3.3,3.2,1s1.4,1.6,1.5,2.7h-1.5c-.2-.8-.5-1.4-1.1-1.8s-1.3-.6-2.1-.6c-1.2,0-2.2.4-2.8,1.3-.7.9-1,2-1,3.3s.3,2.6,1,3.5,1.6,1.3,2.9,1.3,1.7-.3,2.3-.9.9-1.4,1-2.4h1.5c-.2,1.5-.7,2.6-1.5,3.4-.9.8-2,1.2-3.4,1.2s-2.9-.5-3.9-1.6c-.9-1.1-1.4-2.5-1.4-4.3s.5-3.2,1.5-4.3c1-1.1,2.3-1.7,4-1.7h-.2ZM49.9,286.9v4.4h0c.2-.4.5-.8,1-1,.5-.3,1-.4,1.6-.4,1,0,1.7.3,2.2.8.4.5.7,1.2.7,2.2v5.5h-1.4v-5.7c0-.5-.2-.9-.5-1.2-.3-.3-.7-.5-1.2-.5-.8,0-1.4.2-1.8.7-.4.5-.6,1.1-.6,1.8v4.7h-1.4v-11.4h1.4ZM60.9,289.9c1.1,0,1.9.2,2.4.6s.7.9.7,1.6v4.8c0,.3,0,.5.4.5h.4v1.1c0,0-.3.1-.4.2h-.5c-.4,0-.7-.1-.9-.3-.2-.2-.3-.5-.3-1-.4.4-.8.7-1.3,1-.5.2-1,.3-1.6.3-.9,0-1.5-.2-2-.6s-.7-1-.7-1.7.2-1.3.7-1.8c.5-.4,1.6-.8,3.4-1,.6,0,1-.2,1.2-.3.2-.2.3-.4.3-.7,0-.5,0-.8-.4-1-.3-.2-.8-.3-1.4-.3s-1.2.1-1.5.4c-.3.2-.5.6-.5,1.2h-1.4c0-.9.4-1.6,1-2.1s1.4-.7,2.5-.7v-.2ZM58.5,296.1c0,.4,0,.7.4.9.3.2.7.3,1.2.3.8,0,1.4-.2,1.8-.6.5-.4.7-.8.7-1.3v-1.4c-.2.2-.5.3-.9.3s-.8.1-1.5.2c-.6,0-1.1.2-1.3.5-.3.2-.4.6-.4,1h0ZM70.1,289.9c1,0,1.7.3,2.2.8.4.5.7,1.2.7,2.2v5.5h-1.4v-5.7c0-.5-.2-.9-.5-1.2-.3-.3-.7-.5-1.2-.5-.8,0-1.4.2-1.8.7s-.6,1.1-.6,1.8v4.7h-1.4v-8.3h1.3v1.3h0c.3-.5.7-.9,1.1-1.1.4-.3,1-.4,1.6-.4v.2ZM79,289.9c1,0,1.7.3,2.2.8.4.5.7,1.2.7,2.2v5.5h-1.4v-5.7c0-.5-.2-.9-.5-1.2-.3-.3-.7-.5-1.2-.5-.8,0-1.4.2-1.8.7s-.6,1.1-.6,1.8v4.7h-1.4v-8.3h1.3v1.3h0c.3-.5.7-.9,1.1-1.1.4-.3,1-.4,1.6-.4v.2ZM87.3,289.9c1.2,0,2.1.4,2.8,1.3.7.9,1,2,1,3.3v.2h-6.2c0,.9.2,1.5.7,2s1.1.7,1.9.7,1.1-.1,1.4-.4c.4-.3.6-.7.7-1.2h1.3c-.2.9-.6,1.6-1.2,2.1s-1.4.7-2.3.7-1.6-.2-2.2-.6-1.1-.9-1.3-1.6c-.3-.7-.4-1.4-.4-2.2,0-1.2.4-2.2,1.1-3s1.7-1.2,2.8-1.2h-.1ZM84.9,293.4h4.8c0-.7-.3-1.2-.7-1.7-.4-.4-1-.7-1.7-.7s-1.2.2-1.6.6-.7,1-.8,1.7h0ZM93.9,286.9v11.4h-1.4v-11.4h1.4ZM98.1,296.5v1.7c0,.6,0,1.1-.4,1.5s-.7.7-1.3.9v-.8c.3-.1.5-.3.7-.5.2-.3.3-.6.3-.9h-1v-1.8h1.8,0Z"/>
  <path d="M36.9,306.1v1.3h-3.8v10.1h-1.5v-10.1h-3.8v-1.3h9.1ZM39.6,306.1v1.7h-1.4v-1.7h1.4ZM39.6,309.2v8.3h-1.4v-8.3h1.4ZM45.7,309.1c.6,0,1.1.1,1.5.4.4.2.7.6.8,1,.3-.4.6-.8,1.1-1s1-.4,1.5-.4c.9,0,1.6.2,2.1.6.4.4.7,1,.7,1.7v6.1h-1.4v-5.5c0-.6,0-1-.4-1.3-.2-.3-.7-.5-1.2-.5s-1.2.2-1.6.6c-.4.4-.6.9-.6,1.5v5.2h-1.4v-5.5c0-.6,0-1-.4-1.3-.2-.3-.6-.5-1.2-.5s-.8.1-1.1.3c-.3.2-.6.5-.8.9s-.3.7-.3.9v5.2h-1.4v-8.3h1.3v1.2h0c.3-.5.7-.8,1.1-1,.4-.2,1-.4,1.5-.4h.2ZM58.8,309.1c1.2,0,2.1.4,2.8,1.3s1,2,1,3.3v.2h-6.2c0,.9.2,1.5.7,2s1.1.7,1.9.7,1.1-.1,1.4-.4c.4-.3.6-.7.7-1.2h1.3c-.2.9-.6,1.6-1.2,2.1-.6.5-1.4.7-2.3.7s-1.6-.2-2.2-.6c-.6-.4-1.1-.9-1.3-1.6-.3-.7-.4-1.4-.4-2.2,0-1.2.4-2.2,1.1-3,.7-.8,1.7-1.2,2.8-1.2h0ZM56.4,312.6h4.8c0-.7-.3-1.2-.7-1.7-.4-.4-1-.7-1.7-.7s-1.2.2-1.6.6c-.4.4-.7,1-.8,1.7h0ZM66.7,309.1c1.1,0,1.9.2,2.5.7.5.4.8,1.1.9,1.9h-1.4c0-.5-.2-.8-.6-1-.3-.2-.8-.4-1.3-.4s-1,0-1.3.3c-.3.2-.5.4-.5.8s0,.6.4.8c.3.2.7.3,1.3.5l1.3.3c.8.2,1.4.5,1.8.8.4.4.6.9.6,1.5s-.3,1.5-1,1.9c-.6.5-1.5.7-2.6.7s-1.9-.2-2.5-.7-.9-1.2-1-2.1h1.4c0,.5.2.9.6,1.2.4.3.9.4,1.6.4s1.2-.1,1.5-.3c.3-.2.5-.5.5-.9s-.2-.7-.5-.9c-.3-.2-1-.4-2.1-.6-1-.2-1.8-.5-2.2-.9s-.6-.9-.6-1.5.3-1.3.9-1.7c.6-.4,1.3-.6,2.2-.6v-.2ZM73.9,306.8v2.5h1.6v1.2h-1.6v5.2c0,.4,0,.6.4.7h1.3v1.2h-1.1c-.7,0-1.2-.1-1.5-.4s-.4-.7-.4-1.3v-5.3h-1.4v-1.2h1.4v-2.5h1.4-.1ZM80.4,309.1c1.1,0,1.9.2,2.4.6s.7.9.7,1.6v4.8c0,.3,0,.5.4.5s0,0,.2,0h.2v1.1c0,0-.3.1-.4.2h-.5c-.4,0-.7-.1-.9-.3-.2-.2-.3-.5-.3-1-.4.4-.8.8-1.3,1s-1,.3-1.6.3-1.5-.2-2-.6-.7-1-.7-1.7.2-1.3.7-1.8c.5-.4,1.6-.8,3.4-1,.6,0,1-.2,1.2-.3.2-.2.3-.4.3-.7,0-.5,0-.8-.4-1s-.8-.3-1.4-.3-1.2.1-1.5.4c-.3.2-.5.6-.5,1.2h-1.4c0-.9.4-1.6,1-2.1s1.4-.7,2.5-.7v-.2ZM78,315.3c0,.4,0,.7.4.9.3.2.7.3,1.2.3.8,0,1.4-.2,1.8-.6.5-.4.7-.8.7-1.3v-1.4c-.2.2-.5.3-.9.3s-.8.1-1.5.2c-.6,0-1.1.2-1.3.5-.3.2-.4.6-.4,1h0ZM89.6,309.1c.6,0,1.1.1,1.5.4.4.2.7.6.8,1,.3-.4.6-.8,1.1-1s1-.4,1.5-.4c.9,0,1.6.2,2.1.6.4.4.7,1,.7,1.7v6.1h-1.4v-5.5c0-.6,0-1-.4-1.3-.2-.3-.7-.5-1.2-.5s-1.2.2-1.6.6-.6.9-.6,1.5v5.2h-1.4v-5.5c0-.6,0-1-.4-1.3-.2-.3-.6-.5-1.2-.5s-.8.1-1.1.3c-.3.2-.6.5-.8.9-.2.4-.3.7-.3.9v5.2h-1.4v-8.3h1.3v1.2h0c.3-.5.7-.8,1.1-1s1-.4,1.5-.4h.2ZM103.3,309.1c1.2,0,2.1.4,2.8,1.2.7.8,1,1.9,1,3.1s-.3,2.3-1,3.1c-.7.8-1.6,1.2-2.8,1.2s-1-.1-1.5-.3c-.5-.2-.9-.5-1.2-1h0v4.3h-1.4v-11.5h1.4v1.1h0c.2-.4.5-.8,1-1s1-.3,1.6-.3h0ZM100.6,313.4c0,1,.2,1.7.7,2.3.5.6,1.1.8,1.9.8s1.4-.3,1.8-.8c.4-.6.7-1.3.7-2.3s-.2-1.6-.7-2.2c-.4-.6-1.1-.9-1.9-.9s-1.4.3-1.9.9-.7,1.3-.7,2.2h0Z"/>
  <path class="st8" d="M.8,318.5h133.8v32.7H.8v-32.7Z"/>
  <path d="M49,329.2c1.1,0,1.9.3,2.5.9s.9,1.4.9,2.5-.3,2-.9,2.5c-.6.6-1.4.8-2.4.8h-3.7v4.7h-1.5v-11.4h5.1ZM48.6,334.6c.7,0,1.3-.2,1.7-.5s.6-.9.6-1.6-.2-1.2-.6-1.6c-.4-.3-1-.5-1.8-.5h-3v4.2h3.1ZM55.5,329.2v1.7h-1.4v-1.7h1.4ZM55.5,332.3v8.3h-1.4v-8.3h1.4ZM61.1,332.1c1,0,1.8.2,2.5.7.6.5,1,1.2,1.1,2.1h-1.4c0-.5-.3-.9-.7-1.2-.4-.3-.8-.4-1.3-.4-.8,0-1.5.3-1.9.8s-.7,1.4-.7,2.4.2,1.7.6,2.2c.4.5,1,.8,1.8.8s1.2-.2,1.6-.5c.4-.4.6-.8.7-1.5h1.4c0,1-.5,1.8-1.2,2.4s-1.5.8-2.5.8-2.2-.4-2.8-1.1-1-1.8-1-3.1.3-2.4,1-3.2c.7-.8,1.7-1.2,2.9-1.2h0ZM68.1,329.8v2.5h1.6v1.2h-1.6v5.2c0,.4,0,.6.4.7h1.3v1.2h-1.1c-.7,0-1.2-.1-1.5-.4s-.4-.7-.4-1.3v-5.3h-1.4v-1.2h1.4v-2.5h1.4-.1ZM72.6,332.3v5.6c0,.5,0,.9.4,1.2.3.3.7.5,1.2.5.8,0,1.4-.2,1.8-.7s.6-1.1.6-1.8v-4.7h1.4v8.3h-1.3v-1.3h0c-.3.5-.7.9-1.1,1.2-.4.2-1,.4-1.5.4-1,0-1.7-.2-2.2-.8-.5-.5-.7-1.2-.7-2.2v-5.5h1.4v-.2ZM84.3,332.1h.2v1.4c-1,0-1.8.3-2.3.8s-.7,1.4-.7,2.5v3.7h-1.4v-8.3h1.3v1.8h0c.3-.7.7-1.1,1.2-1.5.5-.3,1-.5,1.7-.5h0ZM88.6,332.1c1.2,0,2.1.4,2.8,1.3s1,2,1,3.3v.2h-6.2c0,.9.2,1.5.7,2s1.1.7,1.9.7,1.1-.1,1.4-.4c.4-.3.6-.7.7-1.2h1.3c-.2.9-.6,1.6-1.2,2.1s-1.4.7-2.3.7-1.6-.2-2.2-.6-1.1-.9-1.3-1.6c-.3-.7-.4-1.4-.4-2.2,0-1.2.4-2.2,1.1-3s1.7-1.2,2.8-1.2h-.1ZM86.2,335.7h4.8c0-.7-.3-1.2-.7-1.7-.4-.4-1-.7-1.7-.7s-1.2.2-1.6.6-.7,1-.8,1.7h0Z"/>
  <path class="st8" d="M134.6,302.2h33"/>
  <path class="st3" d="M134.6,302.2h21"/>
  <path class="st2" d="M155.6,305.5l9.1-3.3-9.1-3.3v6.6h0Z"/>
  <path class="st8" d="M134.6,334.8h33"/>
  <path class="st3" d="M134.6,334.8h21"/>
  <path class="st2" d="M155.6,338.1l9.1-3.3-9.1-3.3v6.6h0Z"/>
  <path class="st6" d="M354.1,318.5l88.8-33.3,88.8,33.3-88.8,33.3-88.8-33.3Z"/>
  <path class="st1" d="M354.1,318.5l88.8-33.3,88.8,33.3-88.8,33.3-88.8-33.3Z"/>
  <path d="M412,312.1l3.8,11.5h0l3.8-11.5h1.8l-4.7,13.3h-2l-4.7-13.3h2ZM425.8,315.5c1.3,0,2.2.2,2.8.7.6.5.8,1.1.8,1.9v5.6c0,.4.2.5.5.5s.2,0,.2,0h.2v1.2c-.1,0-.3.1-.5.2h-.6c-.4,0-.8-.1-1-.4s-.3-.6-.3-1.1c-.4.5-.9.9-1.5,1.1s-1.2.4-1.9.4-1.8-.2-2.3-.7c-.6-.5-.8-1.2-.8-2s.3-1.5.8-2c.6-.5,1.9-.9,3.9-1.2.7,0,1.2-.2,1.4-.4s.4-.4.4-.8-.2-.9-.5-1.2c-.3-.3-.9-.4-1.6-.4s-1.4.2-1.8.5-.6.8-.6,1.4h-1.6c0-1.1.4-1.9,1.1-2.4s1.7-.8,3-.8h-.1ZM423,322.8c0,.4.2.8.5,1s.8.4,1.4.4c.9,0,1.6-.2,2.1-.7.5-.4.8-.9.8-1.5v-1.7c-.3.2-.6.3-1,.4-.4,0-1,.1-1.7.2s-1.2.3-1.6.6-.5.7-.5,1.2h0ZM433.5,312.1v13.3h-1.6v-13.3h1.6ZM437.7,312.1v1.9h-1.6v-1.9h1.6ZM437.7,315.8v9.6h-1.6v-9.6h1.6ZM448.7,312.1v13.3h-1.6v-1.3h0c-.2.5-.6.9-1.2,1.1-.5.3-1.2.4-1.9.4-1.3,0-2.4-.5-3.2-1.4-.8-.9-1.2-2.2-1.2-3.7s.4-2.7,1.2-3.6c.8-.9,1.9-1.4,3.2-1.4s1.2.1,1.8.4c.6.2,1,.6,1.3,1.1h0v-5h1.6ZM441.3,320.6c0,1,.3,1.9.8,2.6s1.3,1,2.2,1,1.6-.3,2.2-1c.5-.7.8-1.6.8-2.6s-.3-2-.8-2.6c-.5-.7-1.3-1-2.3-1s-1.6.3-2.1,1-.8,1.6-.8,2.7h0ZM455.1,315.5c1.3,0,2.2.2,2.8.7.6.5.8,1.1.8,1.9v5.6c0,.4.2.5.5.5s.2,0,.2,0h.2v1.2c-.1,0-.3.1-.5.2h-.6c-.4,0-.8-.1-1-.4s-.3-.6-.3-1.1c-.4.5-.9.9-1.5,1.1s-1.2.4-1.9.4-1.8-.2-2.3-.7c-.6-.5-.8-1.2-.8-2s.3-1.5.8-2c.6-.5,1.9-.9,3.9-1.2.7,0,1.2-.2,1.4-.4s.4-.4.4-.8-.2-.9-.5-1.2c-.3-.3-.9-.4-1.6-.4s-1.4.2-1.8.5-.6.8-.6,1.4h-1.6c0-1.1.4-1.9,1.1-2.4s1.7-.8,3-.8h-.1ZM452.3,322.8c0,.4.2.8.5,1s.8.4,1.4.4c.9,0,1.6-.2,2.1-.7.5-.4.8-.9.8-1.5v-1.7c-.3.2-.6.3-1,.4-.4,0-1,.1-1.7.2s-1.2.3-1.6.6-.5.7-.5,1.2h0ZM463.4,312.9v2.9h1.9v1.4h-1.9v6c0,.5.2.7.5.8h1.4v1.4h-1.3c-.9,0-1.5-.2-1.8-.5s-.4-.8-.4-1.6v-6.2h-1.7v-1.4h1.7v-2.9h1.6,0ZM470.9,315.5c1.4,0,2.5.5,3.2,1.5.8,1,1.2,2.3,1.2,3.8v.2h-7.2c0,1,.3,1.8.8,2.3.5.6,1.3.8,2.2.8s1.3-.2,1.7-.5c.4-.3.7-.8.8-1.4h1.6c-.2,1.1-.7,1.9-1.4,2.5s-1.6.8-2.7.8-1.9-.2-2.6-.7-1.2-1.1-1.5-1.9-.5-1.7-.5-2.5c0-1.4.4-2.6,1.3-3.6.9-.9,1.9-1.4,3.2-1.4h-.1ZM468,319.6h5.5c0-.8-.3-1.4-.9-1.9-.5-.5-1.2-.8-1.9-.8s-1.4.2-1.9.7-.8,1.2-.9,2h0Z"/>
  <path class="st8" d="M288.4,318.5h65.8"/>
  <path class="st3" d="M288.4,318.5h53.8"/>
  <path class="st2" d="M342.1,321.8l9.1-3.3-9.1-3.3v6.6h0Z"/>
  <path class="st8" d="M442.9,266v19.1"/>
  <path class="st3" d="M442.9,266v7.1"/>
  <path class="st2" d="M439.6,273.1l3.3,9.1,3.3-9.1h-6.6,0Z"/>
  <path class="st8" d="M373.6,240.6h138.7v25.4h-138.7v-25.4h0Z"/>
  <path d="M408.4,247.7c1.1,0,1.9.3,2.5.9.6.6.9,1.4.9,2.5s-.3,2-.9,2.5c-.6.6-1.4.8-2.4.8h-3.7v4.7h-1.5v-11.4h5.1ZM408,253.1c.7,0,1.3-.2,1.7-.5.4-.3.6-.9.6-1.6s-.2-1.2-.6-1.6c-.4-.3-1-.5-1.8-.5h-3v4.2h3.1,0ZM414.9,247.7v1.7h-1.4v-1.7h1.4ZM414.9,250.8v8.3h-1.4v-8.3h1.4ZM420.5,250.6c1,0,1.8.2,2.5.7.6.5,1,1.2,1.1,2.1h-1.4c-.1-.5-.3-.9-.7-1.2-.4-.3-.8-.4-1.3-.4-.8,0-1.5.3-1.9.8-.4.6-.7,1.4-.7,2.4s.2,1.7.6,2.2c.4.5,1,.8,1.8.8s1.2-.2,1.6-.5c.4-.4.6-.8.7-1.5h1.4c-.1,1-.5,1.8-1.2,2.4-.6.6-1.5.8-2.5.8s-2.2-.4-2.8-1.1c-.7-.8-1-1.8-1-3.1s.3-2.4,1-3.2,1.7-1.2,2.9-1.2h-.1ZM427.5,248.3v2.5h1.6v1.2h-1.6v5.2c0,.4.1.6.4.7h1.3v1.2h-1.1c-.7,0-1.2-.1-1.5-.4-.2-.3-.4-.7-.4-1.3v-5.3h-1.4v-1.2h1.4v-2.5h1.4,0ZM432.1,250.8v5.6c0,.5.1.9.4,1.2.3.3.7.5,1.2.5.8,0,1.4-.2,1.8-.7s.6-1.1.6-1.8v-4.7h1.4v8.3h-1.3v-1.3h0c-.3.5-.7.9-1.1,1.2-.4.2-1,.4-1.5.4-1,0-1.7-.2-2.2-.8-.5-.5-.7-1.2-.7-2.2v-5.5h1.4v-.2ZM443.7,250.6h.2v1.4c-1,0-1.8.3-2.3.8s-.7,1.4-.7,2.5v3.7h-1.4v-8.3h1.3v1.8h0c.3-.7.7-1.1,1.2-1.5.5-.3,1-.5,1.7-.5h0ZM448.1,250.6c1.2,0,2.1.4,2.8,1.3.7.9,1,2,1,3.3v.2h-6.2c0,.9.2,1.5.7,2s1.1.7,1.9.7,1.1-.1,1.4-.4c.4-.3.6-.7.7-1.2h1.3c-.2.9-.6,1.6-1.2,2.1s-1.4.7-2.3.7-1.6-.2-2.2-.6-1.1-.9-1.3-1.6c-.3-.7-.4-1.4-.4-2.2,0-1.2.4-2.2,1.1-3s1.7-1.2,2.8-1.2h0ZM445.6,254.2h4.8c0-.7-.3-1.2-.7-1.7-.4-.4-1-.7-1.7-.7s-1.2.2-1.6.6c-.4.4-.7,1-.8,1.7h0ZM459.4,247.7v5.7l5.8-5.7h2l-4.8,4.6,5,6.8h-1.9l-4.1-5.8-1.9,1.8v4h-1.5v-11.4h1.5-.1ZM471.6,250.6c1.2,0,2.1.4,2.8,1.3.7.9,1,2,1,3.3v.2h-6.2c0,.9.2,1.5.7,2s1.1.7,1.9.7,1.1-.1,1.4-.4c.4-.3.6-.7.7-1.2h1.3c-.2.9-.6,1.6-1.2,2.1s-1.4.7-2.3.7-1.6-.2-2.2-.6-1.1-.9-1.3-1.6c-.3-.7-.4-1.4-.4-2.2,0-1.2.4-2.2,1.1-3s1.7-1.2,2.8-1.2h0ZM469.1,254.2h4.8c0-.7-.3-1.2-.7-1.7-.4-.4-1-.7-1.7-.7s-1.2.2-1.6.6c-.4.4-.7,1-.8,1.7h0ZM477.4,250.8l2.4,6.8h0l2.3-6.8h1.4l-3.5,9.2c-.4.9-.7,1.6-1.1,1.9-.3.3-.8.5-1.4.5s-.3,0-.5,0-.3,0-.5-.1v-1.2c.1,0,.3,0,.4.1h.4c.6,0,.9-.3,1.2-.8.2-.6.4-1,.5-1.3l-3.3-8.2h1.7Z"/>
  <path class="st8" d="M278.2,302.2h47.7v-48.9h47.7"/>
  <path class="st3" d="M278.2,302.2h47.7v-48.9h35.7"/>
  <path class="st2" d="M361.5,256.6l9.1-3.3-9.1-3.3v6.6Z"/>
  <path class="st8" d="M531.7,318.5h28.3"/>
  <path class="st3" d="M531.7,318.5h16.3"/>
  <path class="st2" d="M548,321.8l9.1-3.3-9.1-3.3v6.6h0Z"/>
  <path class="st5" d="M560,296.7h0c0-6,4.9-10.9,10.9-10.9h116.9c2.9,0,5.7,1.1,7.7,3.2s3.2,4.8,3.2,7.7v43.5c0,6-4.9,10.9-10.9,10.9h-116.9c-6,0-10.9-4.9-10.9-10.9v-43.5h0Z"/>
  <path class="st1" d="M560,296.7h0c0-6,4.9-10.9,10.9-10.9h116.9c2.9,0,5.7,1.1,7.7,3.2s3.2,4.8,3.2,7.7v43.5c0,6-4.9,10.9-10.9,10.9h-116.9c-6,0-10.9-4.9-10.9-10.9v-43.5h0Z"/>
  <path d="M593,312.1v1.5h-7.4v4.2h6.9v1.5h-6.9v4.6h7.5v1.5h-9.3v-13.3h9.2ZM599.6,315.5c.7,0,1.3.1,1.7.4s.8.7.9,1.2c.3-.5.8-.9,1.3-1.2.5-.3,1.1-.4,1.8-.4,1.1,0,1.9.2,2.4.7s.8,1.2.8,2v7.1h-1.6v-6.4c0-.7-.2-1.2-.5-1.6-.3-.3-.8-.5-1.4-.5s-1.4.2-1.9.7c-.4.5-.7,1-.7,1.7v6.1h-1.6v-6.4c0-.7,0-1.2-.4-1.6-.3-.3-.7-.5-1.4-.5s-1,.1-1.3.4c-.4.2-.7.6-.9,1s-.3.8-.3,1.1v6h-1.6v-9.6h1.5v1.4h0c.4-.6.8-1,1.3-1.2.5-.3,1.1-.4,1.8-.4h.1ZM612.5,312.1v1.9h-1.6v-1.9h1.6ZM612.5,315.8v9.6h-1.6v-9.6h1.6ZM617.2,312.9v2.9h1.9v1.4h-1.9v6c0,.5.2.7.5.8h1.4v1.4h-1.3c-.9,0-1.5-.2-1.8-.5s-.4-.8-.4-1.6v-6.2h-1.7v-1.4h1.7v-2.9h1.6ZM635.1,312.1v1.5h-7v4.2h6.1v1.5h-6.1v6.1h-1.8v-13.3h8.8ZM640.7,315.5h0v1.7c-1.2,0-2.1.3-2.7,1-.6.6-.8,1.6-.8,2.9v4.3h-1.6v-9.6h1.5v2h0c.4-.8.8-1.3,1.4-1.7.6-.4,1.2-.6,2-.6h0ZM645.6,315.5c1.3,0,2.2.2,2.8.7s.8,1.1.8,1.9v5.6c0,.4.2.5.5.5h.4v1.2c0,0-.3.1-.5.2h-.6c-.4,0-.8-.1-1-.4s-.3-.6-.3-1.1c-.4.5-.9.9-1.5,1.1s-1.2.4-1.9.4c-1,0-1.8-.2-2.3-.7-.6-.5-.8-1.2-.8-2s.3-1.5.8-2c.6-.5,1.9-.9,3.9-1.2.7,0,1.2-.2,1.4-.4.2-.2.4-.4.4-.8s-.2-.9-.5-1.2c-.3-.3-.9-.4-1.6-.4s-1.4.2-1.8.5c-.4.3-.6.7-.6,1.4h-1.6c0-1.1.4-1.9,1.1-2.4.7-.5,1.7-.8,3-.8h-.1ZM642.8,322.8c0,.4.2.8.5,1s.8.4,1.4.4c.9,0,1.6-.2,2.1-.7.5-.4.8-.9.8-1.5v-1.7c-.3.2-.6.3-1,.4-.4,0-1,.1-1.7.2s-1.2.3-1.6.6c-.3.3-.5.7-.5,1.2h0ZM656.3,315.5c.7,0,1.3.1,1.7.4s.8.7.9,1.2c.3-.5.8-.9,1.3-1.2.5-.3,1.1-.4,1.8-.4,1.1,0,1.9.2,2.4.7s.8,1.2.8,2v7.1h-1.6v-6.4c0-.7-.2-1.2-.5-1.6-.3-.3-.8-.5-1.4-.5s-1.4.2-1.9.7c-.4.5-.7,1-.7,1.7v6.1h-1.6v-6.4c0-.7,0-1.2-.4-1.6-.3-.3-.7-.5-1.4-.5s-1,.1-1.3.4c-.4.2-.7.6-.9,1s-.3.8-.3,1.1v6h-1.6v-9.6h1.5v1.4h0c.4-.6.8-1,1.3-1.2.5-.3,1.1-.4,1.8-.4h.1ZM671.6,315.5c1.4,0,2.5.5,3.2,1.5.8,1,1.2,2.3,1.2,3.8v.2h-7.2c0,1,.3,1.8.8,2.3.5.6,1.3.8,2.2.8s1.3-.2,1.7-.5.7-.8.8-1.4h1.6c-.2,1.1-.7,1.9-1.4,2.5s-1.6.8-2.7.8-1.9-.2-2.6-.7c-.7-.5-1.2-1.1-1.5-1.9s-.5-1.7-.5-2.5c0-1.4.4-2.6,1.3-3.6.9-.9,1.9-1.4,3.2-1.4h0ZM668.7,319.6h5.5c0-.8-.3-1.4-.9-1.9-.5-.5-1.2-.8-1.9-.8s-1.4.2-1.9.7-.8,1.2-.9,2h.1Z"/>
  <path class="st8" d="M629.4,183.2v70.2h-117.1"/>
  <path class="st3" d="M629.4,183.2v70.2h-105.1"/>
  <path class="st2" d="M524.3,250l-9.1,3.3,9.1,3.3v-6.6Z"/>
  <path class="st8" d="M320.2,3.3v357.5"/>
  <path class="st0" d="M320.2,3.3v357.5"/>
  <path class="st8" d="M181.2,374.5h83.4v39.7h-83.4v-39.7Z"/>
  <path d="M204.2,379.1c1.1,0,1.9.3,2.5.9s.9,1.4.9,2.5-.3,2-.9,2.5c-.6.6-1.4.8-2.4.8h-3.7v4.7h-1.5v-11.4h5.1,0ZM203.7,384.6c.7,0,1.3-.2,1.7-.5s.6-.9.6-1.6-.2-1.2-.6-1.6c-.4-.3-1-.5-1.8-.5h-3v4.2h3.1ZM210.7,379.1v1.7h-1.4v-1.7h1.4ZM210.7,382.3v8.3h-1.4v-8.3h1.4ZM216.3,382.1c1,0,1.8.2,2.5.7.6.5,1,1.2,1.1,2.1h-1.4c-.1-.5-.3-.9-.7-1.2-.4-.3-.8-.4-1.3-.4-.8,0-1.5.3-1.9.8s-.7,1.4-.7,2.4.2,1.7.6,2.2c.4.5,1,.8,1.8.8s1.2-.2,1.6-.5c.4-.4.6-.8.7-1.5h1.4c-.1,1-.5,1.8-1.2,2.4s-1.5.8-2.5.8-2.2-.4-2.8-1.1c-.7-.8-1-1.8-1-3.1s.3-2.4,1-3.2c.7-.8,1.7-1.2,2.9-1.2h-.1ZM223.3,379.8v2.5h1.6v1.2h-1.6v5.2c0,.4.1.6.4.7h1.3v1.2h-1.1c-.7,0-1.2-.1-1.5-.4-.2-.3-.4-.7-.4-1.3v-5.3h-1.4v-1.2h1.4v-2.5h1.4,0ZM227.8,382.3v5.6c0,.5.1.9.4,1.2.3.3.7.5,1.2.5.8,0,1.4-.2,1.8-.7.4-.5.6-1.1.6-1.8v-4.7h1.4v8.3h-1.3v-1.3h0c-.3.5-.7.9-1.1,1.2-.4.2-1,.4-1.5.4-1,0-1.7-.2-2.2-.8-.5-.5-.7-1.2-.7-2.2v-5.5h1.4v-.2ZM239.5,382.1h.2v1.4c-1,0-1.8.3-2.3.8s-.7,1.4-.7,2.5v3.7h-1.4v-8.3h1.3v1.8h0c.3-.7.7-1.1,1.2-1.5.5-.3,1-.5,1.7-.5h0ZM243.8,382.1c1.2,0,2.1.4,2.8,1.3s1,2,1,3.3v.2h-6.2c0,.9.2,1.5.7,2s1.1.7,1.9.7,1.1-.1,1.4-.4c.4-.3.6-.7.7-1.2h1.3c-.2.9-.6,1.6-1.2,2.1-.6.5-1.4.7-2.3.7s-1.6-.2-2.2-.6c-.6-.4-1.1-.9-1.3-1.6-.3-.7-.4-1.4-.4-2.2,0-1.2.4-2.2,1.1-3,.7-.8,1.7-1.2,2.8-1.2h-.1ZM241.4,385.6h4.8c0-.7-.3-1.2-.7-1.7-.4-.4-1-.7-1.7-.7s-1.2.2-1.6.6c-.4.4-.7,1-.8,1.7h0Z"/>
  <path d="M212.1,398.3v5.7l5.8-5.7h2l-4.8,4.6,5,6.8h-1.9l-4.1-5.8-1.9,1.8v4h-1.5v-11.4h1.5-.1ZM224.3,401.3c1.2,0,2.1.4,2.8,1.3s1,2,1,3.3v.2h-6.2c0,.9.2,1.5.7,2s1.1.7,1.9.7,1.1-.1,1.4-.4c.4-.3.6-.7.7-1.2h1.3c-.2.9-.6,1.6-1.2,2.1-.6.5-1.4.7-2.3.7s-1.6-.2-2.2-.6c-.6-.4-1.1-.9-1.3-1.6-.3-.7-.4-1.4-.4-2.2,0-1.2.4-2.2,1.1-3,.7-.8,1.7-1.2,2.8-1.2h-.1ZM221.9,404.8h4.8c0-.7-.3-1.2-.7-1.7-.4-.4-1-.7-1.7-.7s-1.2.2-1.6.6c-.4.4-.7,1-.8,1.7h0ZM230.1,401.5l2.4,6.8h0l2.3-6.8h1.4l-3.5,9.2c-.4.9-.7,1.6-1.1,1.9-.3.3-.8.5-1.4.5s-.3,0-.5,0-.3,0-.5-.1v-1.2c.1,0,.3,0,.4.1h.4c.6,0,.9-.3,1.2-.8.2-.6.4-1,.5-1.3l-3.3-8.2h1.7Z"/>
  <path class="st8" d="M.8,374.5h133.8v39.7H.8v-39.7Z"/>
  <path d="M16.8,378.8c1.3,0,2.3.3,3.2,1,.9.7,1.4,1.6,1.5,2.7h-1.5c-.2-.8-.5-1.4-1.1-1.8s-1.3-.6-2.1-.6c-1.2,0-2.2.4-2.8,1.3-.7.9-1,2-1,3.3s.3,2.6,1,3.5,1.6,1.3,2.9,1.3,1.7-.3,2.3-.9c.6-.6.9-1.4,1-2.4h1.5c-.2,1.5-.7,2.6-1.5,3.4-.9.8-2,1.2-3.4,1.2s-2.9-.5-3.9-1.6c-.9-1.1-1.4-2.5-1.4-4.3s.5-3.2,1.5-4.3c1-1.1,2.3-1.7,4-1.7h-.2ZM24.6,379.1v4.4h0c.2-.4.5-.8,1-1s1-.4,1.6-.4c1,0,1.7.3,2.2.8.4.5.7,1.2.7,2.2v5.5h-1.4v-5.7c0-.5-.2-.9-.5-1.2-.3-.3-.7-.5-1.2-.5-.8,0-1.4.2-1.8.7s-.6,1.1-.6,1.8v4.7h-1.4v-11.4h1.4,0ZM35.5,382.1c1.1,0,1.9.2,2.4.6s.7.9.7,1.6v4.8c0,.3,0,.5.4.5s0,0,.2,0h.2v1.1c0,0-.3.1-.4.2h-.5c-.4,0-.7-.1-.9-.3-.2-.2-.3-.5-.3-1-.4.4-.8.8-1.3,1s-1,.3-1.6.3-1.5-.2-2-.6-.7-1-.7-1.7.2-1.3.7-1.8c.5-.4,1.6-.8,3.4-1,.6,0,1-.2,1.2-.3.2-.2.3-.4.3-.7,0-.5,0-.8-.4-1-.3-.2-.8-.3-1.4-.3s-1.2.1-1.5.4c-.3.2-.5.6-.5,1.2h-1.4c0-.9.4-1.6,1-2.1s1.4-.7,2.5-.7v-.2ZM33.1,388.3c0,.4,0,.7.4.9.3.2.7.3,1.2.3.8,0,1.4-.2,1.8-.6.5-.4.7-.8.7-1.3v-1.4c-.2.2-.5.3-.9.3s-.8.1-1.5.2c-.6,0-1.1.2-1.3.5-.3.2-.4.6-.4,1h0ZM44.7,382.1c1,0,1.7.3,2.2.8.4.5.7,1.2.7,2.2v5.5h-1.4v-5.7c0-.5-.2-.9-.5-1.2-.3-.3-.7-.5-1.2-.5-.8,0-1.4.2-1.8.7-.4.5-.6,1.1-.6,1.8v4.7h-1.4v-8.3h1.3v1.3h0c.3-.5.7-.9,1.1-1.1.4-.2,1-.4,1.6-.4v.2ZM53.6,382.1c1,0,1.7.3,2.2.8.4.5.7,1.2.7,2.2v5.5h-1.4v-5.7c0-.5-.2-.9-.5-1.2-.3-.3-.7-.5-1.2-.5-.8,0-1.4.2-1.8.7-.4.5-.6,1.1-.6,1.8v4.7h-1.4v-8.3h1.3v1.3h0c.3-.5.7-.9,1.1-1.1.4-.2,1-.4,1.6-.4v.2ZM62,382.1c1.2,0,2.1.4,2.8,1.3.7.9,1,2,1,3.3v.2h-6.2c0,.9.2,1.5.7,2s1.1.7,1.9.7,1.1-.1,1.4-.4c.4-.3.6-.7.7-1.2h1.3c-.2.9-.6,1.6-1.2,2.1-.6.5-1.4.7-2.3.7s-1.6-.2-2.2-.6c-.6-.4-1.1-.9-1.3-1.6-.3-.7-.4-1.4-.4-2.2,0-1.2.4-2.2,1.1-3,.7-.8,1.7-1.2,2.8-1.2h0ZM59.5,385.6h4.8c0-.7-.3-1.2-.7-1.7-.4-.4-1-.7-1.7-.7s-1.2.2-1.6.6c-.4.4-.7,1-.8,1.7h0ZM68.6,379.1v11.4h-1.4v-11.4h1.4ZM79.2,378.8c1.3,0,2.3.3,3,.9.8.6,1.1,1.5,1.2,2.7h-1.4c0-.8-.4-1.4-.8-1.8-.5-.4-1.1-.6-2-.6s-1.4.2-1.9.5c-.4.3-.7.8-.7,1.4s.2.8.6,1.1c.4.3,1.4.6,3.1.9,1.2.2,2.1.6,2.7,1.2.6.5.9,1.2.9,2.1s-.4,1.9-1.3,2.5-1.9.9-3.2.9-2.5-.3-3.4-1-1.3-1.7-1.3-3h1.4c0,.9.3,1.6.9,2,.6.5,1.4.7,2.4.7s1.6-.2,2.1-.5c.5-.4.8-.9.8-1.5s-.2-1-.7-1.3-1.3-.6-2.5-.8c-1.6-.3-2.7-.7-3.3-1.2-.6-.5-.8-1.1-.8-1.9s.4-1.8,1.2-2.4c.8-.6,1.8-.9,3-.9h0ZM88.9,382.1c1.2,0,2.1.4,2.8,1.3.7.9,1,2,1,3.3v.2h-6.2c0,.9.2,1.5.7,2s1.1.7,1.9.7,1.1-.1,1.4-.4c.4-.3.6-.7.7-1.2h1.3c-.2.9-.6,1.6-1.2,2.1s-1.4.7-2.3.7-1.6-.2-2.2-.6-1.1-.9-1.3-1.6c-.3-.7-.4-1.4-.4-2.2,0-1.2.4-2.2,1.1-3s1.7-1.2,2.8-1.2h-.1ZM86.5,385.6h4.8c0-.7-.3-1.2-.7-1.7-.4-.4-1-.7-1.7-.7s-1.2.2-1.6.6-.7,1-.8,1.7h0ZM97.5,382.1c1,0,1.8.2,2.5.7.6.5,1,1.2,1.1,2.1h-1.4c0-.5-.3-.9-.7-1.2-.4-.3-.8-.4-1.3-.4-.8,0-1.5.3-1.9.8s-.7,1.4-.7,2.4.2,1.7.6,2.2,1,.8,1.8.8,1.2-.2,1.6-.5c.4-.4.6-.8.7-1.5h1.4c0,1-.5,1.8-1.2,2.4s-1.5.8-2.5.8-2.2-.4-2.8-1.1c-.7-.8-1-1.8-1-3.1s.3-2.4,1-3.2c.7-.8,1.7-1.2,2.9-1.2h0ZM106.8,382.1h.2v1.4c-1,0-1.8.3-2.3.8s-.7,1.4-.7,2.5v3.7h-1.4v-8.3h1.3v1.8h0c.3-.7.7-1.1,1.2-1.5.5-.3,1-.5,1.7-.5h0ZM111.2,382.1c1.2,0,2.1.4,2.8,1.3.7.9,1,2,1,3.3v.2h-6.2c0,.9.2,1.5.7,2s1.1.7,1.9.7,1.1-.1,1.4-.4c.4-.3.6-.7.7-1.2h1.3c-.2.9-.6,1.6-1.2,2.1s-1.4.7-2.3.7-1.6-.2-2.2-.6-1.1-.9-1.3-1.6c-.3-.7-.4-1.4-.4-2.2,0-1.2.4-2.2,1.1-3s1.7-1.2,2.8-1.2h-.1ZM108.7,385.6h4.8c0-.7-.3-1.2-.7-1.7-.4-.4-1-.7-1.7-.7s-1.2.2-1.6.6-.7,1-.8,1.7h0ZM118.2,379.8v2.5h1.6v1.2h-1.6v5.2c0,.4,0,.6.4.7h1.3v1.2h-1.1c-.7,0-1.2-.1-1.5-.4-.2-.3-.4-.7-.4-1.3v-5.3h-1.4v-1.2h1.4v-2.5h1.4-.1ZM123.4,388.8v1.7c0,.6,0,1.1-.4,1.5s-.7.7-1.3.9v-.8c.3-.1.5-.3.7-.5.2-.3.3-.6.3-.9h-1v-1.8h1.8,0Z"/>
  <path d="M36.9,398.3v1.3h-3.8v10.1h-1.5v-10.1h-3.8v-1.3h9.1ZM39.6,398.3v1.7h-1.4v-1.7h1.4ZM39.6,401.5v8.3h-1.4v-8.3h1.4ZM45.7,401.3c.6,0,1.1.1,1.5.4.4.2.7.6.8,1,.3-.4.6-.8,1.1-1s1-.4,1.5-.4c.9,0,1.6.2,2.1.6.4.4.7,1,.7,1.7v6.1h-1.4v-5.5c0-.6,0-1-.4-1.3-.2-.3-.7-.5-1.2-.5s-1.2.2-1.6.6c-.4.4-.6.9-.6,1.5v5.2h-1.4v-5.5c0-.6,0-1-.4-1.3-.2-.3-.6-.5-1.2-.5s-.8.1-1.1.3c-.3.2-.6.5-.8.9s-.3.7-.3.9v5.2h-1.4v-8.3h1.3v1.2h0c.3-.5.7-.8,1.1-1,.4-.2,1-.4,1.5-.4h.2ZM58.8,401.3c1.2,0,2.1.4,2.8,1.3s1,2,1,3.3v.2h-6.2c0,.9.2,1.5.7,2s1.1.7,1.9.7,1.1-.1,1.4-.4c.4-.3.6-.7.7-1.2h1.3c-.2.9-.6,1.6-1.2,2.1-.6.5-1.4.7-2.3.7s-1.6-.2-2.2-.6c-.6-.4-1.1-.9-1.3-1.6-.3-.7-.4-1.4-.4-2.2,0-1.2.4-2.2,1.1-3,.7-.8,1.7-1.2,2.8-1.2h0ZM56.3,404.8h4.8c0-.7-.3-1.2-.7-1.7-.4-.4-1-.7-1.7-.7s-1.2.2-1.6.6c-.4.4-.7,1-.8,1.7h0ZM66.7,401.3c1.1,0,1.9.2,2.5.7.5.4.8,1.1.9,1.9h-1.4c0-.5-.2-.8-.6-1-.3-.2-.8-.4-1.3-.4s-1,0-1.3.3c-.3.2-.5.4-.5.8s0,.6.4.8c.3.2.7.3,1.3.5l1.3.3c.8.2,1.4.5,1.8.8.4.4.6.9.6,1.5s-.3,1.5-1,1.9c-.6.5-1.5.7-2.6.7s-1.9-.2-2.5-.7-.9-1.2-1-2.1h1.4c0,.5.2.9.6,1.2.4.3.9.4,1.6.4s1.2-.1,1.5-.3c.3-.2.5-.5.5-.9s-.2-.7-.5-.9c-.3-.2-1-.4-2.1-.6-1-.2-1.8-.5-2.2-.9s-.6-.9-.6-1.5.3-1.3.9-1.7c.6-.4,1.3-.6,2.2-.6v-.2ZM73.8,399v2.5h1.6v1.2h-1.6v5.2c0,.4,0,.6.4.7h1.3v1.2h-1.1c-.7,0-1.2-.1-1.5-.4-.2-.3-.4-.7-.4-1.3v-5.3h-1.4v-1.2h1.4v-2.5h1.4-.1ZM80.4,401.3c1.1,0,1.9.2,2.4.6s.7.9.7,1.6v4.8c0,.3,0,.5.4.5s0,0,.2,0h.2v1.1c0,0-.3.1-.4.2h-.5c-.4,0-.7-.1-.9-.3-.2-.2-.3-.5-.3-1-.4.4-.8.8-1.3,1s-1,.3-1.6.3-1.5-.2-2-.6-.7-1-.7-1.7.2-1.3.7-1.8c.5-.4,1.6-.8,3.4-1,.6,0,1-.2,1.2-.3.2-.2.3-.4.3-.7,0-.5,0-.8-.4-1s-.8-.3-1.4-.3-1.2.1-1.5.4c-.3.2-.5.6-.5,1.2h-1.4c0-.9.4-1.6,1-2.1s1.4-.7,2.5-.7v-.2ZM78,407.5c0,.4,0,.7.4.9.3.2.7.3,1.2.3.8,0,1.4-.2,1.8-.6.5-.4.7-.8.7-1.3v-1.4c-.2.2-.5.3-.9.3s-.8.1-1.5.2c-.6,0-1.1.2-1.3.5-.3.2-.4.6-.4,1h0ZM89.6,401.3c.6,0,1.1.1,1.5.4.4.2.7.6.8,1,.3-.4.6-.8,1.1-1s1-.4,1.5-.4c.9,0,1.6.2,2.1.6.4.4.7,1,.7,1.7v6.1h-1.4v-5.5c0-.6,0-1-.4-1.3-.2-.3-.7-.5-1.2-.5s-1.2.2-1.6.6-.6.9-.6,1.5v5.2h-1.4v-5.5c0-.6,0-1-.4-1.3-.2-.3-.6-.5-1.2-.5s-.8.1-1.1.3c-.3.2-.6.5-.8.9-.2.4-.3.7-.3.9v5.2h-1.4v-8.3h1.3v1.2h0c.3-.5.7-.8,1.1-1s1-.4,1.5-.4h.2ZM103.3,401.3c1.2,0,2.1.4,2.8,1.2.7.8,1,1.9,1,3.1s-.3,2.3-1,3.1c-.7.8-1.6,1.2-2.8,1.2s-1-.1-1.5-.3c-.5-.2-.9-.5-1.2-1h0v4.3h-1.4v-11.5h1.4v1.1h0c.2-.4.5-.8,1-1s1-.3,1.6-.3h0ZM100.6,405.6c0,1,.2,1.7.7,2.3.5.6,1.1.8,1.9.8s1.4-.3,1.8-.8c.4-.6.7-1.3.7-2.3s-.2-1.6-.7-2.2c-.4-.6-1.1-.9-1.9-.9s-1.4.3-1.9.9c-.4.6-.7,1.3-.7,2.2h0Z"/>
  <path class="st8" d="M134.6,394.4h46.6"/>
  <path class="st3" d="M134.6,394.4h34.6"/>
  <path class="st2" d="M169.2,397.7l9.1-3.3-9.1-3.3v6.6h0Z"/>
  <path class="st8" d="M110.2.8h98.8v56.7h-98.8s0-56.7,0-56.7Z"/>
  <path d="M133.5,22.6v2.5h-7v2.9h6.5v2.3h-6.5v3.3h7.2v2.5h-10.1v-13.3h10v-.2ZM140.9,26c1.2,0,2.1.3,2.7.9.6.6.8,1.6.8,2.9v6h-2.7v-5.5c0-.8-.1-1.3-.4-1.7-.3-.4-.7-.6-1.3-.6s-1.3.2-1.6.7c-.3.4-.5,1.1-.5,2v5.1h-2.6v-9.6h2.5v1.3h0c.3-.5.7-.9,1.2-1.2.5-.3,1.1-.4,1.7-.4h.2ZM151,26c1.2,0,2.3.3,3.2,1,.9.6,1.3,1.5,1.4,2.7h-2.6c0-.6-.3-1-.6-1.2-.3-.3-.8-.4-1.3-.4s-1.3.3-1.7.9-.6,1.3-.6,2.3.2,1.7.6,2.2c.4.6.9.8,1.6.8s1.1-.2,1.4-.5c.4-.3.6-.8.7-1.5h2.5c-.2,1.3-.7,2.3-1.5,3s-1.9,1-3.1,1-2.6-.5-3.5-1.4-1.4-2.1-1.4-3.6.4-2.8,1.3-3.8c.9-1,2.1-1.5,3.6-1.5h0ZM161.8,26c1.5,0,2.7.5,3.6,1.4.9.9,1.4,2.2,1.4,3.7s-.5,2.8-1.4,3.7c-.9.9-2.1,1.4-3.6,1.4s-2.7-.5-3.6-1.4c-.9-.9-1.4-2.2-1.4-3.7s.4-2.8,1.3-3.7c.9-.9,2.1-1.4,3.6-1.4h0ZM159.5,31.1c0,1,.2,1.8.6,2.3.4.5,1,.8,1.7.8s1.3-.3,1.8-.8c.4-.5.6-1.3.6-2.3s-.2-1.7-.6-2.3c-.4-.6-1-.8-1.8-.8s-1.3.3-1.7.8-.6,1.3-.6,2.3ZM177.9,22.6v13.3h-2.5v-1.2h0c-.3.5-.7.9-1.2,1.1-.5.2-1.1.4-1.8.4-1.3,0-2.4-.5-3.2-1.5s-1.2-2.2-1.2-3.7.4-2.6,1.2-3.6c.8-.9,1.8-1.4,3.1-1.4s1.2.1,1.6.4c.5.2.9.6,1.2,1.1h0v-4.8h2.8ZM170.8,31c0,.9.2,1.7.6,2.2.4.6,1,.9,1.7.9s1.3-.3,1.7-.8.6-1.3.6-2.3-.2-1.7-.6-2.2c-.4-.6-1-.8-1.7-.8s-1.3.3-1.7.8-.6,1.3-.6,2.2ZM184.4,26c1.4,0,2.6.5,3.4,1.5.9,1,1.3,2.2,1.3,3.8v.5h-7c0,.8.3,1.5.7,1.9s1,.6,1.7.6.9,0,1.3-.4c.4-.2.7-.5.8-.9h2.3c-.4,1.1-.9,1.9-1.7,2.5-.8.5-1.7.8-2.9.8s-2.7-.5-3.6-1.4c-.9-.9-1.3-2.2-1.3-3.7s.5-2.6,1.4-3.6,2.1-1.5,3.6-1.5h0ZM182.1,30h4.3c-.1-.7-.4-1.2-.7-1.5s-.8-.5-1.4-.5-1.2.2-1.5.5-.6.9-.7,1.5h0ZM196.3,26h.6v2.5h-.9c-.9,0-1.6.3-2,.8s-.6,1.3-.6,2.2v4.4h-2.6v-9.6h2.5v1.8h0c.3-.6.7-1.1,1.2-1.5.6-.4,1.2-.6,1.8-.6Z"/>
  <path class="st8" d="M478.2.8h98.8v56.7h-98.8V.8h0Z"/>
  <path d="M496.7,22.6c1.8,0,3.2.6,4.3,1.7,1.1,1.2,1.7,2.8,1.7,4.8s-.5,3.7-1.6,4.9-2.5,1.8-4.3,1.8h-5.8v-13.3h5.8-.1ZM496.5,33.4c.9,0,1.7-.3,2.3-1,.6-.7.9-1.7.9-3s-.3-2.6-1-3.3c-.6-.7-1.6-1-2.8-1h-2.2v8.4h2.8ZM508.9,26c1.4,0,2.6.5,3.4,1.5.9,1,1.3,2.2,1.3,3.8v.5h-7c0,.8.3,1.5.7,1.9.4.4,1,.6,1.7.6s.9,0,1.3-.4c.4-.2.7-.5.8-.9h2.3c-.4,1.1-.9,1.9-1.7,2.5-.8.5-1.7.8-2.9.8s-2.7-.5-3.6-1.4-1.3-2.2-1.3-3.7.5-2.6,1.4-3.6,2.1-1.5,3.6-1.5h0ZM506.6,30h4.3c-.1-.7-.4-1.2-.7-1.5-.3-.3-.8-.5-1.4-.5s-1.2.2-1.5.5-.6.9-.7,1.5h0ZM519.7,26c1.2,0,2.3.3,3.2,1s1.3,1.5,1.4,2.7h-2.6c0-.6-.3-1-.6-1.2-.3-.3-.8-.4-1.3-.4s-1.3.3-1.7.9-.6,1.3-.6,2.3.2,1.7.6,2.2c.4.6.9.8,1.6.8s1.1-.2,1.4-.5.6-.8.7-1.5h2.5c-.2,1.3-.7,2.3-1.5,3s-1.9,1-3.1,1-2.6-.5-3.5-1.4-1.4-2.1-1.4-3.6.4-2.8,1.3-3.8c.9-1,2.1-1.5,3.6-1.5h0ZM530.5,26c1.5,0,2.7.5,3.6,1.4.9.9,1.4,2.2,1.4,3.7s-.5,2.8-1.4,3.7c-.9.9-2.1,1.4-3.6,1.4s-2.7-.5-3.6-1.4-1.4-2.2-1.4-3.7.4-2.8,1.3-3.7c.9-.9,2.1-1.4,3.6-1.4h.1ZM528.2,31.1c0,1,.2,1.8.6,2.3.4.5,1,.8,1.7.8s1.3-.3,1.8-.8c.4-.5.6-1.3.6-2.3s-.2-1.7-.6-2.3-1-.8-1.8-.8-1.3.3-1.7.8-.6,1.3-.6,2.3ZM546.6,22.6v13.3h-2.5v-1.2h0c-.3.5-.7.9-1.2,1.1s-1.1.4-1.8.4c-1.3,0-2.4-.5-3.2-1.5s-1.2-2.2-1.2-3.7.4-2.6,1.2-3.6c.8-.9,1.8-1.4,3.1-1.4s1.2.1,1.6.4c.5.2.9.6,1.2,1.1h0v-4.8h2.8ZM539.5,31c0,.9.2,1.7.6,2.2s1,.9,1.7.9,1.3-.3,1.7-.8.6-1.3.6-2.3-.2-1.7-.6-2.2c-.4-.6-1-.8-1.7-.8s-1.3.3-1.7.8-.6,1.3-.6,2.2ZM553.1,26c1.4,0,2.6.5,3.4,1.5.9,1,1.3,2.2,1.3,3.8v.5h-7c0,.8.3,1.5.7,1.9s1,.6,1.7.6.9,0,1.3-.4c.4-.2.7-.5.8-.9h2.3c-.4,1.1-.9,1.9-1.7,2.5-.8.5-1.7.8-2.9.8s-2.7-.5-3.6-1.4c-.9-.9-1.3-2.2-1.3-3.7s.5-2.6,1.4-3.6,2.1-1.5,3.6-1.5h0ZM550.8,30h4.3c0-.7-.4-1.2-.7-1.5s-.8-.5-1.4-.5-1.2.2-1.5.5-.6.9-.7,1.5h0ZM564.9,26h.6v2.5h-.9c-.9,0-1.6.3-2,.8s-.6,1.3-.6,2.2v4.4h-2.6v-9.6h2.5v1.8h0c.3-.6.7-1.1,1.2-1.5.6-.4,1.2-.6,1.8-.6Z"/>
  <path class="st8" d="M629.7,253.2l-142.6,48"/>
  <path class="st3" d="M629.7,253.2l-131.2,44.2"/>
  <path class="st2" d="M497.4,294.2l-7.5,6,9.7.2-2.1-6.3h-.1Z"/>
  <path class="st8" d="M167.6,191.1h110.6v39.7h-110.6v-39.7h0Z"/>
  <path d="M193.8,205.2v1.3h-6v3.6h5.2v1.3h-5.2v5.2h-1.5v-11.4h7.5ZM198.6,208.2h.2v1.4c-1,0-1.8.3-2.3.8s-.7,1.4-.7,2.5v3.7h-1.4v-8.3h1.3v1.8h0c.3-.7.7-1.1,1.2-1.5.5-.3,1-.5,1.7-.5h0ZM202.8,208.2c1.1,0,1.9.2,2.4.6.5.4.7.9.7,1.6v4.8c0,.3.1.5.4.5s.1,0,.2,0h.2v1.1c-.1,0-.3.1-.4.2h-.5c-.4,0-.7-.1-.9-.3s-.3-.5-.3-1c-.4.4-.8.8-1.3,1s-1,.3-1.6.3-1.5-.2-2-.6c-.5-.4-.7-1-.7-1.7s.2-1.3.7-1.8c.5-.4,1.6-.8,3.4-1,.6,0,1-.2,1.2-.3.2-.2.3-.4.3-.7,0-.5-.1-.8-.4-1-.3-.2-.8-.3-1.4-.3s-1.2.1-1.5.4c-.3.2-.5.6-.5,1.2h-1.4c0-.9.4-1.6,1-2.1s1.4-.7,2.5-.7v-.2ZM200.4,214.4c0,.4.1.7.4.9.3.2.7.3,1.2.3.8,0,1.4-.2,1.8-.6.5-.4.7-.8.7-1.3v-1.4c-.2.2-.5.3-.9.3s-.8.1-1.5.2c-.6,0-1.1.2-1.3.5-.3.2-.4.6-.4,1h0ZM212,208.2c.6,0,1.1.1,1.5.4.4.2.7.6.8,1,.3-.4.6-.8,1.1-1s1-.4,1.5-.4c.9,0,1.6.2,2.1.6.4.4.7,1,.7,1.7v6.1h-1.4v-5.5c0-.6-.1-1-.4-1.3-.2-.3-.7-.5-1.2-.5s-1.2.2-1.6.6-.6.9-.6,1.5v5.2h-1.4v-5.5c0-.6-.1-1-.4-1.3-.2-.3-.6-.5-1.2-.5s-.8.1-1.1.3-.6.5-.8.9-.3.7-.3.9v5.2h-1.4v-8.3h1.3v1.2h0c.3-.5.7-.8,1.1-1,.4-.2,1-.4,1.5-.4h.2ZM225.1,208.2c1.2,0,2.1.4,2.8,1.3.7.9,1,2,1,3.3v.2h-6.2c0,.9.2,1.5.7,2s1.1.7,1.9.7,1.1-.1,1.4-.4c.4-.3.6-.7.7-1.2h1.3c-.2.9-.6,1.6-1.2,2.1-.6.5-1.4.7-2.3.7s-1.6-.2-2.2-.6c-.6-.4-1.1-.9-1.3-1.6-.3-.7-.4-1.4-.4-2.2,0-1.2.4-2.2,1.1-3,.7-.8,1.7-1.2,2.8-1.2h-.1ZM222.7,211.7h4.8c0-.7-.3-1.2-.7-1.7-.4-.4-1-.7-1.7-.7s-1.2.2-1.6.6-.7,1-.8,1.7h0ZM236.5,205.2v5.7l5.8-5.7h2l-4.8,4.6,5,6.8h-1.9l-4.1-5.8-1.9,1.8v4h-1.5v-11.4h1.5-.1ZM248.6,208.2c1.2,0,2.1.4,2.8,1.3.7.9,1,2,1,3.3v.2h-6.2c0,.9.2,1.5.7,2s1.1.7,1.9.7,1.1-.1,1.4-.4c.4-.3.6-.7.7-1.2h1.3c-.2.9-.6,1.6-1.2,2.1-.6.5-1.4.7-2.3.7s-1.6-.2-2.2-.6c-.6-.4-1.1-.9-1.3-1.6-.3-.7-.4-1.4-.4-2.2,0-1.2.4-2.2,1.1-3,.7-.8,1.7-1.2,2.8-1.2h-.1ZM246.2,211.7h4.8c0-.7-.3-1.2-.7-1.7-.4-.4-1-.7-1.7-.7s-1.2.2-1.6.6-.7,1-.8,1.7h0ZM254.4,208.4l2.4,6.8h0l2.3-6.8h1.4l-3.5,9.2c-.4.9-.7,1.6-1.1,1.9-.3.3-.8.5-1.4.5s-.3,0-.5,0-.3,0-.5-.1v-1.2c.1,0,.3,0,.4.1h.4c.6,0,.9-.3,1.2-.8.2-.6.4-1,.5-1.3l-3.3-8.2h1.7Z"/>
  <path class="st8" d="M288.3,302.3h102.4"/>
  <path class="st3" d="M288.3,302.3h90.4"/>
  <path class="st2" d="M378.7,305.6l9.1-3.3-9.1-3.3v6.6h0Z"/>
  <path class="st8" d="M222.9,374.5v-23.4"/>
  <path class="st3" d="M222.9,374.5v-11.4"/>
  <path class="st2" d="M226.2,363.2l-3.3-9.1-3.3,9.1h6.6Z"/>
  <path class="st8" d="M222.9,230.7v17.7"/>
  <path class="st3" d="M222.9,230.7v5.7"/>
  <path class="st2" d="M219.6,236.4l3.3,9.1,3.3-9.1h-6.6Z"/>
</svg>