<?xml version="1.0" encoding="UTF-8"?>
<svg id="Layer_1" xmlns="http://www.w3.org/2000/svg" version="1.1" xmlns:xlink="http://www.w3.org/1999/xlink" viewBox="0 0 635.9 445.3">
  <!-- Generator: Adobe Illustrator 29.3.0, SVG Export Plug-In . SVG Version: 2.1.0 Build 146)  -->
  <defs>
    <style>
      .st0 {
        fill: #f4cccc;
      }

      .st0, .st1, .st2, .st3, .st4 {
        fill-rule: evenodd;
      }

      .st5 {
        stroke-dasharray: 8 6;
      }

      .st5, .st6, .st2, .st7 {
        stroke: #000;
      }

      .st5, .st6, .st7 {
        fill: none;
        stroke-linejoin: round;
      }

      .st5, .st2, .st7 {
        stroke-width: 2px;
      }

      .st1 {
        fill: #d9ead3;
      }

      .st2 {
        stroke-miterlimit: 10;
      }

      .st3 {
        fill: #fff2cc;
      }

      .st4 {
        fill-opacity: 0;
      }
    </style>
  </defs>
  <path class="st0" d="M.5,174.1h0c0-9.5,7.7-17.2,17.2-17.2h125c4.6,0,8.9,1.8,12.1,5,3.2,3.2,5,7.6,5,12.1v68.6c0,9.5-7.7,17.2-17.2,17.2H17.7c-9.5,0-17.2-7.7-17.2-17.2v-68.6Z"/>
  <path class="st6" d="M.5,174.1h0c0-9.5,7.7-17.2,17.2-17.2h125c4.6,0,8.9,1.8,12.1,5,3.2,3.2,5,7.6,5,12.1v68.6c0,9.5-7.7,17.2-17.2,17.2H17.7c-9.5,0-17.2-7.7-17.2-17.2v-68.6Z"/>
  <path d="M29.3,191c1.6,0,2.8.3,3.3,1,.6.7.9,1.4.9,2.2s-.2,1.3-.5,1.8c-.3.5-.8.9-1.5,1.2h0c.8.2,1.4.6,1.9,1.2.4.6.7,1.3.7,2.1s-.4,2-1.1,2.7c-.8.7-1.7,1.1-2.8,1.1h-6.5v-13.3h5.7ZM29,196.7c.9,0,1.6-.2,2-.5.5-.3.7-.9.7-1.6s-.2-1.2-.6-1.6c-.4-.4-1.1-.5-2.1-.5h-3.7v4.2h3.6ZM29.8,202.8c.7,0,1.3-.2,1.8-.6.5-.4.7-1,.7-1.7s-.3-1.3-.8-1.7c-.5-.4-1.2-.6-2.2-.6h-4v4.6h4.5ZM40,194.5c1.3,0,2.2.2,2.8.7.6.5.8,1.1.8,1.9v5.6c0,.4.2.5.5.5s.2,0,.2,0c0,0,.2,0,.2,0v1.2c-.1,0-.3.1-.5.2-.2,0-.4,0-.6,0-.4,0-.8-.1-1-.4-.2-.2-.3-.6-.3-1.1-.4.5-.9.9-1.5,1.1-.6.2-1.2.4-1.9.4s-1.8-.2-2.3-.7c-.6-.5-.8-1.2-.8-2s.3-1.5.8-2c.6-.5,1.9-.9,3.9-1.2.7,0,1.2-.2,1.4-.4.2-.2.4-.4.4-.8,0-.5-.2-.9-.5-1.2-.3-.3-.9-.4-1.6-.4s-1.4.2-1.8.5c-.4.3-.6.8-.6,1.4h-1.6c0-1.1.4-1.9,1.1-2.4.7-.5,1.7-.8,3-.8ZM37.2,201.7c0,.4.2.8.5,1,.3.2.8.4,1.4.4.9,0,1.6-.2,2.1-.7.5-.4.8-.9.8-1.5v-1.7c-.3.2-.6.3-1,.4-.4,0-1,.1-1.7.2-.7.1-1.2.3-1.6.6s-.5.7-.5,1.2ZM49.3,194.5c1.3,0,2.3.2,2.9.8.6.5,1,1.3,1,2.3h-1.6c0-.5-.3-.9-.7-1.2-.4-.3-.9-.4-1.6-.4s-1.1.1-1.5.3c-.4.2-.5.5-.5.9s.2.6.5.9c.3.2.8.4,1.5.5l1.5.3c.9.2,1.6.5,2.1,1,.5.4.7,1,.7,1.7s-.4,1.7-1.1,2.2c-.7.5-1.7.8-3,.8s-2.2-.3-3-.8c-.7-.6-1.1-1.4-1.1-2.5h1.6c0,.6.3,1.1.7,1.4.5.3,1.1.5,1.9.5s1.4-.1,1.8-.4c.4-.2.6-.6.6-1.1s-.2-.8-.6-1c-.4-.2-1.2-.5-2.4-.7-1.2-.2-2.1-.6-2.6-1-.5-.4-.7-1-.7-1.7s.3-1.5,1-2,1.6-.7,2.6-.7ZM59.4,194.5c1.4,0,2.5.5,3.2,1.5.8,1,1.2,2.3,1.2,3.8v.2h-7.2c0,1,.3,1.8.8,2.3.5.6,1.3.8,2.2.8s1.3-.2,1.7-.5c.4-.3.7-.8.8-1.4h1.6c-.2,1.1-.7,1.9-1.4,2.5s-1.6.8-2.7.8-1.9-.2-2.6-.7c-.7-.5-1.2-1.1-1.5-1.9-.3-.8-.5-1.7-.5-2.5,0-1.4.4-2.6,1.3-3.6.9-.9,1.9-1.4,3.2-1.4ZM56.6,198.6h5.5c0-.8-.3-1.4-.9-1.9-.5-.5-1.2-.8-1.9-.8s-1.4.2-1.9.7c-.5.5-.8,1.2-.9,2ZM76.6,190.7c1.5,0,2.7.4,3.7,1.2,1,.8,1.6,1.8,1.8,3.2h-1.8c-.2-.9-.6-1.6-1.3-2.1-.7-.5-1.5-.7-2.4-.7-1.4,0-2.5.5-3.3,1.5-.8,1-1.2,2.3-1.2,3.9,0,1.7.4,3.1,1.2,4.1.8,1,1.9,1.5,3.4,1.5s2-.3,2.7-1c.7-.7,1.1-1.6,1.2-2.8h1.8c-.2,1.7-.8,3-1.8,4-1,.9-2.3,1.4-4,1.4s-3.4-.6-4.5-1.9c-1.1-1.3-1.6-2.9-1.6-5,0-2.1.6-3.8,1.7-5.1,1.1-1.3,2.7-2,4.6-2ZM85.7,191v5.1h0c.2-.5.6-.9,1.2-1.2.6-.3,1.2-.4,1.9-.4,1.2,0,2,.3,2.5.9.5.6.8,1.4.8,2.5v6.4h-1.6v-6.6c0-.5-.2-1-.5-1.3-.3-.4-.8-.5-1.4-.5-.9,0-1.6.3-2.1.8-.5.5-.8,1.2-.8,2.1v5.5h-1.6v-13.3h1.6ZM98.4,194.5c1.3,0,2.2.2,2.8.7.6.5.8,1.1.8,1.9v5.6c0,.4.2.5.5.5s.2,0,.2,0c0,0,.2,0,.2,0v1.2c-.1,0-.3.1-.5.2-.2,0-.4,0-.6,0-.4,0-.8-.1-1-.4s-.3-.6-.3-1.1c-.4.5-.9.9-1.5,1.1-.6.2-1.2.4-1.9.4s-1.8-.2-2.3-.7c-.6-.5-.8-1.2-.8-2s.3-1.5.8-2c.6-.5,1.9-.9,3.9-1.2.7,0,1.2-.2,1.4-.4.2-.2.4-.4.4-.8,0-.5-.2-.9-.5-1.2-.3-.3-.9-.4-1.6-.4s-1.4.2-1.8.5c-.4.3-.6.8-.6,1.4h-1.6c0-1.1.4-1.9,1.1-2.4.7-.5,1.7-.8,3-.8ZM95.6,201.7c0,.4.2.8.5,1,.3.2.8.4,1.4.4.9,0,1.6-.2,2.1-.7.5-.4.8-.9.8-1.5v-1.7c-.3.2-.6.3-1,.4-.4,0-1,.1-1.7.2-.7.1-1.2.3-1.6.6s-.5.7-.5,1.2ZM109.2,194.5c1.2,0,2,.3,2.5.9.5.6.8,1.4.8,2.5v6.4h-1.6v-6.6c0-.5-.2-1-.5-1.3-.3-.4-.8-.5-1.4-.5-.9,0-1.6.3-2.1.8-.5.5-.8,1.2-.8,2.1v5.5h-1.6v-9.6h1.5v1.5h0c.4-.6.8-1,1.3-1.3.5-.3,1.1-.4,1.8-.4ZM119.5,194.5c1.2,0,2,.3,2.5.9.5.6.8,1.4.8,2.5v6.4h-1.6v-6.6c0-.5-.2-1-.5-1.3-.3-.4-.8-.5-1.4-.5-.9,0-1.6.3-2.1.8-.5.5-.8,1.2-.8,2.1v5.5h-1.6v-9.6h1.5v1.5h0c.4-.6.8-1,1.3-1.3.5-.3,1.1-.4,1.8-.4ZM129.3,194.5c1.4,0,2.5.5,3.2,1.5.8,1,1.2,2.3,1.2,3.8v.2h-7.2c0,1,.3,1.8.8,2.3.5.6,1.3.8,2.2.8s1.3-.2,1.7-.5c.4-.3.7-.8.8-1.4h1.6c-.2,1.1-.7,1.9-1.4,2.5-.7.6-1.6.8-2.7.8s-1.9-.2-2.6-.7c-.7-.5-1.2-1.1-1.5-1.9-.3-.8-.5-1.7-.5-2.5,0-1.4.4-2.6,1.3-3.6.9-.9,1.9-1.4,3.2-1.4ZM126.4,198.6h5.5c0-.8-.3-1.4-.9-1.9-.5-.5-1.2-.8-1.9-.8s-1.4.2-1.9.7c-.5.5-.8,1.2-.9,2ZM137,191v13.3h-1.6v-13.3h1.6Z"/>
  <path d="M59.2,212.7c1.5,0,2.7.4,3.5,1.1.9.7,1.3,1.8,1.4,3.1h-1.7c-.1-.9-.4-1.6-1-2-.6-.5-1.3-.7-2.3-.7s-1.7.2-2.2.6c-.5.4-.8.9-.8,1.7s.2.9.7,1.3c.4.3,1.7.7,3.6,1.1,1.4.3,2.5.7,3.2,1.3.7.6,1.1,1.4,1.1,2.5s-.5,2.2-1.5,2.9c-1,.7-2.2,1-3.7,1s-2.9-.4-4-1.2c-1-.8-1.5-2-1.5-3.5h1.7c0,1,.4,1.8,1.1,2.4.7.6,1.7.8,2.8.8s1.9-.2,2.5-.6c.6-.4.9-1,.9-1.8s-.3-1.1-.8-1.5c-.5-.4-1.5-.7-2.9-1-1.9-.4-3.2-.8-3.8-1.4-.6-.6-1-1.3-1-2.2s.5-2.1,1.4-2.8c.9-.7,2.1-1.1,3.5-1.1ZM70.5,216.5c1.4,0,2.5.5,3.2,1.5.8,1,1.2,2.3,1.2,3.8v.2h-7.2c0,1,.3,1.8.8,2.3.5.6,1.3.8,2.2.8s1.3-.2,1.7-.5c.4-.3.7-.8.8-1.4h1.6c-.2,1.1-.7,1.9-1.4,2.5-.7.6-1.6.8-2.7.8s-1.9-.2-2.6-.7c-.7-.5-1.2-1.1-1.5-1.9-.3-.8-.5-1.7-.5-2.5,0-1.4.4-2.6,1.3-3.6.9-.9,1.9-1.4,3.2-1.4ZM67.7,220.6h5.5c0-.8-.3-1.4-.9-1.9-.5-.5-1.2-.8-1.9-.8s-1.4.2-1.9.7c-.5.5-.8,1.2-.9,2ZM80.5,216.5c1.2,0,2.1.3,2.9.8.7.6,1.2,1.4,1.3,2.5h-1.6c-.1-.6-.4-1.1-.8-1.4-.4-.3-.9-.5-1.6-.5-1,0-1.7.3-2.2,1-.5.7-.8,1.6-.8,2.8,0,1.1.3,1.9.8,2.6.5.6,1.2,1,2.1,1s1.4-.2,1.8-.6c.4-.4.7-1,.8-1.7h1.6c-.2,1.2-.6,2.1-1.4,2.8-.7.6-1.7,1-2.9,1s-2.5-.4-3.3-1.3c-.8-.9-1.2-2.1-1.2-3.6,0-1.6.4-2.8,1.2-3.8.8-.9,1.9-1.4,3.3-1.4ZM91.3,216.4h0s0,0,.1,0v1.7c-1.2,0-2.1.3-2.7,1-.6.6-.8,1.6-.8,2.9v4.3h-1.6v-9.6h1.5v2h0c.4-.8.8-1.3,1.4-1.7.6-.4,1.2-.6,2-.6ZM96.4,216.5c1.4,0,2.5.5,3.2,1.5.8,1,1.2,2.3,1.2,3.8v.2h-7.2c0,1,.3,1.8.8,2.3.5.6,1.3.8,2.2.8s1.3-.2,1.7-.5c.4-.3.7-.8.8-1.4h1.6c-.2,1.1-.7,1.9-1.4,2.5s-1.6.8-2.7.8-1.9-.2-2.6-.7c-.7-.5-1.2-1.1-1.5-1.9-.3-.8-.5-1.7-.5-2.5,0-1.4.4-2.6,1.3-3.6.9-.9,1.9-1.4,3.2-1.4ZM93.6,220.6h5.5c0-.8-.3-1.4-.9-1.9-.5-.5-1.2-.8-1.9-.8s-1.4.2-1.9.7c-.5.5-.8,1.2-.9,2ZM104.6,213.8v2.9h1.9v1.4h-1.9v6c0,.5.2.7.5.8.3,0,.7,0,1,0h.4v1.4h-1.3c-.9,0-1.5-.2-1.8-.5-.3-.3-.4-.8-.4-1.6v-6.2h-1.7v-1.4h1.7v-2.9h1.6Z"/>
  <path class="st1" d="M233.8,174.1h0c0-9.5,7.7-17.2,17.2-17.2h125c4.6,0,8.9,1.8,12.1,5,3.2,3.2,5,7.6,5,12.1v68.6c0,9.5-7.7,17.2-17.2,17.2h-125c-9.5,0-17.2-7.7-17.2-17.2v-68.6Z"/>
  <path class="st6" d="M233.8,174.1h0c0-9.5,7.7-17.2,17.2-17.2h125c4.6,0,8.9,1.8,12.1,5,3.2,3.2,5,7.6,5,12.1v68.6c0,9.5-7.7,17.2-17.2,17.2h-125c-9.5,0-17.2-7.7-17.2-17.2v-68.6Z"/>
  <path d="M256.6,201.7c1.5,0,2.7.4,3.7,1.2,1,.8,1.6,1.8,1.8,3.2h-1.8c-.2-.9-.6-1.6-1.3-2.1-.7-.5-1.5-.7-2.4-.7-1.4,0-2.5.5-3.3,1.5-.8,1-1.2,2.3-1.2,3.9,0,1.7.4,3.1,1.2,4.1.8,1,1.9,1.5,3.4,1.5s2-.3,2.7-1c.7-.7,1.1-1.6,1.2-2.8h1.8c-.2,1.7-.8,3-1.8,4-1,.9-2.3,1.4-4,1.4s-3.4-.6-4.5-1.9c-1.1-1.3-1.6-2.9-1.6-5,0-2.1.6-3.8,1.7-5.1,1.1-1.3,2.7-2,4.6-2ZM265.8,202v5.1h0c.2-.5.6-.9,1.2-1.2.6-.3,1.2-.4,1.9-.4,1.2,0,2,.3,2.5.9.5.6.8,1.4.8,2.5v6.4h-1.6v-6.6c0-.5-.2-1-.5-1.3-.3-.4-.8-.5-1.4-.5-.9,0-1.6.3-2.1.8-.5.5-.8,1.2-.8,2.1v5.5h-1.6v-13.3h1.6ZM278.5,205.5c1.3,0,2.2.2,2.8.7.6.5.8,1.1.8,1.9v5.6c0,.4.2.5.5.5s.2,0,.2,0c0,0,.2,0,.2,0v1.2c-.1,0-.3.1-.5.2-.2,0-.4,0-.6,0-.4,0-.8-.1-1-.4-.2-.2-.3-.6-.3-1.1-.4.5-.9.9-1.5,1.1-.6.2-1.2.4-1.9.4s-1.8-.2-2.3-.7c-.6-.5-.8-1.2-.8-2s.3-1.5.8-2c.6-.5,1.9-.9,3.9-1.2.7,0,1.2-.2,1.4-.4.2-.2.4-.4.4-.8,0-.5-.2-.9-.5-1.2-.3-.3-.9-.4-1.6-.4s-1.4.2-1.8.5c-.4.3-.6.8-.6,1.4h-1.6c0-1.1.4-1.9,1.1-2.4.7-.5,1.7-.8,3-.8ZM275.7,212.7c0,.4.2.8.5,1,.3.2.8.4,1.4.4.9,0,1.6-.2,2.1-.7.5-.4.8-.9.8-1.5v-1.7c-.3.2-.6.3-1,.4-.4,0-1,.1-1.7.2-.7.1-1.2.3-1.6.6s-.5.7-.5,1.2ZM289.3,205.5c1.2,0,2,.3,2.5.9.5.6.8,1.4.8,2.5v6.4h-1.6v-6.6c0-.5-.2-1-.5-1.3-.3-.4-.8-.5-1.4-.5-.9,0-1.6.3-2.1.8-.5.5-.8,1.2-.8,2.1v5.5h-1.6v-9.6h1.5v1.5h0c.4-.6.8-1,1.3-1.3.5-.3,1.1-.4,1.8-.4ZM299.6,205.5c1.2,0,2,.3,2.5.9.5.6.8,1.4.8,2.5v6.4h-1.6v-6.6c0-.5-.2-1-.5-1.3-.3-.4-.8-.5-1.4-.5-.9,0-1.6.3-2.1.8-.5.5-.8,1.2-.8,2.1v5.5h-1.6v-9.6h1.5v1.5h0c.4-.6.8-1,1.3-1.3.5-.3,1.1-.4,1.8-.4ZM309.4,205.5c1.4,0,2.5.5,3.2,1.5.8,1,1.2,2.3,1.2,3.8v.2h-7.2c0,1,.3,1.8.8,2.3.5.6,1.3.8,2.2.8s1.3-.2,1.7-.5c.4-.3.7-.8.8-1.4h1.6c-.2,1.1-.7,1.9-1.4,2.5s-1.6.8-2.7.8-1.9-.2-2.6-.7c-.7-.5-1.2-1.1-1.5-1.9-.3-.8-.5-1.7-.5-2.5,0-1.4.4-2.6,1.3-3.6.9-.9,1.9-1.4,3.2-1.4ZM306.5,209.6h5.5c0-.8-.3-1.4-.9-1.9-.5-.5-1.2-.8-1.9-.8s-1.4.2-1.9.7c-.5.5-.8,1.2-.9,2ZM317,202v13.3h-1.6v-13.3h1.6ZM329.4,201.7c1.5,0,2.7.4,3.5,1.1.9.7,1.3,1.8,1.4,3.1h-1.7c-.1-.9-.4-1.6-1-2-.6-.5-1.3-.7-2.3-.7s-1.7.2-2.2.6c-.5.4-.8.9-.8,1.7,0,.5.2.9.7,1.3.4.3,1.7.7,3.6,1.1,1.4.3,2.5.7,3.2,1.3.7.6,1.1,1.4,1.1,2.5,0,1.2-.5,2.2-1.5,2.9-1,.7-2.2,1-3.7,1s-2.9-.4-4-1.2c-1-.8-1.5-2-1.5-3.5h1.7c0,1,.4,1.8,1.1,2.4.7.6,1.7.8,2.8.8s1.9-.2,2.5-.6c.6-.4.9-1,.9-1.8,0-.6-.3-1.1-.8-1.5-.5-.4-1.5-.7-2.9-1-1.9-.4-3.2-.8-3.8-1.4-.6-.6-1-1.3-1-2.2,0-1.2.5-2.1,1.4-2.8.9-.7,2.1-1.1,3.5-1.1ZM340.8,205.5c1.4,0,2.5.5,3.2,1.5.8,1,1.2,2.3,1.2,3.8v.2h-7.2c0,1,.3,1.8.8,2.3.5.6,1.3.8,2.2.8s1.3-.2,1.7-.5c.4-.3.7-.8.8-1.4h1.6c-.2,1.1-.7,1.9-1.4,2.5s-1.6.8-2.7.8-1.9-.2-2.6-.7c-.7-.5-1.2-1.1-1.5-1.9-.3-.8-.5-1.7-.5-2.5,0-1.4.4-2.6,1.3-3.6.9-.9,1.9-1.4,3.2-1.4ZM337.9,209.6h5.5c0-.8-.3-1.4-.9-1.9-.5-.5-1.2-.8-1.9-.8s-1.4.2-1.9.7c-.5.5-.8,1.2-.9,2ZM350.8,205.5c1.2,0,2.1.3,2.9.8.7.6,1.2,1.4,1.3,2.5h-1.6c-.1-.6-.4-1.1-.8-1.4-.4-.3-.9-.5-1.6-.5-1,0-1.7.3-2.2,1-.5.7-.8,1.6-.8,2.8s.2,1.9.8,2.6c.5.6,1.2,1,2.1,1s1.4-.2,1.8-.6c.4-.4.7-1,.8-1.7h1.6c-.2,1.2-.6,2.1-1.4,2.8-.7.6-1.7,1-2.9,1s-2.5-.4-3.3-1.3c-.8-.9-1.2-2.1-1.2-3.6s.4-2.8,1.2-3.8c.8-.9,1.9-1.4,3.3-1.4ZM361.6,205.4h0s0,0,.1,0v1.7c-1.2,0-2.1.3-2.7,1-.6.6-.8,1.6-.8,2.9v4.3h-1.6v-9.6h1.5v2h0c.4-.8.8-1.3,1.4-1.7.6-.4,1.2-.6,2-.6ZM366.7,205.5c1.4,0,2.5.5,3.2,1.5.8,1,1.2,2.3,1.2,3.8v.2h-7.2c0,1,.3,1.8.8,2.3.5.6,1.3.8,2.2.8s1.3-.2,1.7-.5c.4-.3.7-.8.8-1.4h1.6c-.2,1.1-.7,1.9-1.4,2.5-.7.6-1.6.8-2.7.8s-1.9-.2-2.6-.7c-.7-.5-1.2-1.1-1.5-1.9-.3-.8-.5-1.7-.5-2.5,0-1.4.4-2.6,1.3-3.6.9-.9,1.9-1.4,3.2-1.4ZM363.8,209.6h5.5c0-.8-.3-1.4-.9-1.9-.5-.5-1.2-.8-1.9-.8s-1.4.2-1.9.7c-.5.5-.8,1.2-.9,2ZM374.9,202.8v2.9h1.9v1.4h-1.9v6c0,.5.2.7.5.8.3,0,.7,0,1,0h.4v1.4h-1.3c-.9,0-1.5-.2-1.8-.5-.3-.3-.4-.8-.4-1.6v-6.2h-1.7v-1.4h1.7v-2.9h1.6Z"/>
  <path class="st4" d="M313.5,137.1v19.8"/>
  <path class="st7" d="M313.5,137.1v7.8"/>
  <path class="st2" d="M310.2,144.9l3.3,9.1,3.3-9.1h-6.6Z"/>
  <path class="st4" d="M159.8,208.4h74"/>
  <path class="st7" d="M159.8,208.4h62"/>
  <path class="st2" d="M221.8,211.7l9.1-3.3-9.1-3.3v6.6Z"/>
  <path class="st4" d="M260.9,98.3h105v38.8h-105v-38.8Z"/>
  <path d="M282.8,118.7l1.5.4c-.3,1.2-.9,2.2-1.7,2.9-.8.7-1.8,1-3,1s-2.2-.2-3-.8c-.8-.5-1.4-1.2-1.8-2.2-.4-1-.6-2-.6-3.1s.2-2.2.7-3.1c.5-.9,1.1-1.6,1.9-2,.8-.5,1.8-.7,2.8-.7s2.1.3,2.9.9,1.3,1.4,1.6,2.5l-1.5.3c-.3-.8-.6-1.4-1.2-1.8-.5-.4-1.1-.6-1.9-.6s-1.6.2-2.2.6c-.6.4-1,1-1.2,1.7-.2.7-.4,1.4-.4,2.2s.1,1.8.4,2.6c.3.7.7,1.3,1.3,1.6.6.4,1.3.5,2,.5s1.6-.2,2.1-.7c.6-.5,1-1.2,1.2-2.2ZM286.1,122.7v-11.5h1.4v4.1c.7-.8,1.5-1.1,2.5-1.1s1.1.1,1.6.4c.5.2.8.6,1,1,.2.4.3,1,.3,1.9v5.3h-1.4v-5.3c0-.7-.2-1.2-.5-1.5-.3-.3-.7-.5-1.3-.5s-.8.1-1.2.3c-.4.2-.6.5-.8.9-.2.4-.2.9-.2,1.5v4.5h-1.4ZM300.4,121.7c-.5.4-1,.8-1.5,1-.5.2-1,.3-1.5.3-.9,0-1.6-.2-2.1-.7-.5-.4-.7-1-.7-1.7s0-.8.3-1.1c.2-.3.4-.6.7-.8.3-.2.6-.4,1-.5.3,0,.7-.1,1.2-.2,1.1-.1,2-.3,2.5-.5v-.4c0-.6-.1-1-.4-1.2-.4-.3-.9-.5-1.6-.5s-1.1.1-1.5.4c-.3.2-.5.6-.7,1.2l-1.4-.2c.1-.6.3-1.1.6-1.4.3-.4.7-.6,1.2-.8.5-.2,1.2-.3,1.9-.3s1.3,0,1.7.2c.4.2.8.4,1,.6.2.2.4.6.4,1,0,.2,0,.7,0,1.3v1.9c0,1.3,0,2.1,0,2.5,0,.3.2.7.4,1h-1.5c-.1-.3-.2-.6-.3-1ZM300.3,118.5c-.5.2-1.3.4-2.3.5-.6,0-1,.2-1.2.3-.2.1-.4.3-.6.5-.1.2-.2.4-.2.7,0,.4.1.7.4.9.3.2.7.4,1.2.4s1-.1,1.4-.3c.4-.2.7-.6.9-1,.2-.3.2-.8.2-1.4v-.5ZM303.9,122.7v-8.3h1.3v1.2c.6-.9,1.5-1.4,2.6-1.4s1,0,1.4.3c.4.2.7.4.9.7.2.3.4.6.4,1,0,.3,0,.7,0,1.4v5.1h-1.4v-5c0-.6,0-1-.2-1.3-.1-.3-.3-.5-.6-.7-.3-.2-.6-.2-1-.2-.6,0-1.1.2-1.6.6-.4.4-.6,1.1-.6,2.2v4.5h-1.4ZM312.8,122.7v-8.3h1.3v1.2c.6-.9,1.5-1.4,2.6-1.4s1,0,1.4.3c.4.2.7.4.9.7.2.3.4.6.4,1,0,.3,0,.7,0,1.4v5.1h-1.4v-5c0-.6,0-1-.2-1.3-.1-.3-.3-.5-.6-.7-.3-.2-.6-.2-1-.2-.6,0-1.1.2-1.6.6-.4.4-.6,1.1-.6,2.2v4.5h-1.4ZM327.3,120l1.5.2c-.2.9-.7,1.5-1.3,2-.6.5-1.4.7-2.4.7s-2.2-.4-2.9-1.1c-.7-.8-1.1-1.8-1.1-3.1s.4-2.5,1.1-3.2,1.7-1.2,2.8-1.2,2,.4,2.7,1.1c.7.8,1.1,1.8,1.1,3.2v.4h-6.2c0,.9.3,1.6.8,2.1.5.5,1,.7,1.7.7s1-.1,1.3-.4c.4-.3.7-.7.9-1.3ZM322.7,117.8h4.6c0-.7-.2-1.2-.5-1.6-.4-.5-1-.8-1.7-.8s-1.2.2-1.6.7c-.4.4-.7,1-.7,1.7ZM330.5,122.7v-11.5h1.4v11.5h-1.4ZM339,122.7v-11.5h1.5v11.5h-1.5ZM343.2,122.7v-11.5h4c.9,0,1.6,0,2,.2.7.2,1.2.4,1.7.8.6.5,1.1,1.2,1.3,2,.3.8.5,1.7.5,2.7s-.1,1.7-.3,2.3c-.2.7-.5,1.2-.8,1.7-.3.4-.7.8-1,1-.4.2-.8.4-1.4.6-.5.1-1.1.2-1.8.2h-4.1ZM344.7,121.3h2.5c.8,0,1.3,0,1.8-.2.4-.1.8-.3,1-.6.4-.4.6-.8.8-1.5.2-.6.3-1.3.3-2.2s-.2-2.1-.6-2.8c-.4-.6-.9-1.1-1.4-1.3-.4-.2-1.1-.2-2-.2h-2.4v8.8Z"/>
  <path class="st4" d="M393.1,208.4h51.9"/>
  <path class="st7" d="M393.1,208.4h39.9"/>
  <path class="st2" d="M433.1,211.7l9.1-3.3-9.1-3.3v6.6Z"/>
  <path class="st3" d="M445.1,174.1h0c0-9.5,7.7-17.2,17.2-17.2h125c4.6,0,8.9,1.8,12.1,5,3.2,3.2,5,7.6,5,12.1v68.6c0,9.5-7.7,17.2-17.2,17.2h-125c-9.5,0-17.2-7.7-17.2-17.2v-68.6Z"/>
  <path class="st6" d="M445.1,174.1h0c0-9.5,7.7-17.2,17.2-17.2h125c4.6,0,8.9,1.8,12.1,5,3.2,3.2,5,7.6,5,12.1v68.6c0,9.5-7.7,17.2-17.2,17.2h-125c-9.5,0-17.2-7.7-17.2-17.2v-68.6Z"/>
  <path d="M484.5,202c1.2,0,2.2.3,2.9,1,.7.7,1.1,1.6,1.1,2.9s-.4,2.3-1.1,2.9c-.7.7-1.6,1-2.8,1h-4.3v5.5h-1.8v-13.3h5.9ZM484.1,208.4c.8,0,1.5-.2,2-.6.5-.4.7-1,.7-1.8s-.2-1.4-.7-1.8-1.2-.6-2.1-.6h-3.6v4.9h3.7ZM492.2,202v1.9h-1.6v-1.9h1.6ZM492.2,205.7v9.6h-1.6v-9.6h1.6ZM498.6,205.5c1.2,0,2.1.3,2.9.8.7.6,1.2,1.4,1.3,2.5h-1.6c-.1-.6-.4-1.1-.8-1.4-.4-.3-.9-.5-1.6-.5-1,0-1.7.3-2.2,1s-.8,1.6-.8,2.8.2,1.9.8,2.6c.5.6,1.2,1,2.1,1s1.4-.2,1.8-.6c.4-.4.7-1,.8-1.7h1.6c-.2,1.2-.6,2.1-1.4,2.8-.7.6-1.7,1-2.9,1s-2.5-.4-3.3-1.3-1.2-2.1-1.2-3.6.4-2.8,1.2-3.8c.8-.9,1.9-1.4,3.3-1.4ZM506.8,202.8v2.9h1.9v1.4h-1.9v6c0,.5.2.7.5.8.3,0,.7,0,1,0h.4v1.4h-1.3c-.9,0-1.5-.2-1.8-.5-.3-.3-.4-.8-.4-1.6v-6.2h-1.7v-1.4h1.7v-2.9h1.6ZM512.1,205.7v6.6c0,.5.2,1,.5,1.4.4.4.8.5,1.5.5.9,0,1.6-.3,2.1-.8.5-.6.8-1.3.8-2.1v-5.5h1.6v9.6h-1.5v-1.5h0c-.4.6-.8,1.1-1.3,1.3s-1.1.4-1.8.4c-1.1,0-2-.3-2.5-.9-.5-.6-.8-1.4-.8-2.6v-6.4h1.6ZM525.7,205.4h0s0,0,.1,0v1.7c-1.2,0-2.1.3-2.7,1-.6.6-.8,1.6-.8,2.9v4.3h-1.6v-9.6h1.5v2h0c.4-.8.8-1.3,1.4-1.7.6-.4,1.2-.6,2-.6ZM530.8,205.5c1.4,0,2.5.5,3.2,1.5.8,1,1.2,2.3,1.2,3.8v.2h-7.2c0,1,.3,1.8.8,2.3.5.6,1.3.8,2.2.8s1.3-.2,1.7-.5c.4-.3.7-.8.8-1.4h1.6c-.2,1.1-.7,1.9-1.4,2.5s-1.6.8-2.7.8-1.9-.2-2.6-.7c-.7-.5-1.2-1.1-1.5-1.9-.3-.8-.5-1.7-.5-2.5,0-1.4.4-2.6,1.3-3.6.9-.9,1.9-1.4,3.2-1.4ZM527.9,209.6h5.5c0-.8-.3-1.4-.9-1.9-.5-.5-1.2-.8-1.9-.8s-1.4.2-1.9.7c-.5.5-.8,1.2-.9,2ZM544,202v6.6l6.8-6.6h2.3l-5.6,5.4,5.8,7.9h-2.2l-4.8-6.7-2.2,2.1v4.7h-1.8v-13.3h1.8ZM558.2,205.5c1.4,0,2.5.5,3.2,1.5.8,1,1.2,2.3,1.2,3.8v.2h-7.2c0,1,.3,1.8.8,2.3.5.6,1.3.8,2.2.8s1.3-.2,1.7-.5c.4-.3.7-.8.8-1.4h1.6c-.2,1.1-.7,1.9-1.4,2.5s-1.6.8-2.7.8-1.9-.2-2.6-.7c-.7-.5-1.2-1.1-1.5-1.9-.3-.8-.5-1.7-.5-2.5,0-1.4.4-2.6,1.3-3.6.9-.9,1.9-1.4,3.2-1.4ZM555.3,209.6h5.5c0-.8-.3-1.4-.9-1.9-.5-.5-1.2-.8-1.9-.8s-1.4.2-1.9.7c-.5.5-.8,1.2-.9,2ZM564.9,205.7l2.8,7.9h0l2.7-7.9h1.7l-4.1,10.7c-.4,1.1-.8,1.9-1.2,2.2s-.9.6-1.7.6-.4,0-.6,0c-.2,0-.4,0-.5-.1v-1.5c.2,0,.3,0,.5.1.2,0,.3,0,.5,0,.6,0,1.1-.3,1.3-1,.3-.6.5-1.1.6-1.5l-3.8-9.6h1.8Z"/>
  <path class="st4" d="M524.8,137.1v19.8"/>
  <path class="st7" d="M524.8,137.1v7.8"/>
  <path class="st2" d="M521.5,144.9l3.3,9.1,3.3-9.1h-6.6Z"/>
  <path class="st4" d="M465.7,98.3h118.1v38.8h-118.1v-38.8Z"/>
  <path d="M494,111.3v1.3h-3.8v10.1h-1.5v-10.1h-3.8v-1.3h9.1ZM496.6,111.3v1.7h-1.4v-1.7h1.4ZM496.6,114.4v8.3h-1.4v-8.3h1.4ZM502.7,114.2c.6,0,1.1.1,1.5.4.4.2.7.6.8,1,.3-.4.6-.8,1.1-1,.5-.2,1-.4,1.5-.4.9,0,1.6.2,2.1.6.4.4.7,1,.7,1.7v6.1h-1.4v-5.5c0-.6-.1-1-.4-1.3-.2-.3-.7-.5-1.2-.5s-1.2.2-1.6.6c-.4.4-.6.9-.6,1.5v5.2h-1.4v-5.5c0-.6-.1-1-.4-1.3-.2-.3-.6-.5-1.2-.5s-.8.1-1.1.3c-.3.2-.6.5-.8.9-.2.4-.3.7-.3.9v5.2h-1.4v-8.3h1.3v1.2h0c.3-.5.7-.8,1.1-1,.4-.2,1-.4,1.5-.4ZM515.8,114.2c1.2,0,2.1.4,2.8,1.3s1,2,1,3.3v.2h-6.2c0,.9.2,1.5.7,2,.5.5,1.1.7,1.9.7s1.1-.1,1.4-.4c.4-.3.6-.7.7-1.2h1.3c-.2.9-.6,1.6-1.2,2.1-.6.5-1.4.7-2.3.7s-1.6-.2-2.2-.6c-.6-.4-1.1-.9-1.3-1.6-.3-.7-.4-1.4-.4-2.2,0-1.2.4-2.2,1.1-3,.7-.8,1.7-1.2,2.8-1.2ZM513.4,117.8h4.8c0-.7-.3-1.2-.7-1.7-.4-.4-1-.7-1.7-.7s-1.2.2-1.6.6c-.4.4-.7,1-.8,1.7ZM523.7,114.2c1.1,0,1.9.2,2.5.7.5.4.8,1.1.9,1.9h-1.4c0-.5-.2-.8-.6-1s-.8-.4-1.3-.4-1,0-1.3.3c-.3.2-.5.4-.5.8s.1.6.4.8c.3.2.7.3,1.3.5l1.3.3c.8.2,1.4.5,1.8.8.4.4.6.9.6,1.5s-.3,1.5-1,1.9c-.6.5-1.5.7-2.6.7s-1.9-.2-2.5-.7c-.6-.5-.9-1.2-1-2.1h1.4c0,.5.2.9.6,1.2.4.3.9.4,1.6.4s1.2-.1,1.5-.3c.3-.2.5-.5.5-.9s-.2-.7-.5-.9c-.3-.2-1-.4-2.1-.6-1-.2-1.8-.5-2.2-.9-.4-.4-.6-.9-.6-1.5s.3-1.3.9-1.7c.6-.4,1.3-.6,2.2-.6ZM530.9,112v2.5h1.6v1.2h-1.6v5.2c0,.4.1.6.4.7.3,0,.6,0,.9,0h.4v1.2h-1.1c-.7,0-1.2-.1-1.5-.4-.2-.3-.4-.7-.4-1.3v-5.3h-1.4v-1.2h1.4v-2.5h1.4ZM537.4,114.2c1.1,0,1.9.2,2.4.6.5.4.7.9.7,1.6v4.8c0,.3.1.5.4.5s.1,0,.2,0c0,0,.1,0,.2,0v1.1c-.1,0-.3.1-.4.2-.2,0-.3,0-.5,0-.4,0-.7-.1-.9-.3-.2-.2-.3-.5-.3-1-.4.4-.8.8-1.3,1-.5.2-1,.3-1.6.3s-1.5-.2-2-.6c-.5-.4-.7-1-.7-1.7s.2-1.3.7-1.8c.5-.4,1.6-.8,3.4-1,.6,0,1-.2,1.2-.3.2-.2.3-.4.3-.7,0-.5-.1-.8-.4-1-.3-.2-.8-.3-1.4-.3s-1.2.1-1.5.4c-.3.2-.5.6-.5,1.2h-1.4c0-.9.4-1.6,1-2.1.6-.5,1.4-.7,2.5-.7ZM535,120.5c0,.4.1.7.4.9.3.2.7.3,1.2.3.8,0,1.4-.2,1.8-.6.5-.4.7-.8.7-1.3v-1.4c-.2.2-.5.3-.9.3-.4,0-.8.1-1.5.2-.6,0-1.1.2-1.3.5-.3.2-.4.6-.4,1ZM546.6,114.2c.6,0,1.1.1,1.5.4.4.2.7.6.8,1,.3-.4.6-.8,1.1-1,.5-.2,1-.4,1.5-.4.9,0,1.6.2,2.1.6.4.4.7,1,.7,1.7v6.1h-1.4v-5.5c0-.6-.1-1-.4-1.3-.2-.3-.7-.5-1.2-.5s-1.2.2-1.6.6c-.4.4-.6.9-.6,1.5v5.2h-1.4v-5.5c0-.6-.1-1-.4-1.3-.2-.3-.6-.5-1.2-.5s-.8.1-1.1.3c-.3.2-.6.5-.8.9-.2.4-.3.7-.3.9v5.2h-1.4v-8.3h1.3v1.2h0c.3-.5.7-.8,1.1-1,.4-.2,1-.4,1.5-.4ZM560.4,114.2c1.2,0,2.1.4,2.8,1.2.7.8,1,1.9,1,3.1s-.3,2.3-1,3.1c-.7.8-1.6,1.2-2.8,1.2s-1-.1-1.5-.3c-.5-.2-.9-.5-1.2-1h0v4.3h-1.4v-11.5h1.4v1.1h0c.2-.4.5-.8,1-1,.5-.2,1-.3,1.6-.3ZM557.6,118.6c0,1,.2,1.7.7,2.3.5.6,1.1.8,1.9.8s1.4-.3,1.8-.8c.4-.6.7-1.3.7-2.3s-.2-1.6-.7-2.2c-.4-.6-1.1-.9-1.9-.9s-1.4.3-1.9.9-.7,1.3-.7,2.2Z"/>
  <path class="st4" d="M195,1.4v443.9"/>
  <path class="st5" d="M195,1.4v443.9"/>
  <path class="st4" d="M4.5,0h151.4v45.3H4.5V0Z"/>
  <path d="M27.1,14.3c2,0,3.7.7,4.9,2,1.3,1.3,1.9,3.2,1.9,5.5s-.6,4.3-1.8,5.6c-1.2,1.4-2.9,2.1-5,2.1h-6.7v-15.2h6.7ZM26.9,26.7c1.1,0,1.9-.4,2.6-1.1.7-.8,1.1-1.9,1.1-3.4s-.4-3-1.1-3.8c-.7-.8-1.8-1.2-3.2-1.2h-2.5v9.6h3.1ZM41,18.2c1.6,0,2.9.6,3.9,1.7,1,1.1,1.5,2.5,1.5,4.3v.6h-8c0,.9.3,1.7.8,2.1.5.5,1.1.7,2,.7s1.1-.1,1.5-.4c.5-.3.8-.6.9-1h2.7c-.4,1.2-1,2.2-1.9,2.8-.9.6-1.9.9-3.3.9s-3.1-.5-4.1-1.6c-1-1.1-1.5-2.5-1.5-4.2s.5-3,1.6-4.1c1.1-1.1,2.4-1.7,4.1-1.7ZM38.4,22.8h4.9c-.1-.8-.4-1.4-.8-1.8-.4-.4-.9-.6-1.6-.6s-1.3.2-1.8.6c-.4.4-.7,1-.8,1.7ZM54.4,18.2c1.6,0,2.8.5,3.7,1.6.9,1.1,1.3,2.5,1.3,4.3s-.4,3-1.3,4.1c-.9,1.1-2.1,1.6-3.5,1.6s-1.3-.1-1.9-.4c-.6-.3-1.1-.7-1.4-1.2h0v5.2h-3v-14.9h2.9v1.4h0c.4-.6.8-1,1.4-1.3.6-.3,1.2-.4,1.9-.4ZM51.1,24c0,1.1.2,1.9.7,2.5.4.6,1.1,1,2,1s1.5-.3,1.9-.9c.5-.6.7-1.5.7-2.6s-.2-1.9-.7-2.6c-.4-.7-1.1-1-2-1s-1.5.3-1.9.9-.7,1.5-.7,2.6ZM64.3,14.3v15.2h-3v-15.2h3ZM72.1,18.2c1.7,0,3.1.5,4.1,1.6,1,1.1,1.6,2.5,1.6,4.2s-.5,3.2-1.6,4.2c-1,1.1-2.4,1.6-4.1,1.6s-3.1-.5-4.1-1.6c-1-1.1-1.6-2.5-1.6-4.2s.5-3.1,1.5-4.2c1-1.1,2.4-1.6,4.2-1.6ZM69.4,24c0,1.2.2,2,.7,2.6.5.6,1.1.9,2,.9s1.5-.3,2-.9c.5-.6.7-1.5.7-2.6s-.2-2-.7-2.6c-.4-.6-1.1-1-2-1s-1.5.3-1.9.9c-.5.6-.7,1.5-.7,2.7ZM81.7,18.4l2.5,7.5h0l2.4-7.5h3.1l-4.7,12.6c-.3.7-.7,1.3-1.3,1.7-.6.4-1.3.6-2.2.6s-.8,0-1.1,0c-.3,0-.6,0-.9,0v-2.5c.4,0,.7,0,.9,0,.2,0,.5,0,.7,0,.4,0,.8-.1,1-.4.2-.3.4-.6.4-1s0-.2,0-.3c0-.1,0-.2-.1-.4l-3.9-10.3h3.2ZM97.2,18.2c.8,0,1.5.2,2,.5.5.3.9.8,1.2,1.4.4-.6.9-1,1.5-1.4.6-.3,1.2-.5,1.9-.5,1.3,0,2.3.3,3,1,.7.7,1,1.6,1,2.8v7.5h-3v-6.4c0-1-.2-1.7-.5-2-.3-.4-.8-.5-1.4-.5s-1.2.2-1.5.7c-.3.5-.5,1.1-.5,2v6.2h-3v-6.8c0-.7-.1-1.3-.4-1.6-.3-.4-.7-.5-1.4-.5s-1.1.2-1.5.7c-.4.4-.6,1-.6,1.8v6.5h-3v-11h2.9v1.5h0c.4-.6.9-1.1,1.5-1.3.6-.3,1.2-.4,1.9-.4ZM115.2,18.2c1.6,0,2.9.6,3.9,1.7,1,1.1,1.5,2.5,1.5,4.3v.6h-8c0,.9.3,1.7.8,2.1.5.5,1.1.7,2,.7s1.1-.1,1.5-.4c.5-.3.8-.6.9-1h2.7c-.4,1.2-1,2.2-1.9,2.8-.9.6-1.9.9-3.3.9s-3.1-.5-4.1-1.6c-1-1.1-1.5-2.5-1.5-4.2s.5-3,1.6-4.1c1.1-1.1,2.4-1.7,4.1-1.7ZM112.6,22.8h4.9c-.1-.8-.4-1.4-.8-1.8-.4-.4-.9-.6-1.6-.6s-1.3.2-1.8.6c-.4.4-.7,1-.8,1.7ZM128.7,18.2c1.4,0,2.4.4,3.1,1.1.6.7,1,1.8,1,3.4v6.9h-3v-6.3c0-.9-.2-1.5-.5-1.9-.3-.4-.8-.7-1.5-.7s-1.4.2-1.8.8-.5,1.3-.5,2.3v5.9h-3v-11h2.9v1.5h0c.4-.6.8-1,1.4-1.4s1.2-.5,2-.5ZM138.8,15.2v3.3h2.2v2h-2.2v5.5c0,.4,0,.8.2.9.2.2.5.3,1,.3s.3,0,.5,0c.2,0,.3,0,.4,0v2.4c-.2,0-.5,0-.8,0-.3,0-.6,0-.9,0-1.3,0-2.2-.2-2.7-.7-.5-.4-.8-1.1-.8-1.9v-6.6h-1.8v-2h1.8v-3.3h3Z"/>
  <path class="st4" d="M366.6,0h105v45.3h-105V0Z"/>
  <path d="M389.8,13.9c1.8,0,3.3.4,4.4,1.3,1.1.9,1.7,2.1,1.7,3.6h-3.2c0-.8-.3-1.3-.8-1.7-.5-.4-1.2-.6-2.2-.6s-1.2.2-1.7.5c-.4.3-.6.7-.6,1.3s0,.7.3.8c.2.2.5.4,1.1.6.6.2,1.8.5,3.7,1,1.3.3,2.2.8,3,1.5.7.7,1.1,1.7,1.1,2.8s-.6,2.7-1.7,3.5c-1.1.9-2.6,1.3-4.7,1.3s-3.5-.5-4.7-1.4c-1.2-.9-1.8-2.3-1.8-3.9h0c0,0,3.2,0,3.2,0,0,.9.3,1.6,1,2.1.6.5,1.4.7,2.4.7s1.6-.2,2.2-.5c.5-.3.8-.8.8-1.4s-.2-.9-.6-1.2c-.4-.3-1.1-.6-2-.8-1.2-.3-2.2-.5-3.2-.8-.9-.3-1.7-.8-2.4-1.4-.6-.7-.9-1.5-.9-2.5s.5-2.5,1.6-3.3c1.1-.9,2.4-1.3,4.1-1.3ZM401,14.3v5.7h0c.3-.6.8-1,1.4-1.3.6-.3,1.2-.5,1.9-.5,1.4,0,2.4.4,3.1,1.1.6.7,1,1.8,1,3.3v6.9h-3v-6.3c0-.9-.2-1.5-.5-1.9-.3-.4-.8-.7-1.5-.7s-1.4.2-1.8.8c-.4.5-.5,1.3-.5,2.3v5.9h-3v-15.2h3ZM415.7,18.2c1.6,0,2.8.3,3.6.8s1.2,1.3,1.2,2.2v5.9c0,.4,0,.9,0,1.3,0,.4.2.8.3,1h-3.1c0-.2,0-.3-.1-.5,0-.2,0-.4,0-.5-.4.4-.9.8-1.6,1-.6.2-1.3.3-2.1.3-1.1,0-2-.3-2.7-.9-.7-.6-1-1.4-1-2.5s.3-1.8,1-2.3c.6-.6,1.8-.9,3.5-1.1,1.2-.1,1.9-.3,2.3-.4.4-.2.6-.5.6-.9s-.1-.9-.4-1.1c-.3-.2-.8-.4-1.5-.4s-1.1.1-1.4.4c-.3.3-.5.7-.6,1.2h-3c0-1.2.6-2.1,1.5-2.7.9-.6,2.2-.9,3.7-.9ZM413.2,26.3c0,.4.2.8.5,1s.8.4,1.4.4,1.4-.2,1.8-.6c.4-.4.6-1,.6-1.9v-1.2c-.2.1-.4.3-.7.3-.3,0-.8.2-1.6.3-.7,0-1.2.3-1.5.5-.3.3-.5.6-.5,1.1ZM429.3,18.2c.1,0,.3,0,.4,0,.1,0,.2,0,.3,0v2.8c-.2,0-.3,0-.5,0-.2,0-.3,0-.6,0-1,0-1.8.3-2.3.9-.5.6-.7,1.5-.7,2.5v5.1h-3v-11h2.9v2h0c.3-.7.8-1.3,1.4-1.7.6-.4,1.3-.6,2.1-.6ZM436.1,18.2c1.6,0,2.9.6,3.9,1.7,1,1.1,1.5,2.5,1.5,4.3v.6h-8c0,.9.3,1.7.8,2.1.5.5,1.1.7,2,.7s1.1-.1,1.5-.4c.5-.3.8-.6.9-1h2.7c-.4,1.2-1,2.2-1.9,2.8-.9.6-1.9.9-3.3.9s-3.1-.5-4.1-1.6c-1-1.1-1.5-2.5-1.5-4.2s.5-3,1.6-4.1c1.1-1.1,2.4-1.7,4.1-1.7ZM433.5,22.8h4.9c-.1-.8-.4-1.4-.8-1.8-.4-.4-.9-.6-1.6-.6s-1.3.2-1.8.6c-.4.4-.7,1-.8,1.7ZM454.1,14.3v15.2h-2.9v-1.4h0c-.3.6-.8,1-1.4,1.3-.6.3-1.2.4-2,.4-1.5,0-2.7-.6-3.6-1.7-.9-1.1-1.3-2.5-1.3-4.2s.4-3,1.3-4.1c.9-1.1,2.1-1.6,3.6-1.6s1.3.1,1.9.4c.6.3,1,.7,1.4,1.2h0v-5.5h3ZM445.8,23.9c0,1,.2,1.9.7,2.5.5.7,1.1,1,2,1s1.5-.3,1.9-.9c.4-.6.7-1.5.7-2.6s-.2-1.9-.7-2.5c-.4-.6-1.1-1-2-1s-1.5.3-2,1c-.5.6-.7,1.5-.7,2.6Z"/>
  <path class="st0" d="M.5,349.7h0c0-9.5,7.7-17.2,17.2-17.2h125c4.6,0,8.9,1.8,12.1,5,3.2,3.2,5,7.6,5,12.1v68.6c0,9.5-7.7,17.2-17.2,17.2H17.7c-9.5,0-17.2-7.7-17.2-17.2v-68.6Z"/>
  <path class="st6" d="M.5,349.7h0c0-9.5,7.7-17.2,17.2-17.2h125c4.6,0,8.9,1.8,12.1,5,3.2,3.2,5,7.6,5,12.1v68.6c0,9.5-7.7,17.2-17.2,17.2H17.7c-9.5,0-17.2-7.7-17.2-17.2v-68.6Z"/>
  <path d="M66.2,355.6c1.6,0,2.8.3,3.3,1,.6.7.9,1.4.9,2.2,0,.7-.2,1.3-.5,1.8-.3.5-.8.9-1.5,1.2h0c.8.2,1.4.6,1.9,1.2.4.6.7,1.3.7,2.1,0,1.1-.4,2-1.1,2.7-.8.7-1.7,1.1-2.8,1.1h-6.5v-13.3h5.7ZM66,361.4c.9,0,1.6-.2,2-.5.5-.3.7-.9.7-1.6,0-.7-.2-1.2-.6-1.6-.4-.4-1.1-.5-2.1-.5h-3.7v4.2h3.6ZM66.8,367.5c.7,0,1.3-.2,1.8-.6.5-.4.7-1,.7-1.7,0-.8-.3-1.3-.8-1.7-.5-.4-1.2-.6-2.2-.6h-4v4.6h4.5ZM77,359.1c1.3,0,2.2.2,2.8.7.6.5.8,1.1.8,1.9v5.6c0,.4.2.5.5.5s.2,0,.2,0c0,0,.2,0,.2,0v1.2c-.1,0-.3.1-.5.2-.2,0-.4,0-.6,0-.4,0-.8-.1-1-.4-.2-.2-.3-.6-.3-1.1-.4.5-.9.9-1.5,1.1-.6.2-1.2.4-1.9.4s-1.8-.2-2.3-.7c-.6-.5-.8-1.2-.8-2s.3-1.5.8-2c.6-.5,1.9-.9,3.9-1.2.7,0,1.2-.2,1.4-.4.2-.2.4-.4.4-.8,0-.5-.2-.9-.5-1.2-.3-.3-.9-.4-1.6-.4s-1.4.2-1.8.5c-.4.3-.6.8-.6,1.4h-1.6c0-1.1.4-1.9,1.1-2.4.7-.5,1.7-.8,3-.8ZM74.2,366.4c0,.4.2.8.5,1,.3.2.8.4,1.4.4.9,0,1.6-.2,2.1-.7.5-.4.8-.9.8-1.5v-1.7c-.3.2-.6.3-1,.4-.4,0-1,.1-1.7.2-.7.1-1.2.3-1.6.6s-.5.7-.5,1.2ZM86.3,359.1c1.3,0,2.3.2,2.9.8.6.5,1,1.3,1,2.3h-1.6c0-.5-.3-.9-.7-1.2-.4-.3-.9-.4-1.6-.4s-1.1.1-1.5.3c-.4.2-.5.5-.5.9s.2.6.5.9c.3.2.8.4,1.5.5l1.5.3c.9.2,1.6.5,2.1,1,.5.4.7,1,.7,1.7s-.4,1.7-1.1,2.2c-.7.5-1.7.8-3,.8s-2.2-.3-3-.8c-.7-.6-1.1-1.4-1.1-2.5h1.6c0,.6.3,1.1.7,1.4.5.3,1.1.5,1.9.5s1.4-.1,1.8-.4c.4-.2.6-.6.6-1.1s-.2-.8-.6-1c-.4-.2-1.2-.5-2.4-.7-1.2-.2-2.1-.6-2.6-1-.5-.4-.7-1-.7-1.7s.3-1.5,1-2c.7-.5,1.6-.7,2.6-.7ZM96.4,359.1c1.4,0,2.5.5,3.2,1.5.8,1,1.2,2.3,1.2,3.8v.2h-7.2c0,1,.3,1.8.8,2.3.5.6,1.3.8,2.2.8s1.3-.2,1.7-.5c.4-.3.7-.8.8-1.4h1.6c-.2,1.1-.7,1.9-1.4,2.5s-1.6.8-2.7.8-1.9-.2-2.6-.7c-.7-.5-1.2-1.1-1.5-1.9-.3-.8-.5-1.7-.5-2.5,0-1.4.4-2.6,1.3-3.6.9-.9,1.9-1.4,3.2-1.4ZM93.6,363.2h5.5c0-.8-.3-1.4-.9-1.9-.5-.5-1.2-.8-1.9-.8s-1.4.2-1.9.7c-.5.5-.8,1.2-.9,2Z"/>
  <path d="M33.4,377.3c1.5,0,2.7.4,3.5,1.1.9.7,1.3,1.8,1.4,3.1h-1.7c-.1-.9-.4-1.6-1-2-.6-.5-1.3-.7-2.3-.7s-1.7.2-2.2.6c-.5.4-.8.9-.8,1.7s.2.9.7,1.3c.4.3,1.7.7,3.6,1.1,1.4.3,2.5.7,3.2,1.3.7.6,1.1,1.4,1.1,2.5s-.5,2.2-1.5,2.9c-1,.7-2.2,1-3.7,1s-2.9-.4-4-1.2c-1-.8-1.5-2-1.5-3.5h1.7c0,1,.4,1.8,1.1,2.4.7.6,1.7.8,2.8.8s1.9-.2,2.5-.6c.6-.4.9-1,.9-1.8s-.3-1.1-.8-1.5c-.5-.4-1.5-.7-2.9-1-1.9-.4-3.2-.8-3.8-1.4-.6-.6-1-1.3-1-2.2s.5-2.1,1.4-2.8c.9-.7,2.1-1.1,3.5-1.1ZM42.3,381.3v6.6c0,.5.2,1,.5,1.4.4.4.8.5,1.5.5.9,0,1.6-.3,2.1-.8.5-.6.8-1.3.8-2.1v-5.5h1.6v9.6h-1.5v-1.5h0c-.4.6-.8,1.1-1.3,1.3s-1.1.4-1.8.4c-1.1,0-2-.3-2.5-.9-.5-.6-.8-1.4-.8-2.6v-6.4h1.6ZM52.8,377.6v5h0c.2-.5.6-.9,1.2-1.1.5-.3,1.2-.4,1.9-.4,1.4,0,2.5.5,3.2,1.4.8.9,1.2,2.2,1.2,3.6s-.4,2.7-1.2,3.6c-.8.9-1.8,1.4-3.2,1.4s-1.2-.1-1.8-.4-1-.6-1.4-1.1h0v1.3h-1.6v-13.3h1.6ZM52.7,386.1c0,1.1.3,2,.8,2.7.5.7,1.3,1,2.2,1s1.6-.3,2.1-1,.8-1.6.8-2.8-.3-1.9-.8-2.5c-.5-.7-1.3-1-2.2-1s-1.7.3-2.2,1c-.5.7-.8,1.6-.8,2.6ZM65.4,381.1c1.3,0,2.3.2,2.9.8s1,1.3,1,2.3h-1.6c0-.5-.3-.9-.7-1.2-.4-.3-.9-.4-1.6-.4s-1.1.1-1.5.3c-.4.2-.5.5-.5.9s.2.6.5.9c.3.2.8.4,1.5.5l1.5.3c.9.2,1.6.5,2.1,1,.5.4.7,1,.7,1.7s-.4,1.7-1.1,2.2c-.7.5-1.7.8-3,.8s-2.2-.3-3-.8c-.7-.6-1.1-1.4-1.1-2.5h1.6c0,.6.3,1.1.7,1.4.5.3,1.1.5,1.9.5s1.4-.1,1.8-.4c.4-.2.6-.6.6-1.1s-.2-.8-.6-1-1.2-.5-2.4-.7c-1.2-.2-2.1-.6-2.6-1-.5-.4-.7-1-.7-1.7s.3-1.5,1-2c.7-.5,1.6-.7,2.6-.7ZM75.5,381.1c1.2,0,2.1.3,2.9.8.7.6,1.2,1.4,1.3,2.5h-1.6c-.1-.6-.4-1.1-.8-1.4-.4-.3-.9-.5-1.6-.5-1,0-1.7.3-2.2,1s-.8,1.6-.8,2.8.2,1.9.8,2.6c.5.6,1.2,1,2.1,1s1.4-.2,1.8-.6c.4-.4.7-1,.8-1.7h1.6c-.2,1.2-.6,2.1-1.4,2.8-.7.6-1.7,1-2.9,1s-2.5-.4-3.3-1.3c-.8-.9-1.2-2.1-1.2-3.6s.4-2.8,1.2-3.8c.8-.9,1.9-1.4,3.3-1.4ZM86.3,381.1h0s0,0,.1,0v1.7c-1.2,0-2.1.3-2.7,1-.6.6-.8,1.6-.8,2.9v4.3h-1.6v-9.6h1.5v2h0c.4-.8.8-1.3,1.4-1.7.6-.4,1.2-.6,2-.6ZM89.4,377.6v1.9h-1.6v-1.9h1.6ZM89.4,381.3v9.6h-1.6v-9.6h1.6ZM96.7,381.1c1.4,0,2.5.5,3.2,1.4.8.9,1.2,2.2,1.2,3.6s-.4,2.7-1.2,3.6c-.8.9-1.8,1.4-3.2,1.4s-1.2-.1-1.8-.4c-.6-.2-1-.6-1.4-1.1h0v5h-1.6v-13.3h1.6v1.3h0c.2-.5.6-.9,1.2-1.1.5-.3,1.2-.4,1.9-.4ZM93.5,386.1c0,1.1.3,2,.8,2.7.5.7,1.3,1,2.2,1s1.6-.3,2.1-1,.8-1.6.8-2.8-.3-1.9-.8-2.5c-.5-.7-1.3-1-2.2-1s-1.7.3-2.2,1c-.5.7-.8,1.6-.8,2.6ZM105.1,378.4v2.9h1.9v1.4h-1.9v6c0,.5.2.7.5.8.3,0,.7,0,1,0h.4v1.4h-1.3c-.9,0-1.5-.2-1.8-.5-.3-.3-.4-.8-.4-1.6v-6.2h-1.7v-1.4h1.7v-2.9h1.6ZM110.5,377.6v1.9h-1.6v-1.9h1.6ZM110.5,381.3v9.6h-1.6v-9.6h1.6ZM117.1,381.1c1.5,0,2.6.5,3.4,1.4.8.9,1.2,2.2,1.2,3.6s-.4,2.7-1.3,3.7c-.8.9-2,1.4-3.4,1.4s-2.5-.5-3.4-1.4c-.9-.9-1.3-2.1-1.3-3.7s.4-2.8,1.3-3.7c.8-.9,2-1.4,3.4-1.4ZM114.1,386.1c0,1.1.3,2,.8,2.7.6.7,1.3,1,2.2,1s1.6-.3,2.1-1c.6-.7.9-1.6.9-2.7s-.3-2-.8-2.6c-.6-.7-1.3-1-2.2-1s-1.6.3-2.1,1c-.6.7-.9,1.5-.9,2.7ZM128.4,381.1c1.2,0,2,.3,2.5.9.5.6.8,1.4.8,2.5v6.4h-1.6v-6.6c0-.5-.2-1-.5-1.3-.3-.4-.8-.5-1.4-.5-.9,0-1.6.3-2.1.8-.5.5-.8,1.2-.8,2.1v5.5h-1.6v-9.6h1.5v1.5h0c.4-.6.8-1,1.3-1.3.5-.3,1.1-.4,1.8-.4Z"/>
  <path d="M59.2,399.3c1.5,0,2.7.4,3.5,1.1.9.7,1.3,1.8,1.4,3.1h-1.7c-.1-.9-.4-1.6-1-2-.6-.5-1.3-.7-2.3-.7s-1.7.2-2.2.6c-.5.4-.8.9-.8,1.7s.2.9.7,1.3c.4.3,1.7.7,3.6,1.1,1.4.3,2.5.7,3.2,1.3.7.6,1.1,1.4,1.1,2.5s-.5,2.2-1.5,2.9c-1,.7-2.2,1-3.7,1s-2.9-.4-4-1.2c-1-.8-1.5-2-1.5-3.5h1.7c0,1,.4,1.8,1.1,2.4.7.6,1.7.8,2.8.8s1.9-.2,2.5-.6c.6-.4.9-1,.9-1.8s-.3-1.1-.8-1.5c-.5-.4-1.5-.7-2.9-1-1.9-.4-3.2-.8-3.8-1.4-.6-.6-1-1.3-1-2.2s.5-2.1,1.4-2.8c.9-.7,2.1-1.1,3.5-1.1ZM70.5,403.1c1.4,0,2.5.5,3.2,1.5.8,1,1.2,2.3,1.2,3.8v.2h-7.2c0,1,.3,1.8.8,2.3.5.6,1.3.8,2.2.8s1.3-.2,1.7-.5c.4-.3.7-.8.8-1.4h1.6c-.2,1.1-.7,1.9-1.4,2.5-.7.6-1.6.8-2.7.8s-1.9-.2-2.6-.7c-.7-.5-1.2-1.1-1.5-1.9-.3-.8-.5-1.7-.5-2.5,0-1.4.4-2.6,1.3-3.6.9-.9,1.9-1.4,3.2-1.4ZM67.7,407.2h5.5c0-.8-.3-1.4-.9-1.9-.5-.5-1.2-.8-1.9-.8s-1.4.2-1.9.7c-.5.5-.8,1.2-.9,2ZM80.5,403.1c1.2,0,2.1.3,2.9.8.7.6,1.2,1.4,1.3,2.5h-1.6c-.1-.6-.4-1.1-.8-1.4-.4-.3-.9-.5-1.6-.5-1,0-1.7.3-2.2,1-.5.7-.8,1.6-.8,2.8,0,1.1.3,1.9.8,2.6.5.6,1.2,1,2.1,1s1.4-.2,1.8-.6c.4-.4.7-1,.8-1.7h1.6c-.2,1.2-.6,2.1-1.4,2.8-.7.6-1.7,1-2.9,1s-2.5-.4-3.3-1.3c-.8-.9-1.2-2.1-1.2-3.6,0-1.6.4-2.8,1.2-3.8.8-.9,1.9-1.4,3.3-1.4ZM91.3,403.1h0s0,0,.1,0v1.7c-1.2,0-2.1.3-2.7,1-.6.6-.8,1.6-.8,2.9v4.3h-1.6v-9.6h1.5v2h0c.4-.8.8-1.3,1.4-1.7.6-.4,1.2-.6,2-.6ZM96.4,403.1c1.4,0,2.5.5,3.2,1.5.8,1,1.2,2.3,1.2,3.8v.2h-7.2c0,1,.3,1.8.8,2.3.5.6,1.3.8,2.2.8s1.3-.2,1.7-.5c.4-.3.7-.8.8-1.4h1.6c-.2,1.1-.7,1.9-1.4,2.5s-1.6.8-2.7.8-1.9-.2-2.6-.7c-.7-.5-1.2-1.1-1.5-1.9-.3-.8-.5-1.7-.5-2.5,0-1.4.4-2.6,1.3-3.6.9-.9,1.9-1.4,3.2-1.4ZM93.6,407.2h5.5c0-.8-.3-1.4-.9-1.9-.5-.5-1.2-.8-1.9-.8s-1.4.2-1.9.7c-.5.5-.8,1.2-.9,2ZM104.6,400.4v2.9h1.9v1.4h-1.9v6c0,.5.2.7.5.8.3,0,.7,0,1,0h.4v1.4h-1.3c-.9,0-1.5-.2-1.8-.5-.3-.3-.4-.8-.4-1.6v-6.2h-1.7v-1.4h1.7v-2.9h1.6Z"/>
  <path class="st1" d="M233.8,349.7h0c0-9.5,7.7-17.2,17.2-17.2h125c4.6,0,8.9,1.8,12.1,5,3.2,3.2,5,7.6,5,12.1v68.6c0,9.5-7.7,17.2-17.2,17.2h-125c-9.5,0-17.2-7.7-17.2-17.2v-68.6Z"/>
  <path class="st6" d="M233.8,349.7h0c0-9.5,7.7-17.2,17.2-17.2h125c4.6,0,8.9,1.8,12.1,5,3.2,3.2,5,7.6,5,12.1v68.6c0,9.5-7.7,17.2-17.2,17.2h-125c-9.5,0-17.2-7.7-17.2-17.2v-68.6Z"/>
  <path d="M266.7,366.3c1.5,0,2.7.4,3.5,1.1.9.7,1.3,1.8,1.4,3.1h-1.7c-.1-.9-.4-1.6-1-2-.6-.5-1.3-.7-2.3-.7s-1.7.2-2.2.6c-.5.4-.8.9-.8,1.7s.2.9.7,1.3c.4.3,1.7.7,3.6,1.1,1.4.3,2.5.7,3.2,1.3.7.6,1.1,1.4,1.1,2.5s-.5,2.2-1.5,2.9c-1,.7-2.2,1-3.7,1s-2.9-.4-4-1.2c-1-.8-1.5-2-1.5-3.5h1.7c0,1,.4,1.8,1.1,2.4.7.6,1.7.8,2.8.8s1.9-.2,2.5-.6c.6-.4.9-1,.9-1.8s-.3-1.1-.8-1.5c-.5-.4-1.5-.7-2.9-1-1.9-.4-3.2-.8-3.8-1.4-.6-.6-1-1.3-1-2.2s.5-2.1,1.4-2.8c.9-.7,2.1-1.1,3.5-1.1ZM275.6,370.3v6.6c0,.5.2,1,.5,1.4.4.4.8.5,1.5.5.9,0,1.6-.3,2.1-.8.5-.6.8-1.3.8-2.1v-5.5h1.6v9.6h-1.5v-1.5h0c-.4.6-.8,1.1-1.3,1.3s-1.1.4-1.8.4c-1.1,0-2-.3-2.5-.9-.5-.6-.8-1.4-.8-2.6v-6.4h1.6ZM286.1,366.6v5h0c.2-.5.6-.9,1.2-1.1.5-.3,1.2-.4,1.9-.4,1.4,0,2.5.5,3.2,1.4.8.9,1.2,2.2,1.2,3.6s-.4,2.7-1.2,3.6c-.8.9-1.8,1.4-3.2,1.4s-1.2-.1-1.8-.4-1-.6-1.4-1.1h0v1.3h-1.6v-13.3h1.6ZM286,375.1c0,1.1.3,2,.8,2.7.5.7,1.3,1,2.2,1s1.6-.3,2.1-1,.8-1.6.8-2.8-.3-1.9-.8-2.5c-.5-.7-1.3-1-2.2-1s-1.7.3-2.2,1c-.5.7-.8,1.6-.8,2.6ZM298.7,370.1c1.3,0,2.3.2,2.9.8.6.5,1,1.3,1,2.3h-1.6c0-.5-.3-.9-.7-1.2-.4-.3-.9-.4-1.6-.4s-1.1.1-1.5.3c-.4.2-.5.5-.5.9s.2.6.5.9c.3.2.8.4,1.5.5l1.5.3c.9.2,1.6.5,2.1,1,.5.4.7,1,.7,1.7s-.4,1.7-1.1,2.2c-.7.5-1.7.8-3,.8s-2.2-.3-3-.8c-.7-.6-1.1-1.4-1.1-2.5h1.6c0,.6.3,1.1.7,1.4.5.3,1.1.5,1.9.5s1.4-.1,1.8-.4c.4-.2.6-.6.6-1.1s-.2-.8-.6-1c-.4-.2-1.2-.5-2.4-.7-1.2-.2-2.1-.6-2.6-1-.5-.4-.7-1-.7-1.7s.3-1.5,1-2c.7-.5,1.6-.7,2.6-.7ZM308.8,370.1c1.2,0,2.1.3,2.9.8.7.6,1.2,1.4,1.3,2.5h-1.6c-.1-.6-.4-1.1-.8-1.4-.4-.3-.9-.5-1.6-.5-1,0-1.7.3-2.2,1-.5.7-.8,1.6-.8,2.8s.2,1.9.8,2.6c.5.6,1.2,1,2.1,1s1.4-.2,1.8-.6c.4-.4.7-1,.8-1.7h1.6c-.2,1.2-.6,2.1-1.4,2.8-.7.6-1.7,1-2.9,1s-2.5-.4-3.3-1.3c-.8-.9-1.2-2.1-1.2-3.6s.4-2.8,1.2-3.8c.8-.9,1.9-1.4,3.3-1.4ZM319.6,370.1h0s0,0,.1,0v1.7c-1.2,0-2.1.3-2.7,1-.6.6-.8,1.6-.8,2.9v4.3h-1.6v-9.6h1.5v2h0c.4-.8.8-1.3,1.4-1.7.6-.4,1.2-.6,2-.6ZM322.7,366.6v1.9h-1.6v-1.9h1.6ZM322.7,370.3v9.6h-1.6v-9.6h1.6ZM329.9,370.1c1.4,0,2.5.5,3.2,1.4.8.9,1.2,2.2,1.2,3.6s-.4,2.7-1.2,3.6c-.8.9-1.8,1.4-3.2,1.4s-1.2-.1-1.8-.4c-.6-.2-1-.6-1.4-1.1h0v5h-1.6v-13.3h1.6v1.3h0c.2-.5.6-.9,1.2-1.1.5-.3,1.2-.4,1.9-.4ZM326.8,375.1c0,1.1.3,2,.8,2.7.5.7,1.3,1,2.2,1s1.6-.3,2.1-1,.8-1.6.8-2.8-.3-1.9-.8-2.5c-.5-.7-1.3-1-2.2-1s-1.7.3-2.2,1c-.5.7-.8,1.6-.8,2.6ZM338.4,367.4v2.9h1.9v1.4h-1.9v6c0,.5.2.7.5.8.3,0,.7,0,1,0h.4v1.4h-1.3c-.9,0-1.5-.2-1.8-.5-.3-.3-.4-.8-.4-1.6v-6.2h-1.7v-1.4h1.7v-2.9h1.6ZM343.8,366.6v1.9h-1.6v-1.9h1.6ZM343.8,370.3v9.6h-1.6v-9.6h1.6ZM350.4,370.1c1.5,0,2.6.5,3.4,1.4.8.9,1.2,2.2,1.2,3.6s-.4,2.7-1.3,3.7c-.8.9-2,1.4-3.4,1.4s-2.5-.5-3.4-1.4c-.9-.9-1.3-2.1-1.3-3.7s.4-2.8,1.3-3.7c.8-.9,2-1.4,3.4-1.4ZM347.4,375.1c0,1.1.3,2,.8,2.7.6.7,1.3,1,2.2,1s1.6-.3,2.1-1c.6-.7.9-1.6.9-2.7s-.3-2-.8-2.6c-.6-.7-1.3-1-2.2-1s-1.6.3-2.1,1-.9,1.5-.9,2.7ZM361.6,370.1c1.2,0,2,.3,2.5.9.5.6.8,1.4.8,2.5v6.4h-1.6v-6.6c0-.5-.2-1-.5-1.3-.3-.4-.8-.5-1.4-.5-.9,0-1.6.3-2.1.8-.5.5-.8,1.2-.8,2.1v5.5h-1.6v-9.6h1.5v1.5h0c.4-.6.8-1,1.3-1.3.5-.3,1.1-.4,1.8-.4Z"/>
  <path d="M300.9,388.6v6.6l6.8-6.6h2.3l-5.6,5.4,5.8,7.9h-2.2l-4.8-6.7-2.2,2.1v4.7h-1.8v-13.3h1.8ZM315.1,392.1c1.4,0,2.5.5,3.2,1.5.8,1,1.2,2.3,1.2,3.8v.2h-7.2c0,1,.3,1.8.8,2.3.5.6,1.3.8,2.2.8s1.3-.2,1.7-.5c.4-.3.7-.8.8-1.4h1.6c-.2,1.1-.7,1.9-1.4,2.5s-1.6.8-2.7.8-1.9-.2-2.6-.7c-.7-.5-1.2-1.1-1.5-1.9-.3-.8-.5-1.7-.5-2.5,0-1.4.4-2.6,1.3-3.6.9-.9,1.9-1.4,3.2-1.4ZM312.2,396.2h5.5c0-.8-.3-1.4-.9-1.9-.5-.5-1.2-.8-1.9-.8s-1.4.2-1.9.7c-.5.5-.8,1.2-.9,2ZM321.9,392.3l2.8,7.9h0l2.7-7.9h1.7l-4.1,10.7c-.4,1.1-.8,1.9-1.2,2.2-.4.4-.9.6-1.7.6s-.4,0-.6,0c-.2,0-.4,0-.5-.1v-1.5c.2,0,.3,0,.5.1.2,0,.3,0,.5,0,.6,0,1.1-.3,1.3-1,.3-.6.5-1.1.6-1.5l-3.8-9.6h1.8Z"/>
  <path class="st4" d="M313.5,312.8v19.8"/>
  <path class="st7" d="M313.5,312.8v7.8"/>
  <path class="st2" d="M310.2,320.6l3.3,9.1,3.3-9.1h-6.6Z"/>
  <path class="st4" d="M159.8,384h74"/>
  <path class="st7" d="M159.8,384h62"/>
  <path class="st2" d="M221.8,387.3l9.1-3.3-9.1-3.3v6.6Z"/>
  <path class="st4" d="M260.9,274h105v38.8h-105v-38.8Z"/>
  <path d="M280,298.3v-11.5h4c.9,0,1.6,0,2,.2.7.2,1.2.4,1.7.8.6.5,1.1,1.2,1.3,2,.3.8.5,1.7.5,2.7s-.1,1.7-.3,2.3c-.2.7-.5,1.2-.8,1.7-.3.4-.7.8-1,1-.4.2-.8.4-1.4.6-.5.1-1.1.2-1.8.2h-4.1ZM281.5,297h2.5c.8,0,1.3,0,1.8-.2.4-.1.8-.3,1-.6.4-.4.6-.8.8-1.5.2-.6.3-1.3.3-2.2s-.2-2.1-.6-2.8c-.4-.6-.9-1.1-1.4-1.3-.4-.2-1.1-.2-2-.2h-2.4v8.8ZM297.1,295.7l1.5.2c-.2.9-.7,1.5-1.3,2-.6.5-1.4.7-2.4.7s-2.2-.4-2.9-1.1c-.7-.8-1.1-1.8-1.1-3.1s.4-2.5,1.1-3.2,1.7-1.2,2.8-1.2,2,.4,2.7,1.1c.7.8,1.1,1.8,1.1,3.2v.4h-6.2c0,.9.3,1.6.8,2.1.5.5,1,.7,1.7.7s1-.1,1.3-.4c.4-.3.7-.7.9-1.3ZM292.5,293.4h4.6c0-.7-.2-1.2-.5-1.6-.4-.5-1-.8-1.7-.8s-1.2.2-1.6.7c-.4.4-.7,1-.7,1.7ZM302.6,298.3l-3.2-8.3h1.5l1.8,5c.2.5.4,1.1.5,1.7.1-.4.3-1,.5-1.6l1.8-5.1h1.4l-3.1,8.3h-1.3ZM308.3,288.5v-1.6h1.4v1.6h-1.4ZM308.3,298.3v-8.3h1.4v8.3h-1.4ZM317.3,295.3l1.4.2c-.2.9-.5,1.7-1.2,2.2-.6.5-1.4.8-2.3.8s-2.1-.4-2.8-1.1c-.7-.8-1-1.8-1-3.2s.1-1.7.4-2.3c.3-.7.8-1.2,1.4-1.5.6-.3,1.3-.5,2-.5s1.6.2,2.2.7c.6.4.9,1.1,1.1,1.9l-1.4.2c-.1-.6-.4-1-.7-1.2-.3-.3-.7-.4-1.2-.4-.7,0-1.3.3-1.7.8-.4.5-.7,1.3-.7,2.4s.2,1.9.6,2.4c.4.5,1,.8,1.7.8s1-.2,1.4-.5c.4-.3.6-.9.7-1.6ZM325.5,295.7l1.5.2c-.2.9-.7,1.5-1.3,2-.6.5-1.4.7-2.4.7s-2.2-.4-2.9-1.1c-.7-.8-1.1-1.8-1.1-3.1s.4-2.5,1.1-3.2,1.7-1.2,2.8-1.2,2,.4,2.7,1.1c.7.8,1.1,1.8,1.1,3.2v.4h-6.2c0,.9.3,1.6.8,2.1.5.5,1,.7,1.7.7s1-.1,1.3-.4c.4-.3.7-.7.9-1.3ZM320.9,293.4h4.6c0-.7-.2-1.2-.5-1.6-.4-.5-1-.8-1.7-.8s-1.2.2-1.6.7c-.4.4-.7,1-.7,1.7ZM333.6,298.3v-11.5h1.5v11.5h-1.5ZM337.8,298.3v-11.5h4c.9,0,1.6,0,2,.2.7.2,1.2.4,1.7.8.6.5,1.1,1.2,1.3,2,.3.8.5,1.7.5,2.7s-.1,1.7-.3,2.3c-.2.7-.5,1.2-.8,1.7-.3.4-.7.8-1,1-.4.2-.8.4-1.4.6-.5.1-1.1.2-1.8.2h-4.1ZM339.3,297h2.5c.8,0,1.3,0,1.8-.2.4-.1.8-.3,1-.6.4-.4.6-.8.8-1.5.2-.6.3-1.3.3-2.2s-.2-2.1-.6-2.8c-.4-.6-.9-1.1-1.4-1.3-.4-.2-1.1-.2-2-.2h-2.4v8.8Z"/>
  <path class="st0" d="M450.7,331.7h27.8v27.8h-27.8v-27.8Z"/>
  <path class="st4" d="M479.9,331.7h156v27.8h-156v-27.8Z"/>
  <path d="M495,339.7c1.1,0,2.1.3,2.9.8.8.5,1.5,1.2,1.9,2.2.4.9.7,1.9.7,3s-.2,2.1-.7,3.1c-.4.9-1.1,1.7-1.9,2.2-.8.5-1.8.8-2.9.8-1.1,0-2.1-.3-2.9-.8-.8-.5-1.5-1.2-1.9-2.2-.4-.9-.7-2-.7-3.1,0-1.7.5-3.2,1.5-4.3,1-1.1,2.3-1.7,4-1.7ZM491,345.7c0,.9.2,1.7.5,2.4.3.7.8,1.3,1.4,1.7.6.4,1.3.6,2.1.6,1.2,0,2.2-.4,2.9-1.3.7-.9,1.1-2,1.1-3.4s-.3-2.5-1-3.4c-.7-.9-1.7-1.3-2.9-1.3-1.2,0-2.2.4-2.9,1.3-.7.9-1,2-1,3.4ZM504.9,339.8c.1,0,.3,0,.5,0,.2,0,.3,0,.4,0v1.2c-.1,0-.2,0-.4,0-.1,0-.3,0-.4,0-.4,0-.6,0-.8.2-.2.2-.2.4-.2.7v1.2h3.1v-1.3c0-.6.2-1.1.6-1.5.4-.4,1-.5,1.7-.5.1,0,.3,0,.4,0,.2,0,.3,0,.5,0v1.2c-.1,0-.2,0-.4,0-.1,0-.3,0-.4,0-.4,0-.6,0-.8.2-.2.2-.2.4-.2.7v1.2h1.6v1.2h-1.6v7.1h-1.4v-7.1h-3.1v7.1h-1.4v-7.1h-1.4v-1.2h1.4v-1.3c0-.6.2-1.1.6-1.5.4-.4,1-.5,1.7-.5ZM520,340c1.7,0,3.1.5,4,1.4.9.9,1.4,2.3,1.4,4.1s-.5,3.5-1.4,4.5c-.9,1-2.2,1.5-4,1.5h-4v-11.4h4ZM520.1,350.1c1.1,0,2-.4,2.7-1.1.7-.7,1-1.9,1-3.4s-.3-2.6-1-3.3c-.6-.7-1.6-1-2.8-1h-2.6v8.9h2.6ZM530.5,342.9c1.2,0,2.1.4,2.8,1.3.7.9,1,2,1,3.3v.2h-6.2c0,.9.2,1.5.7,2,.5.5,1.1.7,1.9.7.6,0,1.1-.1,1.4-.4.4-.3.6-.7.7-1.2h1.3c-.2.9-.6,1.6-1.2,2.1-.6.5-1.4.7-2.3.7-.9,0-1.6-.2-2.2-.6-.6-.4-1.1-.9-1.3-1.6-.3-.7-.4-1.4-.4-2.2,0-1.2.4-2.2,1.1-3,.7-.8,1.7-1.2,2.8-1.2ZM528,346.5h4.8c0-.7-.3-1.2-.7-1.7-.4-.4-1-.7-1.7-.7-.6,0-1.2.2-1.6.6-.4.4-.7,1-.8,1.7ZM536.4,343.1l2.3,6.9h0l2.3-6.9h1.4l-3,8.3h-1.5l-3.1-8.3h1.5ZM545.1,340v1.7h-1.4v-1.7h1.4ZM545.1,343.1v8.3h-1.4v-8.3h1.4ZM550.7,342.9c1,0,1.8.2,2.5.7.6.5,1,1.2,1.1,2.1h-1.4c-.1-.5-.3-.9-.7-1.2-.4-.3-.8-.4-1.3-.4-.8,0-1.5.3-1.9.8-.4.6-.7,1.4-.7,2.4s.2,1.7.6,2.2c.4.5,1,.8,1.8.8.7,0,1.2-.2,1.6-.5.4-.4.6-.8.7-1.5h1.4c-.1,1-.5,1.8-1.2,2.4-.6.6-1.5.8-2.5.8-1.2,0-2.2-.4-2.8-1.1-.7-.8-1-1.8-1-3.1s.3-2.4,1-3.2c.7-.8,1.7-1.2,2.9-1.2ZM559.2,342.9c1.2,0,2.1.4,2.8,1.3.7.9,1,2,1,3.3v.2h-6.2c0,.9.2,1.5.7,2,.5.5,1.1.7,1.9.7.6,0,1.1-.1,1.4-.4.4-.3.6-.7.7-1.2h1.3c-.2.9-.6,1.6-1.2,2.1-.6.5-1.4.7-2.3.7-.9,0-1.6-.2-2.2-.6-.6-.4-1.1-.9-1.3-1.6-.3-.7-.4-1.4-.4-2.2,0-1.2.4-2.2,1.1-3,.7-.8,1.7-1.2,2.8-1.2ZM556.8,346.5h4.8c0-.7-.3-1.2-.7-1.7-.4-.4-1-.7-1.7-.7-.6,0-1.2.2-1.6.6-.4.4-.7,1-.8,1.7Z"/>
  <path class="st3" d="M450.7,369.6h27.8v27.8h-27.8v-27.8Z"/>
  <path class="st4" d="M479.9,369.6h156v27.8h-156v-27.8Z"/>
  <path d="M494.2,377.9c1.7,0,3.1.5,4,1.4.9.9,1.4,2.3,1.4,4.1s-.5,3.5-1.4,4.5c-.9,1-2.2,1.5-4,1.5h-4v-11.4h4ZM494.3,388c1.1,0,2-.4,2.7-1.1.7-.8,1-1.9,1-3.4s-.3-2.6-1-3.3c-.6-.7-1.6-1-2.8-1h-2.6v8.9h2.6ZM504.7,380.8c1.2,0,2.1.4,2.8,1.3.7.9,1,2,1,3.3v.2h-6.2c0,.9.2,1.5.7,2,.5.5,1.1.7,1.9.7s1.1-.1,1.4-.4c.4-.3.6-.7.7-1.2h1.3c-.2.9-.6,1.6-1.2,2.1-.6.5-1.4.7-2.3.7s-1.6-.2-2.2-.6c-.6-.4-1.1-.9-1.3-1.6-.3-.7-.4-1.4-.4-2.2,0-1.2.4-2.2,1.1-3,.7-.8,1.7-1.2,2.8-1.2ZM502.2,384.4h4.8c0-.7-.3-1.2-.7-1.7-.4-.4-1-.7-1.7-.7s-1.2.2-1.6.6c-.4.4-.7,1-.8,1.7ZM513.9,380.8h.2v1.4c-1,0-1.8.3-2.3.8-.5.5-.7,1.4-.7,2.5v3.7h-1.4v-8.3h1.3v1.8h0c.3-.7.7-1.1,1.2-1.5.5-.3,1-.5,1.7-.5ZM516.6,377.9v1.7h-1.4v-1.7h1.4ZM516.6,381v8.3h-1.4v-8.3h1.4ZM519.4,381l2.3,6.9h0l2.3-6.9h1.4l-3,8.3h-1.5l-3.1-8.3h1.5ZM530.1,380.8c1.2,0,2.1.4,2.8,1.3.7.9,1,2,1,3.3v.2h-6.2c0,.9.2,1.5.7,2,.5.5,1.1.7,1.9.7s1.1-.1,1.4-.4c.4-.3.6-.7.7-1.2h1.3c-.2.9-.6,1.6-1.2,2.1-.6.5-1.4.7-2.3.7s-1.6-.2-2.2-.6c-.6-.4-1.1-.9-1.3-1.6-.3-.7-.4-1.4-.4-2.2,0-1.2.4-2.2,1.1-3,.7-.8,1.7-1.2,2.8-1.2ZM527.7,384.4h4.8c0-.7-.3-1.2-.7-1.7-.4-.4-1-.7-1.7-.7s-1.2.2-1.6.6c-.4.4-.7,1-.8,1.7ZM542.7,377.9v11.4h-1.4v-1.1h0c-.2.4-.6.8-1,1-.5.2-1,.3-1.6.3-1.2,0-2.1-.4-2.8-1.2-.7-.8-1-1.9-1-3.2s.3-2.3,1-3.1c.7-.8,1.6-1.2,2.8-1.2s1.1.1,1.5.3c.5.2.9.5,1.1,1h0v-4.2h1.4ZM536.3,385.2c0,.9.2,1.6.7,2.2.5.6,1.1.9,1.9.9s1.4-.3,1.9-.9c.4-.6.7-1.3.7-2.2s-.2-1.7-.7-2.3c-.4-.6-1.1-.9-1.9-.9s-1.4.3-1.8.9c-.4.6-.6,1.3-.6,2.3ZM554.3,377.6c1.1,0,2.1.3,2.9.8.8.5,1.5,1.2,1.9,2.2.4.9.7,1.9.7,3s-.2,2.1-.7,3.1c-.4.9-1.1,1.7-1.9,2.2-.8.5-1.8.8-2.9.8s-2.1-.3-2.9-.8c-.8-.5-1.5-1.2-1.9-2.2-.4-.9-.7-2-.7-3.1,0-1.7.5-3.2,1.5-4.3,1-1.1,2.3-1.7,4-1.7ZM550.3,383.6c0,.9.2,1.7.5,2.4.3.7.8,1.3,1.4,1.7.6.4,1.3.6,2.1.6,1.2,0,2.2-.4,2.9-1.3.7-.9,1.1-2,1.1-3.4s-.3-2.5-1-3.4c-.7-.9-1.7-1.3-2.9-1.3s-2.2.4-2.9,1.3c-.7.9-1,2-1,3.4ZM565.4,380.8c1,0,1.7.3,2.2.8.4.5.7,1.2.7,2.2v5.5h-1.4v-5.7c0-.5-.2-.9-.5-1.2-.3-.3-.7-.5-1.2-.5-.8,0-1.4.2-1.8.7-.4.5-.6,1.1-.6,1.8v4.7h-1.4v-8.3h1.3v1.3h0c.3-.5.7-.9,1.1-1.1.4-.2,1-.4,1.6-.4ZM571.7,377.9v11.4h-1.4v-11.4h1.4ZM575.3,377.9v1.7h-1.4v-1.7h1.4ZM575.3,381v8.3h-1.4v-8.3h1.4ZM581.4,380.8c1,0,1.7.3,2.2.8.4.5.7,1.2.7,2.2v5.5h-1.4v-5.7c0-.5-.2-.9-.5-1.2-.3-.3-.7-.5-1.2-.5-.8,0-1.4.2-1.8.7-.4.5-.6,1.1-.6,1.8v4.7h-1.4v-8.3h1.3v1.3h0c.3-.5.7-.9,1.1-1.1.4-.2,1-.4,1.6-.4ZM589.7,380.8c1.2,0,2.1.4,2.8,1.3.7.9,1,2,1,3.3v.2h-6.2c0,.9.2,1.5.7,2,.5.5,1.1.7,1.9.7s1.1-.1,1.4-.4c.4-.3.6-.7.7-1.2h1.3c-.2.9-.6,1.6-1.2,2.1-.6.5-1.4.7-2.3.7s-1.6-.2-2.2-.6c-.6-.4-1.1-.9-1.3-1.6-.3-.7-.4-1.4-.4-2.2,0-1.2.4-2.2,1.1-3,.7-.8,1.7-1.2,2.8-1.2ZM587.3,384.4h4.8c0-.7-.3-1.2-.7-1.7-.4-.4-1-.7-1.7-.7s-1.2.2-1.6.6c-.4.4-.7,1-.8,1.7Z"/>
  <path class="st1" d="M450.7,407.6h27.8v27.8h-27.8v-27.8Z"/>
  <path class="st4" d="M479.9,407.6h156v27.8h-156v-27.8Z"/>
  <path d="M495,415.5c1.1,0,2.1.3,2.9.8.8.5,1.5,1.2,1.9,2.2.4.9.7,1.9.7,3s-.2,2.1-.7,3.1c-.4.9-1.1,1.7-1.9,2.2-.8.5-1.8.8-2.9.8s-2.1-.3-2.9-.8c-.8-.5-1.5-1.2-1.9-2.2-.4-.9-.7-2-.7-3.1,0-1.7.5-3.2,1.5-4.3,1-1.1,2.3-1.7,4-1.7ZM491,421.5c0,.9.2,1.7.5,2.4.3.7.8,1.3,1.4,1.7.6.4,1.3.6,2.1.6,1.2,0,2.2-.4,2.9-1.3.7-.9,1.1-2,1.1-3.4s-.3-2.5-1-3.4c-.7-.9-1.7-1.3-2.9-1.3s-2.2.4-2.9,1.3c-.7.9-1,2-1,3.4ZM506.1,418.8c1,0,1.7.3,2.2.8.4.5.7,1.2.7,2.2v5.5h-1.4v-5.7c0-.5-.2-.9-.5-1.2-.3-.3-.7-.5-1.2-.5-.8,0-1.4.2-1.8.7-.4.5-.6,1.1-.6,1.8v4.7h-1.4v-8.3h1.3v1.3h0c.3-.5.7-.9,1.1-1.1.4-.2,1-.4,1.6-.4ZM519.7,415.8c1.7,0,3.1.5,4,1.4.9.9,1.4,2.3,1.4,4.1s-.5,3.5-1.4,4.5c-.9,1-2.2,1.5-4,1.5h-4v-11.4h4ZM519.8,425.9c1.1,0,2-.4,2.7-1.1.7-.8,1-1.9,1-3.4s-.3-2.6-1-3.3c-.6-.7-1.6-1-2.8-1h-2.6v8.9h2.6ZM530.2,418.8c1.2,0,2.1.4,2.8,1.3.7.9,1,2,1,3.3v.2h-6.2c0,.9.2,1.5.7,2,.5.5,1.1.7,1.9.7s1.1-.1,1.4-.4c.4-.3.6-.7.7-1.2h1.3c-.2.9-.6,1.6-1.2,2.1-.6.5-1.4.7-2.3.7s-1.6-.2-2.2-.6c-.6-.4-1.1-.9-1.3-1.6-.3-.7-.4-1.4-.4-2.2,0-1.2.4-2.2,1.1-3,.7-.8,1.7-1.2,2.8-1.2ZM527.7,422.3h4.8c0-.7-.3-1.2-.7-1.7-.4-.4-1-.7-1.7-.7s-1.2.2-1.6.6c-.4.4-.7,1-.8,1.7ZM536,418.9l2.3,6.9h0l2.3-6.9h1.4l-3,8.3h-1.5l-3.1-8.3h1.5ZM544.8,415.8v1.7h-1.4v-1.7h1.4ZM544.8,418.9v8.3h-1.4v-8.3h1.4ZM550.3,418.8c1,0,1.8.2,2.5.7.6.5,1,1.2,1.1,2.1h-1.4c-.1-.5-.3-.9-.7-1.2-.4-.3-.8-.4-1.3-.4-.8,0-1.5.3-1.9.8s-.7,1.4-.7,2.4.2,1.7.6,2.2c.4.5,1,.8,1.8.8s1.2-.2,1.6-.5c.4-.4.6-.8.7-1.5h1.4c-.1,1-.5,1.8-1.2,2.4s-1.5.8-2.5.8-2.2-.4-2.8-1.1c-.7-.8-1-1.8-1-3.1s.3-2.4,1-3.2c.7-.8,1.7-1.2,2.9-1.2ZM558.9,418.8c1.2,0,2.1.4,2.8,1.3.7.9,1,2,1,3.3v.2h-6.2c0,.9.2,1.5.7,2,.5.5,1.1.7,1.9.7s1.1-.1,1.4-.4c.4-.3.6-.7.7-1.2h1.3c-.2.9-.6,1.6-1.2,2.1-.6.5-1.4.7-2.3.7s-1.6-.2-2.2-.6c-.6-.4-1.1-.9-1.3-1.6-.3-.7-.4-1.4-.4-2.2,0-1.2.4-2.2,1.1-3,.7-.8,1.7-1.2,2.8-1.2ZM556.4,422.3h4.8c0-.7-.3-1.2-.7-1.7-.4-.4-1-.7-1.7-.7s-1.2.2-1.6.6c-.4.4-.7,1-.8,1.7Z"/>
  <path class="st1" d="M122.7,66.1h0c0-4.2,3.4-7.5,7.5-7.5h129.5c2,0,3.9.8,5.3,2.2s2.2,3.3,2.2,5.3v30.2c0,4.2-3.4,7.5-7.5,7.5h-129.5c-4.2,0-7.5-3.4-7.5-7.5v-30.2Z"/>
  <path class="st6" d="M122.7,66.1h0c0-4.2,3.4-7.5,7.5-7.5h129.5c2,0,3.9.8,5.3,2.2s2.2,3.3,2.2,5.3v30.2c0,4.2-3.4,7.5-7.5,7.5h-129.5c-4.2,0-7.5-3.4-7.5-7.5v-30.2Z"/>
  <path d="M161.1,74.8v1.5h-7v4.2h6.1v1.5h-6.1v6.1h-1.8v-13.3h8.8ZM166.7,78.2h0s0,0,.1,0v1.7c-1.2,0-2.1.3-2.7,1-.6.6-.8,1.6-.8,2.9v4.3h-1.6v-9.6h1.5v2h0c.4-.8.8-1.3,1.4-1.7.6-.4,1.2-.6,2-.6ZM171.6,78.2c1.3,0,2.2.2,2.8.7.6.5.8,1.1.8,1.9v5.6c0,.4.2.5.5.5s.2,0,.2,0c0,0,.2,0,.2,0v1.2c-.1,0-.3.1-.5.2-.2,0-.4,0-.6,0-.4,0-.8-.1-1-.4-.2-.3-.3-.6-.3-1.1-.4.5-.9.9-1.5,1.1-.6.2-1.2.4-1.9.4-1,0-1.8-.2-2.3-.7-.6-.5-.8-1.2-.8-2s.3-1.5.8-2c.6-.5,1.9-.9,3.9-1.2.7,0,1.2-.2,1.4-.4.2-.2.4-.4.4-.8,0-.5-.2-.9-.5-1.2-.3-.3-.9-.4-1.6-.4s-1.4.2-1.8.5c-.4.3-.6.8-.6,1.4h-1.6c0-1.1.4-1.9,1.1-2.4.7-.5,1.7-.8,3-.8ZM168.8,85.5c0,.4.2.8.5,1,.3.2.8.4,1.4.4.9,0,1.6-.2,2.1-.7.5-.4.8-.9.8-1.5v-1.7c-.3.2-.6.3-1,.4-.4,0-1,.1-1.7.2-.7.1-1.2.3-1.6.6s-.5.7-.5,1.2ZM182.3,78.2c.7,0,1.3.1,1.7.4.4.3.8.7.9,1.2.3-.5.8-.9,1.3-1.2.5-.3,1.1-.4,1.8-.4,1.1,0,1.9.2,2.4.7.5.5.8,1.2.8,2v7.1h-1.6v-6.4c0-.7-.2-1.2-.5-1.6-.3-.3-.8-.5-1.4-.5s-1.4.2-1.9.7c-.4.5-.7,1-.7,1.7v6.1h-1.6v-6.4c0-.7-.1-1.2-.4-1.6-.3-.3-.7-.5-1.4-.5s-1,.1-1.3.4c-.4.2-.7.6-.9,1-.2.4-.3.8-.3,1.1v6h-1.6v-9.6h1.5v1.4h0c.4-.6.8-1,1.3-1.2.5-.3,1.1-.4,1.8-.4ZM197.6,78.2c1.4,0,2.5.5,3.2,1.5.8,1,1.2,2.3,1.2,3.8v.2h-7.2c0,1,.3,1.8.8,2.3.5.6,1.3.8,2.2.8s1.3-.2,1.7-.5c.4-.3.7-.8.8-1.4h1.6c-.2,1.1-.7,1.9-1.4,2.5-.7.6-1.6.8-2.7.8-1,0-1.9-.2-2.6-.7-.7-.5-1.2-1.1-1.5-1.9-.3-.8-.5-1.7-.5-2.5,0-1.4.4-2.6,1.3-3.6.9-.9,1.9-1.4,3.2-1.4ZM194.8,82.4h5.5c0-.8-.3-1.4-.9-1.9-.5-.5-1.2-.8-1.9-.8s-1.4.2-1.9.7c-.5.5-.8,1.2-.9,2ZM210.8,74.8v6.6l6.8-6.6h2.3l-5.6,5.4,5.8,7.9h-2.2l-4.8-6.7-2.2,2.1v4.7h-1.8v-13.3h1.8ZM225,78.2c1.4,0,2.5.5,3.2,1.5.8,1,1.2,2.3,1.2,3.8v.2h-7.2c0,1,.3,1.8.8,2.3.5.6,1.3.8,2.2.8s1.3-.2,1.7-.5c.4-.3.7-.8.8-1.4h1.6c-.2,1.1-.7,1.9-1.4,2.5-.7.6-1.6.8-2.7.8-1,0-1.9-.2-2.6-.7-.7-.5-1.2-1.1-1.5-1.9-.3-.8-.5-1.7-.5-2.5,0-1.4.4-2.6,1.3-3.6.9-.9,1.9-1.4,3.2-1.4ZM222.2,82.4h5.5c0-.8-.3-1.4-.9-1.9-.5-.5-1.2-.8-1.9-.8s-1.4.2-1.9.7c-.5.5-.8,1.2-.9,2ZM231.8,78.5l2.8,7.9h0l2.7-7.9h1.7l-4.1,10.7c-.4,1.1-.8,1.9-1.2,2.2-.4.4-.9.6-1.7.6-.2,0-.4,0-.6,0-.2,0-.4,0-.5-.1v-1.5c.2,0,.3,0,.5.1.2,0,.3,0,.5,0,.6,0,1.1-.3,1.3-1,.3-.6.5-1.1.6-1.5l-3.8-9.6h1.8Z"/>
</svg>